{"glyphs":{"0":{"ha":868,"x_min":49,"x_max":819,"o":"m 435 -3 q 236 51 324 -4 q 99 211 149 106 q 49 463 49 317 q 152 813 49 699 q 435 926 256 928 q 633 873 546 928 q 770 713 721 818 q 819 463 819 608 q 769 208 819 313 q 633 49 719 103 q 435 -3 546 -4 m 433 151 q 597 237 543 151 q 651 467 651 322 q 597 690 651 607 q 433 771 543 772 q 271 688 325 772 q 217 463 217 604 q 271 236 217 321 q 433 151 325 151 z "},"1":{"ha":465,"x_min":72,"x_max":326,"o":"m 326 917 l 326 0 l 164 0 l 164 761 l 72 761 l 72 917 l 326 917 z "},"2":{"ha":778,"x_min":53,"x_max":714,"o":"m 714 156 l 714 0 l 75 0 l 125 50 q 341 274 263 188 q 472 449 419 361 q 524 617 524 538 q 478 732 524 692 q 364 772 432 772 q 250 731 290 772 q 210 638 210 689 q 264 494 210 551 l 165 404 q 84 503 115 432 q 53 633 53 575 q 93 778 53 710 q 210 887 133 846 q 392 928 288 928 q 548 887 479 928 q 654 778 617 846 q 692 631 692 710 q 656 474 692 551 q 569 329 619 396 q 426 156 518 263 l 714 156 z "},"3":{"ha":729,"x_min":67,"x_max":643,"o":"m 422 581 q 581 503 519 569 q 643 306 643 436 q 599 138 643 210 q 480 28 554 67 q 317 -11 406 -11 q 178 17 249 -11 q 67 90 108 44 l 149 224 q 220 168 175 192 q 313 144 265 144 q 428 191 381 144 q 476 315 476 238 q 434 428 476 386 q 319 471 392 471 q 260 467 283 471 q 207 454 236 463 l 203 458 l 385 761 l 129 761 l 129 917 l 618 917 l 422 581 z "},"4":{"ha":754,"x_min":17,"x_max":703,"o":"m 703 336 l 703 213 l 588 213 l 588 0 l 425 0 l 425 213 l 17 213 l 17 214 l 586 928 l 588 928 l 588 336 l 703 336 m 425 336 l 425 557 l 256 336 l 425 336 z "},"5":{"ha":724,"x_min":76,"x_max":646,"o":"m 353 608 q 510 567 444 608 q 611 456 576 525 q 646 304 646 388 q 606 144 646 217 q 495 31 565 72 q 339 -11 425 -11 q 192 17 264 -11 q 76 88 119 44 l 161 215 q 234 165 188 185 q 325 144 281 144 q 435 187 392 144 q 479 299 479 229 q 435 424 479 376 q 314 472 392 472 q 228 460 269 472 q 139 419 188 447 l 138 419 l 138 917 l 583 917 l 583 761 l 276 761 l 276 600 q 353 608 314 608 z "},"6":{"ha":765,"x_min":49,"x_max":715,"o":"m 442 594 q 574 556 511 594 q 676 451 638 518 q 715 300 715 383 q 669 136 715 207 q 548 27 624 65 q 388 -11 472 -11 q 215 35 292 -11 q 93 167 138 81 q 49 369 49 253 q 164 674 49 531 q 460 932 279 818 l 568 814 q 372 685 451 761 q 256 526 293 608 q 442 594 326 594 m 381 133 q 500 179 453 133 q 547 300 547 225 q 500 415 547 372 q 381 458 453 458 q 263 417 311 458 q 214 319 214 376 l 214 292 q 236 214 214 250 q 297 156 258 178 q 381 133 335 133 z "},"7":{"ha":688,"x_min":49,"x_max":656,"o":"m 656 917 l 299 0 l 118 0 l 421 761 l 49 761 l 49 917 l 656 917 z "},"8":{"ha":732,"x_min":32,"x_max":700,"o":"m 32 293 q 83 453 32 389 q 203 553 133 518 q 139 623 161 586 q 117 717 117 660 q 149 825 117 776 q 239 901 182 874 q 365 928 296 928 q 492 901 435 928 q 583 827 550 874 q 617 724 617 781 q 594 625 617 663 q 528 553 572 588 q 649 451 599 515 q 700 293 700 386 q 656 143 700 213 q 534 31 611 74 q 364 -11 457 -11 q 194 31 271 -11 q 75 142 118 72 q 32 293 32 213 m 274 697 q 303 634 274 661 q 369 607 332 607 q 435 633 407 607 q 463 697 463 660 q 435 765 463 738 q 369 793 407 793 q 302 765 331 793 q 274 697 274 738 m 197 299 q 219 213 197 253 q 281 149 242 172 q 364 125 319 125 q 450 149 410 125 q 515 213 490 172 q 539 299 539 253 q 489 422 539 371 q 368 472 439 472 q 284 449 324 472 q 221 386 244 426 q 197 299 197 346 z "},"9":{"ha":751,"x_min":49,"x_max":715,"o":"m 376 918 q 548 875 471 918 q 670 757 625 832 q 715 588 715 682 q 651 340 715 450 q 492 149 588 229 q 260 -21 397 68 l 151 97 q 346 211 261 149 q 479 338 431 274 q 321 294 417 294 q 189 333 251 294 q 88 438 126 371 q 49 588 49 506 q 94 763 49 688 q 215 878 140 838 q 376 918 290 918 m 215 600 q 263 477 215 524 q 382 431 311 431 q 501 474 453 431 q 549 582 549 518 l 549 610 q 499 726 547 678 q 382 774 451 774 q 263 726 311 774 q 215 600 215 679 z "},"\u0000":{"ha":0,"x_min":0,"x_max":0,"o":""},"\r":{"ha":444,"x_min":0,"x_max":0,"o":""}," ":{"ha":444,"x_min":0,"x_max":0,"o":""},"A":{"ha":971,"x_min":33,"x_max":938,"o":"m 658 238 l 290 238 l 193 0 l 33 0 l 481 1053 l 490 1053 l 938 0 l 751 0 l 658 238 m 604 376 l 478 696 l 347 376 l 604 376 z "},"Á":{"ha":971,"x_min":33,"x_max":938,"o":"m 658 238 l 290 238 l 193 0 l 33 0 l 481 1053 l 490 1053 l 938 0 l 751 0 l 658 238 m 604 376 l 478 696 l 347 376 l 604 376 m 531 1097 l 433 1097 l 546 1283 l 718 1283 l 531 1097 z "},"Ă":{"ha":971,"x_min":33,"x_max":938,"o":"m 658 238 l 290 238 l 193 0 l 33 0 l 481 1053 l 490 1053 l 938 0 l 751 0 l 658 238 m 604 376 l 478 696 l 347 376 l 604 376 m 488 1101 q 268 1351 306 1101 l 372 1351 q 488 1206 396 1206 q 600 1351 579 1206 l 706 1351 q 488 1101 671 1101 z "},"Ắ":{"ha":971,"x_min":33,"x_max":938,"o":"m 658 238 l 290 238 l 193 0 l 33 0 l 481 1053 l 490 1053 l 938 0 l 751 0 l 658 238 m 604 376 l 478 696 l 347 376 l 604 376 m 488 1101 q 268 1351 306 1101 l 372 1351 q 488 1206 396 1206 q 600 1351 579 1206 l 706 1351 q 488 1101 671 1101 m 529 1403 l 432 1403 l 544 1589 l 717 1589 l 529 1403 z "},"Ặ":{"ha":971,"x_min":33,"x_max":938,"o":"m 658 238 l 290 238 l 193 0 l 33 0 l 481 1053 l 490 1053 l 938 0 l 751 0 l 658 238 m 604 376 l 478 696 l 347 376 l 604 376 m 394 -150 q 422 -91 394 -115 q 485 -67 450 -67 q 545 -91 518 -67 q 572 -150 572 -115 q 545 -208 572 -185 q 485 -232 518 -232 q 422 -208 450 -232 q 394 -150 394 -185 m 488 1101 q 268 1351 306 1101 l 372 1351 q 488 1206 396 1206 q 600 1351 579 1206 l 706 1351 q 488 1101 671 1101 z "},"Ằ":{"ha":971,"x_min":33,"x_max":938,"o":"m 658 238 l 290 238 l 193 0 l 33 0 l 481 1053 l 490 1053 l 938 0 l 751 0 l 658 238 m 604 376 l 478 696 l 347 376 l 604 376 m 488 1101 q 268 1351 306 1101 l 372 1351 q 488 1206 396 1206 q 600 1351 579 1206 l 706 1351 q 488 1101 671 1101 m 429 1597 l 524 1411 l 426 1411 l 256 1597 l 429 1597 z "},"Ẳ":{"ha":971,"x_min":33,"x_max":938,"o":"m 658 238 l 290 238 l 193 0 l 33 0 l 481 1053 l 490 1053 l 938 0 l 751 0 l 658 238 m 604 376 l 478 696 l 347 376 l 604 376 m 488 1101 q 268 1351 306 1101 l 372 1351 q 488 1206 396 1206 q 600 1351 579 1206 l 706 1351 q 488 1101 671 1101 m 474 1461 q 519 1501 504 1483 q 533 1540 533 1518 q 522 1576 533 1563 q 489 1589 510 1589 q 429 1547 453 1589 l 372 1583 q 431 1652 394 1629 q 510 1675 468 1675 q 592 1642 564 1675 q 621 1561 621 1608 q 592 1481 621 1515 q 510 1415 563 1446 l 474 1461 z "},"Ẵ":{"ha":971,"x_min":33,"x_max":938,"o":"m 658 238 l 290 238 l 193 0 l 33 0 l 481 1053 l 490 1053 l 938 0 l 751 0 l 658 238 m 604 376 l 478 696 l 347 376 l 604 376 m 488 1101 q 268 1351 306 1101 l 372 1351 q 488 1206 396 1206 q 600 1351 579 1206 l 706 1351 q 488 1101 671 1101 m 594 1456 q 527 1471 553 1456 q 463 1518 501 1486 q 427 1545 442 1536 q 397 1554 413 1554 q 357 1526 371 1554 q 346 1456 343 1497 l 263 1456 q 261 1479 261 1464 q 300 1607 261 1556 q 404 1658 339 1658 q 460 1643 436 1658 q 518 1597 485 1628 q 558 1564 542 1575 q 592 1553 575 1553 q 635 1657 640 1553 l 717 1656 q 719 1617 719 1628 q 683 1500 719 1544 q 594 1456 647 1456 z "},"Â":{"ha":971,"x_min":33,"x_max":938,"o":"m 658 238 l 290 238 l 193 0 l 33 0 l 481 1053 l 490 1053 l 938 0 l 751 0 l 658 238 m 604 376 l 478 696 l 347 376 l 604 376 m 578 1118 l 474 1224 l 376 1118 l 233 1118 l 474 1363 l 475 1363 l 721 1118 l 578 1118 z "},"Ấ":{"ha":971,"x_min":33,"x_max":957,"o":"m 658 238 l 290 238 l 193 0 l 33 0 l 481 1053 l 490 1053 l 938 0 l 751 0 l 658 238 m 604 376 l 478 696 l 347 376 l 604 376 m 590 1139 l 486 1244 l 389 1139 l 246 1139 l 486 1383 l 488 1383 l 733 1139 l 590 1139 m 769 1281 l 672 1281 l 785 1467 l 957 1467 l 769 1281 z "},"Ậ":{"ha":971,"x_min":33,"x_max":938,"o":"m 658 238 l 290 238 l 193 0 l 33 0 l 481 1053 l 490 1053 l 938 0 l 751 0 l 658 238 m 604 376 l 478 696 l 347 376 l 604 376 m 394 -150 q 422 -91 394 -115 q 485 -67 450 -67 q 545 -91 518 -67 q 572 -150 572 -115 q 545 -208 572 -185 q 485 -232 518 -232 q 422 -208 450 -232 q 394 -150 394 -185 m 578 1118 l 474 1224 l 376 1118 l 233 1118 l 474 1363 l 475 1363 l 721 1118 l 578 1118 z "},"Ầ":{"ha":971,"x_min":33,"x_max":938,"o":"m 658 238 l 290 238 l 193 0 l 33 0 l 481 1053 l 490 1053 l 938 0 l 751 0 l 658 238 m 604 376 l 478 696 l 347 376 l 604 376 m 582 1138 l 478 1243 l 381 1138 l 238 1138 l 478 1382 l 479 1382 l 725 1138 l 582 1138 m 208 1474 l 303 1288 l 206 1288 l 35 1474 l 208 1474 z "},"Ẩ":{"ha":971,"x_min":33,"x_max":938,"o":"m 658 238 l 290 238 l 193 0 l 33 0 l 481 1053 l 490 1053 l 938 0 l 751 0 l 658 238 m 604 376 l 478 696 l 347 376 l 604 376 m 586 1139 l 482 1244 l 385 1139 l 242 1139 l 482 1383 l 483 1383 l 729 1139 l 586 1139 m 718 1288 q 763 1327 749 1310 q 778 1367 778 1344 q 766 1402 778 1389 q 733 1415 754 1415 q 674 1374 697 1415 l 617 1410 q 676 1478 639 1456 q 754 1501 713 1501 q 837 1468 808 1501 q 865 1388 865 1435 q 836 1307 865 1342 q 754 1242 807 1272 l 718 1288 z "},"Ẫ":{"ha":971,"x_min":33,"x_max":938,"o":"m 658 238 l 290 238 l 193 0 l 33 0 l 481 1053 l 490 1053 l 938 0 l 751 0 l 658 238 m 604 376 l 478 696 l 347 376 l 604 376 m 579 1132 l 475 1238 l 378 1132 l 235 1132 l 475 1376 l 476 1376 l 722 1132 l 579 1132 m 589 1432 q 522 1447 547 1432 q 457 1494 496 1463 q 422 1522 436 1513 q 392 1531 407 1531 q 351 1502 365 1531 q 340 1432 338 1474 l 257 1432 q 256 1456 256 1440 q 294 1583 256 1532 q 399 1635 333 1635 q 455 1619 431 1635 q 513 1574 479 1604 q 553 1540 536 1551 q 586 1529 569 1529 q 629 1633 635 1529 l 711 1632 q 714 1593 714 1604 q 678 1476 714 1521 q 589 1432 642 1432 z "},"Ȁ":{"ha":971,"x_min":33,"x_max":938,"o":"m 658 238 l 290 238 l 193 0 l 33 0 l 481 1053 l 490 1053 l 938 0 l 751 0 l 658 238 m 604 376 l 478 696 l 347 376 l 604 376 m 361 1300 l 456 1114 l 358 1114 l 188 1300 l 361 1300 m 574 1300 l 668 1114 l 571 1114 l 400 1300 l 574 1300 z "},"Ä":{"ha":971,"x_min":33,"x_max":938,"o":"m 658 238 l 290 238 l 193 0 l 33 0 l 481 1053 l 490 1053 l 938 0 l 751 0 l 658 238 m 604 376 l 478 696 l 347 376 l 604 376 m 263 1186 q 288 1247 263 1222 q 347 1271 314 1271 q 403 1246 378 1271 q 429 1186 429 1221 q 403 1126 429 1150 q 347 1101 378 1101 q 288 1126 314 1101 q 263 1186 263 1150 m 529 1186 q 555 1247 529 1222 q 614 1271 581 1271 q 670 1246 644 1271 q 696 1186 696 1221 q 670 1126 696 1150 q 614 1101 644 1101 q 555 1126 581 1101 q 529 1186 529 1150 z "},"Ạ":{"ha":971,"x_min":33,"x_max":938,"o":"m 658 238 l 290 238 l 193 0 l 33 0 l 481 1053 l 490 1053 l 938 0 l 751 0 l 658 238 m 604 376 l 478 696 l 347 376 l 604 376 m 394 -150 q 422 -91 394 -115 q 485 -67 450 -67 q 545 -91 518 -67 q 572 -150 572 -115 q 545 -208 572 -185 q 485 -232 518 -232 q 422 -208 450 -232 q 394 -150 394 -185 z "},"À":{"ha":971,"x_min":33,"x_max":938,"o":"m 658 238 l 290 238 l 193 0 l 33 0 l 481 1053 l 490 1053 l 938 0 l 751 0 l 658 238 m 604 376 l 478 696 l 347 376 l 604 376 m 431 1292 l 525 1106 l 428 1106 l 257 1292 l 431 1292 z "},"Ả":{"ha":971,"x_min":33,"x_max":938,"o":"m 658 238 l 290 238 l 193 0 l 33 0 l 481 1053 l 490 1053 l 938 0 l 751 0 l 658 238 m 604 376 l 478 696 l 347 376 l 604 376 m 475 1156 q 520 1195 506 1178 q 535 1235 535 1213 q 523 1270 535 1257 q 490 1283 511 1283 q 431 1242 454 1283 l 374 1278 q 433 1347 396 1324 q 511 1369 469 1369 q 594 1336 565 1369 q 622 1256 622 1303 q 593 1175 622 1210 q 511 1110 564 1140 l 475 1156 z "},"Ȃ":{"ha":971,"x_min":33,"x_max":938,"o":"m 658 238 l 290 238 l 193 0 l 33 0 l 481 1053 l 490 1053 l 938 0 l 751 0 l 658 238 m 604 376 l 478 696 l 347 376 l 604 376 m 479 1315 q 699 1065 661 1315 l 594 1065 q 479 1211 571 1211 q 367 1065 388 1211 l 261 1065 q 479 1315 296 1315 z "},"Ā":{"ha":971,"x_min":33,"x_max":938,"o":"m 658 238 l 290 238 l 193 0 l 33 0 l 481 1053 l 490 1053 l 938 0 l 751 0 l 658 238 m 604 376 l 478 696 l 347 376 l 604 376 m 654 1217 l 654 1107 l 308 1107 l 308 1217 l 654 1217 z "},"Ą":{"ha":971,"x_min":33,"x_max":992,"o":"m 992 -211 q 915 -281 964 -253 q 822 -308 867 -308 q 694 -263 746 -308 q 643 -146 643 -218 q 672 -60 643 -101 q 749 6 700 -19 l 658 238 l 290 238 l 193 0 l 33 0 l 481 1053 l 490 1053 l 938 0 l 939 0 q 814 -65 856 -35 q 772 -133 772 -96 q 790 -182 772 -167 q 836 -197 808 -197 q 933 -131 892 -197 l 992 -211 m 604 376 l 478 696 l 347 376 l 604 376 z "},"Å":{"ha":971,"x_min":33,"x_max":938,"o":"m 658 238 l 290 238 l 193 0 l 33 0 l 481 1053 l 490 1053 l 938 0 l 751 0 l 658 238 m 604 376 l 478 696 l 347 376 l 604 376 m 350 1231 q 390 1326 350 1289 q 490 1363 429 1363 q 590 1326 550 1363 q 631 1231 631 1289 q 590 1135 631 1172 q 490 1097 550 1097 q 390 1134 429 1097 q 350 1231 350 1171 m 433 1228 q 449 1185 433 1201 q 490 1168 465 1168 q 532 1185 517 1168 q 547 1228 547 1201 q 532 1273 547 1257 q 490 1289 517 1289 q 449 1273 465 1289 q 433 1228 433 1257 z "},"Ǻ":{"ha":971,"x_min":33,"x_max":938,"o":"m 658 238 l 290 238 l 193 0 l 33 0 l 481 1053 l 490 1053 l 938 0 l 751 0 l 658 238 m 604 376 l 478 696 l 347 376 l 604 376 m 350 1231 q 390 1326 350 1289 q 490 1363 429 1363 q 590 1326 550 1363 q 631 1231 631 1289 q 590 1135 631 1172 q 490 1097 550 1097 q 390 1134 429 1097 q 350 1231 350 1171 m 433 1228 q 449 1185 433 1201 q 490 1168 465 1168 q 532 1185 517 1168 q 547 1228 547 1201 q 532 1273 547 1257 q 490 1289 517 1289 q 449 1273 465 1289 q 433 1228 433 1257 m 531 1414 l 433 1414 l 546 1600 l 718 1600 l 531 1414 z "},"Ã":{"ha":971,"x_min":33,"x_max":938,"o":"m 658 238 l 290 238 l 193 0 l 33 0 l 481 1053 l 490 1053 l 938 0 l 751 0 l 658 238 m 604 376 l 478 696 l 347 376 l 604 376 m 596 1149 q 528 1164 554 1149 q 464 1211 503 1179 q 428 1238 443 1229 q 399 1247 414 1247 q 358 1219 372 1247 q 347 1149 344 1190 l 264 1149 q 263 1172 263 1157 q 301 1300 263 1249 q 406 1351 340 1351 q 462 1336 438 1351 q 519 1290 486 1321 q 560 1257 543 1268 q 593 1246 576 1246 q 636 1350 642 1246 l 718 1349 q 721 1310 721 1321 q 685 1193 721 1238 q 596 1149 649 1149 z "},"Æ":{"ha":1329,"x_min":14,"x_max":1244,"o":"m 1244 156 l 1244 0 l 668 0 l 668 239 l 346 239 l 200 0 l 14 0 l 668 1011 l 1225 1011 l 1225 856 l 829 856 l 829 583 l 1169 583 l 1169 428 l 829 428 l 829 156 l 1244 156 m 668 367 l 668 764 l 425 367 l 668 367 z "},"Ǽ":{"ha":1329,"x_min":14,"x_max":1244,"o":"m 1244 156 l 1244 0 l 668 0 l 668 239 l 346 239 l 200 0 l 14 0 l 668 1011 l 1225 1011 l 1225 856 l 829 856 l 829 583 l 1169 583 l 1169 428 l 829 428 l 829 156 l 1244 156 m 668 367 l 668 764 l 425 367 l 668 367 m 963 1076 l 865 1076 l 978 1263 l 1150 1263 l 963 1076 z "},"B":{"ha":875,"x_min":139,"x_max":799,"o":"m 618 528 q 751 432 703 493 q 799 290 799 371 q 699 72 799 143 q 454 0 600 0 l 139 0 l 139 1011 l 415 1011 q 661 947 574 1011 q 749 757 749 882 q 715 620 749 678 q 618 528 681 563 m 301 581 l 442 581 q 547 621 511 581 q 582 722 582 661 q 540 822 582 789 q 422 856 497 856 l 301 856 l 301 581 m 447 150 q 581 185 529 150 q 632 289 632 221 q 576 393 632 361 q 436 425 519 425 l 301 425 l 301 150 l 447 150 z "},"C":{"ha":965,"x_min":76,"x_max":889,"o":"m 889 79 q 766 18 844 47 q 594 -11 688 -11 q 320 58 438 -11 q 140 242 203 126 q 76 497 76 358 q 140 768 76 649 q 316 955 203 888 q 574 1022 429 1022 q 738 999 663 1022 q 872 939 814 975 l 808 788 q 579 867 696 867 q 413 819 490 867 q 290 688 336 771 q 244 507 244 606 q 287 320 244 403 q 408 191 329 238 q 589 144 486 144 q 722 167 663 144 q 821 224 781 189 l 889 79 z "},"Ć":{"ha":965,"x_min":76,"x_max":889,"o":"m 889 79 q 766 18 844 47 q 594 -11 688 -11 q 320 58 438 -11 q 140 242 203 126 q 76 497 76 358 q 140 768 76 649 q 316 955 203 888 q 574 1022 429 1022 q 738 999 663 1022 q 872 939 814 975 l 808 788 q 579 867 696 867 q 413 819 490 867 q 290 688 336 771 q 244 507 244 606 q 287 320 244 403 q 408 191 329 238 q 589 144 486 144 q 722 167 663 144 q 821 224 781 189 l 889 79 m 593 1079 l 496 1079 l 608 1265 l 781 1265 l 593 1079 z "},"Č":{"ha":965,"x_min":76,"x_max":889,"o":"m 889 79 q 766 18 844 47 q 594 -11 688 -11 q 320 58 438 -11 q 140 242 203 126 q 76 497 76 358 q 140 768 76 649 q 316 955 203 888 q 574 1022 429 1022 q 738 999 663 1022 q 872 939 814 975 l 808 788 q 579 867 696 867 q 413 819 490 867 q 290 688 336 771 q 244 507 244 606 q 287 320 244 403 q 408 191 329 238 q 589 144 486 144 q 722 167 663 144 q 821 224 781 189 l 889 79 m 789 1311 l 549 1067 l 547 1067 l 303 1311 l 444 1311 l 550 1206 l 647 1311 l 789 1311 z "},"Ç":{"ha":965,"x_min":76,"x_max":889,"o":"m 585 -57 q 708 -89 661 -57 q 754 -181 754 -121 q 696 -287 754 -250 q 553 -324 638 -324 q 399 -267 456 -324 l 447 -204 q 485 -231 463 -221 q 536 -240 508 -240 q 597 -225 571 -240 q 624 -183 624 -210 q 604 -143 624 -160 q 540 -126 585 -126 q 453 -143 510 -126 l 428 -69 l 503 -4 q 276 86 372 15 q 128 265 179 157 q 76 497 76 372 q 140 768 76 649 q 316 955 203 888 q 574 1022 429 1022 q 738 999 663 1022 q 872 939 814 975 l 808 788 q 579 867 696 867 q 413 819 490 867 q 290 688 336 771 q 244 507 244 606 q 287 320 244 403 q 408 191 329 238 q 589 144 486 144 q 722 167 663 144 q 821 224 781 189 l 889 79 q 780 22 850 50 q 625 -10 710 -6 l 585 -57 z "},"Ĉ":{"ha":965,"x_min":76,"x_max":889,"o":"m 889 79 q 766 18 844 47 q 594 -11 688 -11 q 320 58 438 -11 q 140 242 203 126 q 76 497 76 358 q 140 768 76 649 q 316 955 203 888 q 574 1022 429 1022 q 738 999 663 1022 q 872 939 814 975 l 808 788 q 579 867 696 867 q 413 819 490 867 q 290 688 336 771 q 244 507 244 606 q 287 320 244 403 q 408 191 329 238 q 589 144 486 144 q 722 167 663 144 q 821 224 781 189 l 889 79 m 640 1100 l 536 1206 l 439 1100 l 296 1100 l 536 1344 l 538 1344 l 783 1100 l 640 1100 z "},"Ċ":{"ha":965,"x_min":76,"x_max":889,"o":"m 889 79 q 766 18 844 47 q 594 -11 688 -11 q 320 58 438 -11 q 140 242 203 126 q 76 497 76 358 q 140 768 76 649 q 316 955 203 888 q 574 1022 429 1022 q 738 999 663 1022 q 872 939 814 975 l 808 788 q 579 867 696 867 q 413 819 490 867 q 290 688 336 771 q 244 507 244 606 q 287 320 244 403 q 408 191 329 238 q 589 144 486 144 q 722 167 663 144 q 821 224 781 189 l 889 79 m 460 1164 q 488 1223 460 1199 q 550 1247 515 1247 q 610 1223 583 1247 q 638 1164 638 1199 q 610 1106 638 1129 q 550 1082 583 1082 q 488 1106 515 1082 q 460 1164 460 1129 z "},"D":{"ha":1057,"x_min":139,"x_max":979,"o":"m 139 1011 l 426 1011 q 741 936 617 1011 q 922 743 865 861 q 979 492 979 625 q 910 233 979 344 q 726 60 842 121 q 475 0 611 0 l 139 0 l 139 1011 m 446 156 q 637 196 554 156 q 766 315 719 236 q 813 503 813 393 q 762 702 813 622 q 633 819 711 782 q 471 857 554 857 l 301 857 l 301 156 l 446 156 z "},"Ǆ":{"ha":1958,"x_min":139,"x_max":1885,"o":"m 139 1011 l 426 1011 q 741 936 617 1011 q 922 743 865 861 q 979 492 979 625 q 910 233 979 344 q 726 60 842 121 q 475 0 611 0 l 139 0 l 139 1011 m 446 156 q 637 196 554 156 q 766 315 719 236 q 813 503 813 393 q 762 702 813 622 q 633 819 711 782 q 471 857 554 857 l 301 857 l 301 156 l 446 156 m 1885 156 l 1885 0 l 1031 0 q 1300 410 1046 22 q 1592 856 1511 736 l 1217 856 q 1133 882 1171 856 q 1094 947 1094 908 l 1094 1063 l 1244 1063 l 1244 1043 q 1252 1015 1244 1019 q 1288 1011 1260 1011 l 1876 1011 l 1308 156 l 1885 156 m 1701 1286 l 1461 1042 l 1460 1042 l 1215 1286 l 1357 1286 l 1463 1181 l 1560 1286 l 1701 1286 z "},"Ð":{"ha":1057,"x_min":26,"x_max":979,"o":"m 426 1011 q 741 936 617 1011 q 922 743 865 861 q 979 492 979 625 q 910 233 979 344 q 726 60 842 121 q 475 0 611 0 l 139 0 l 139 429 l 26 429 l 26 574 l 139 574 l 139 1011 l 426 1011 m 446 156 q 637 196 554 156 q 766 315 719 236 q 813 503 813 393 q 762 702 813 622 q 633 819 711 782 q 471 857 554 857 l 301 857 l 301 574 l 432 574 l 432 429 l 301 429 l 301 156 l 446 156 z "},"Ď":{"ha":1057,"x_min":139,"x_max":979,"o":"m 139 1011 l 426 1011 q 741 936 617 1011 q 922 743 865 861 q 979 492 979 625 q 910 233 979 344 q 726 60 842 121 q 475 0 611 0 l 139 0 l 139 1011 m 446 156 q 637 196 554 156 q 766 315 719 236 q 813 503 813 393 q 762 702 813 622 q 633 819 711 782 q 471 857 554 857 l 301 857 l 301 156 l 446 156 m 674 1286 l 433 1042 l 432 1042 l 188 1286 l 329 1286 l 435 1181 l 532 1286 l 674 1286 z "},"Đ":{"ha":1069,"x_min":40,"x_max":993,"o":"m 440 1011 q 755 936 631 1011 q 936 743 879 861 q 993 492 993 625 q 924 233 993 344 q 740 60 856 121 q 489 0 625 0 l 153 0 l 153 429 l 40 429 l 40 574 l 153 574 l 153 1011 l 440 1011 m 460 156 q 651 196 568 156 q 780 315 733 236 q 826 503 826 393 q 776 702 826 622 q 647 819 725 782 q 485 857 568 857 l 315 857 l 315 574 l 446 574 l 446 429 l 315 429 l 315 156 l 460 156 z "},"ǅ":{"ha":1733,"x_min":139,"x_max":1661,"o":"m 139 1011 l 426 1011 q 741 936 617 1011 q 922 743 865 861 q 979 492 979 625 q 910 233 979 344 q 726 60 842 121 q 475 0 611 0 l 139 0 l 139 1011 m 446 156 q 637 196 554 156 q 766 315 719 236 q 813 503 813 393 q 762 702 813 622 q 633 819 711 782 q 471 857 554 857 l 301 857 l 301 156 l 446 156 m 1343 128 l 1657 128 l 1657 0 l 1092 0 l 1410 461 l 1235 461 q 1155 492 1188 461 q 1122 578 1122 524 l 1122 644 l 1239 644 l 1239 625 q 1249 594 1239 601 q 1286 588 1260 588 l 1661 588 l 1343 128 m 1653 904 l 1413 660 l 1411 660 l 1167 904 l 1308 904 l 1414 799 l 1511 904 l 1653 904 z "},"E":{"ha":914,"x_min":139,"x_max":829,"o":"m 810 1011 l 810 856 l 301 856 l 301 586 l 754 586 l 754 431 l 301 431 l 301 156 l 829 156 l 829 0 l 139 0 l 139 1011 l 810 1011 z "},"É":{"ha":914,"x_min":139,"x_max":829,"o":"m 810 1011 l 810 856 l 301 856 l 301 586 l 754 586 l 754 431 l 301 431 l 301 156 l 829 156 l 829 0 l 139 0 l 139 1011 l 810 1011 m 515 1076 l 418 1076 l 531 1263 l 703 1263 l 515 1076 z "},"Ĕ":{"ha":914,"x_min":139,"x_max":829,"o":"m 810 1011 l 810 856 l 301 856 l 301 586 l 754 586 l 754 431 l 301 431 l 301 156 l 829 156 l 829 0 l 139 0 l 139 1011 l 810 1011 m 472 1081 q 253 1331 290 1081 l 357 1331 q 472 1185 381 1185 q 585 1331 564 1185 l 690 1331 q 472 1081 656 1081 z "},"Ě":{"ha":914,"x_min":139,"x_max":829,"o":"m 810 1011 l 810 856 l 301 856 l 301 586 l 754 586 l 754 431 l 301 431 l 301 156 l 829 156 l 829 0 l 139 0 l 139 1011 l 810 1011 m 711 1308 l 471 1064 l 469 1064 l 225 1308 l 367 1308 l 472 1203 l 569 1308 l 711 1308 z "},"Ê":{"ha":914,"x_min":139,"x_max":829,"o":"m 810 1011 l 810 856 l 301 856 l 301 586 l 754 586 l 754 431 l 301 431 l 301 156 l 829 156 l 829 0 l 139 0 l 139 1011 l 810 1011 m 563 1097 l 458 1203 l 361 1097 l 218 1097 l 458 1342 l 460 1342 l 706 1097 l 563 1097 z "},"Ế":{"ha":914,"x_min":139,"x_max":942,"o":"m 810 1011 l 810 856 l 301 856 l 301 586 l 754 586 l 754 431 l 301 431 l 301 156 l 829 156 l 829 0 l 139 0 l 139 1011 l 810 1011 m 575 1118 l 471 1224 l 374 1118 l 231 1118 l 471 1363 l 472 1363 l 718 1118 l 575 1118 m 754 1260 l 657 1260 l 769 1446 l 942 1446 l 754 1260 z "},"Ệ":{"ha":914,"x_min":139,"x_max":829,"o":"m 810 1011 l 810 856 l 301 856 l 301 586 l 754 586 l 754 431 l 301 431 l 301 156 l 829 156 l 829 0 l 139 0 l 139 1011 l 810 1011 m 379 -150 q 407 -91 379 -115 q 469 -67 435 -67 q 530 -91 503 -67 q 557 -150 557 -115 q 530 -208 557 -185 q 469 -232 503 -232 q 407 -208 435 -232 q 379 -150 379 -185 m 563 1097 l 458 1203 l 361 1097 l 218 1097 l 458 1342 l 460 1342 l 706 1097 l 563 1097 z "},"Ề":{"ha":914,"x_min":19,"x_max":829,"o":"m 810 1011 l 810 856 l 301 856 l 301 586 l 754 586 l 754 431 l 301 431 l 301 156 l 829 156 l 829 0 l 139 0 l 139 1011 l 810 1011 m 567 1117 l 463 1222 l 365 1117 l 222 1117 l 463 1361 l 464 1361 l 710 1117 l 567 1117 m 193 1453 l 288 1267 l 190 1267 l 19 1453 l 193 1453 z "},"Ể":{"ha":914,"x_min":139,"x_max":850,"o":"m 810 1011 l 810 856 l 301 856 l 301 586 l 754 586 l 754 431 l 301 431 l 301 156 l 829 156 l 829 0 l 139 0 l 139 1011 l 810 1011 m 571 1118 l 467 1224 l 369 1118 l 226 1118 l 467 1363 l 468 1363 l 714 1118 l 571 1118 m 703 1267 q 748 1306 733 1289 q 763 1346 763 1324 q 751 1381 763 1368 q 718 1394 739 1394 q 658 1353 682 1394 l 601 1389 q 660 1458 624 1435 q 739 1481 697 1481 q 822 1447 793 1481 q 850 1367 850 1414 q 821 1286 850 1321 q 739 1221 792 1251 l 703 1267 z "},"Ễ":{"ha":914,"x_min":139,"x_max":829,"o":"m 810 1011 l 810 856 l 301 856 l 301 586 l 754 586 l 754 431 l 301 431 l 301 156 l 829 156 l 829 0 l 139 0 l 139 1011 l 810 1011 m 564 1111 l 460 1217 l 363 1111 l 219 1111 l 460 1356 l 461 1356 l 707 1111 l 564 1111 m 574 1411 q 506 1426 532 1411 q 442 1474 481 1442 q 406 1501 421 1492 q 376 1510 392 1510 q 336 1481 350 1510 q 325 1411 322 1453 l 242 1411 q 240 1435 240 1419 q 279 1563 240 1511 q 383 1614 318 1614 q 440 1599 415 1614 q 497 1553 464 1583 q 538 1519 521 1531 q 571 1508 554 1508 q 614 1613 619 1508 l 696 1611 q 699 1572 699 1583 q 663 1456 699 1500 q 574 1411 626 1411 z "},"Ȅ":{"ha":914,"x_min":139,"x_max":829,"o":"m 810 1011 l 810 856 l 301 856 l 301 586 l 754 586 l 754 431 l 301 431 l 301 156 l 829 156 l 829 0 l 139 0 l 139 1011 l 810 1011 m 346 1279 l 440 1093 l 343 1093 l 172 1279 l 346 1279 m 558 1279 l 653 1093 l 556 1093 l 385 1279 l 558 1279 z "},"Ë":{"ha":914,"x_min":139,"x_max":829,"o":"m 810 1011 l 810 856 l 301 856 l 301 586 l 754 586 l 754 431 l 301 431 l 301 156 l 829 156 l 829 0 l 139 0 l 139 1011 l 810 1011 m 247 1165 q 273 1226 247 1201 q 332 1250 299 1250 q 388 1225 363 1250 q 414 1165 414 1200 q 388 1105 414 1129 q 332 1081 363 1081 q 273 1105 299 1081 q 247 1165 247 1129 m 514 1165 q 540 1226 514 1201 q 599 1250 565 1250 q 655 1225 629 1250 q 681 1165 681 1200 q 655 1105 681 1129 q 599 1081 629 1081 q 540 1105 565 1081 q 514 1165 514 1129 z "},"Ė":{"ha":914,"x_min":139,"x_max":829,"o":"m 810 1011 l 810 856 l 301 856 l 301 586 l 754 586 l 754 431 l 301 431 l 301 156 l 829 156 l 829 0 l 139 0 l 139 1011 l 810 1011 m 382 1161 q 410 1220 382 1196 q 472 1244 438 1244 q 533 1220 506 1244 q 560 1161 560 1196 q 533 1103 560 1126 q 472 1079 506 1079 q 410 1103 438 1079 q 382 1161 382 1126 z "},"Ẹ":{"ha":914,"x_min":139,"x_max":829,"o":"m 810 1011 l 810 856 l 301 856 l 301 586 l 754 586 l 754 431 l 301 431 l 301 156 l 829 156 l 829 0 l 139 0 l 139 1011 l 810 1011 m 379 -150 q 407 -91 379 -115 q 469 -67 435 -67 q 530 -91 503 -67 q 557 -150 557 -115 q 530 -208 557 -185 q 469 -232 503 -232 q 407 -208 435 -232 q 379 -150 379 -185 z "},"È":{"ha":914,"x_min":139,"x_max":829,"o":"m 810 1011 l 810 856 l 301 856 l 301 586 l 754 586 l 754 431 l 301 431 l 301 156 l 829 156 l 829 0 l 139 0 l 139 1011 l 810 1011 m 415 1271 l 510 1085 l 413 1085 l 242 1271 l 415 1271 z "},"Ẻ":{"ha":914,"x_min":139,"x_max":829,"o":"m 810 1011 l 810 856 l 301 856 l 301 586 l 754 586 l 754 431 l 301 431 l 301 156 l 829 156 l 829 0 l 139 0 l 139 1011 l 810 1011 m 460 1135 q 505 1174 490 1157 q 519 1214 519 1192 q 508 1249 519 1236 q 475 1263 496 1263 q 415 1221 439 1263 l 358 1257 q 417 1326 381 1303 q 496 1349 454 1349 q 578 1315 550 1349 q 607 1235 607 1282 q 578 1154 607 1189 q 496 1089 549 1119 l 460 1135 z "},"Ȇ":{"ha":914,"x_min":139,"x_max":829,"o":"m 810 1011 l 810 856 l 301 856 l 301 586 l 754 586 l 754 431 l 301 431 l 301 156 l 829 156 l 829 0 l 139 0 l 139 1011 l 810 1011 m 464 1294 q 683 1044 646 1294 l 579 1044 q 464 1190 556 1190 q 351 1044 372 1190 l 246 1044 q 464 1294 281 1294 z "},"Ē":{"ha":914,"x_min":139,"x_max":829,"o":"m 810 1011 l 810 856 l 301 856 l 301 586 l 754 586 l 754 431 l 301 431 l 301 156 l 829 156 l 829 0 l 139 0 l 139 1011 l 810 1011 m 639 1196 l 639 1086 l 293 1086 l 293 1196 l 639 1196 z "},"Ę":{"ha":914,"x_min":139,"x_max":883,"o":"m 883 -211 q 807 -281 856 -253 q 714 -308 758 -308 q 586 -263 638 -308 q 535 -146 535 -218 q 560 -65 535 -104 q 629 0 585 -26 l 139 0 l 139 1011 l 810 1011 l 810 856 l 301 856 l 301 586 l 754 586 l 754 431 l 301 431 l 301 156 l 829 156 l 829 0 l 831 0 q 706 -65 747 -35 q 664 -133 664 -96 q 682 -182 664 -167 q 728 -197 700 -197 q 825 -131 783 -197 l 883 -211 z "},"Ẽ":{"ha":914,"x_min":139,"x_max":829,"o":"m 810 1011 l 810 856 l 301 856 l 301 586 l 754 586 l 754 431 l 301 431 l 301 156 l 829 156 l 829 0 l 139 0 l 139 1011 l 810 1011 m 581 1128 q 513 1143 539 1128 q 449 1190 488 1158 q 413 1217 428 1208 q 383 1226 399 1226 q 343 1198 357 1226 q 332 1128 329 1169 l 249 1128 q 247 1151 247 1136 q 286 1279 247 1228 q 390 1331 325 1331 q 447 1315 422 1331 q 504 1269 471 1300 q 544 1236 528 1247 q 578 1225 561 1225 q 621 1329 626 1225 l 703 1328 q 706 1289 706 1300 q 669 1172 706 1217 q 581 1128 633 1128 z "},"F":{"ha":824,"x_min":139,"x_max":753,"o":"m 753 1011 l 753 856 l 301 856 l 301 571 l 694 571 l 694 417 l 301 417 l 301 0 l 139 0 l 139 1011 l 753 1011 z "},"G":{"ha":1050,"x_min":76,"x_max":943,"o":"m 943 93 q 798 22 901 54 q 608 -11 694 -11 q 328 53 449 -11 q 142 228 207 117 q 76 482 76 340 q 147 775 76 653 q 335 960 217 897 q 596 1022 454 1022 q 762 1002 683 1022 q 900 949 840 982 l 847 799 q 737 842 806 824 q 617 860 668 860 q 343 764 443 860 q 243 496 243 668 q 290 315 243 393 q 420 193 336 236 q 613 150 504 150 q 706 159 661 150 q 781 185 750 168 l 781 353 l 590 353 l 590 508 l 943 508 l 943 93 z "},"Ğ":{"ha":1050,"x_min":76,"x_max":943,"o":"m 943 93 q 798 22 901 54 q 608 -11 694 -11 q 328 53 449 -11 q 142 228 207 117 q 76 482 76 340 q 147 775 76 653 q 335 960 217 897 q 596 1022 454 1022 q 762 1002 683 1022 q 900 949 840 982 l 847 799 q 737 842 806 824 q 617 860 668 860 q 343 764 443 860 q 243 496 243 668 q 290 315 243 393 q 420 193 336 236 q 613 150 504 150 q 706 159 661 150 q 781 185 750 168 l 781 353 l 590 353 l 590 508 l 943 508 l 943 93 m 569 1058 q 350 1308 388 1058 l 454 1308 q 569 1163 478 1163 q 682 1308 661 1163 l 788 1308 q 569 1058 753 1058 z "},"Ǧ":{"ha":1050,"x_min":76,"x_max":943,"o":"m 943 93 q 798 22 901 54 q 608 -11 694 -11 q 328 53 449 -11 q 142 228 207 117 q 76 482 76 340 q 147 775 76 653 q 335 960 217 897 q 596 1022 454 1022 q 762 1002 683 1022 q 900 949 840 982 l 847 799 q 737 842 806 824 q 617 860 668 860 q 343 764 443 860 q 243 496 243 668 q 290 315 243 393 q 420 193 336 236 q 613 150 504 150 q 706 159 661 150 q 781 185 750 168 l 781 353 l 590 353 l 590 508 l 943 508 l 943 93 m 808 1286 l 568 1042 l 567 1042 l 322 1286 l 464 1286 l 569 1181 l 667 1286 l 808 1286 z "},"Ĝ":{"ha":1050,"x_min":76,"x_max":943,"o":"m 943 93 q 798 22 901 54 q 608 -11 694 -11 q 328 53 449 -11 q 142 228 207 117 q 76 482 76 340 q 147 775 76 653 q 335 960 217 897 q 596 1022 454 1022 q 762 1002 683 1022 q 900 949 840 982 l 847 799 q 737 842 806 824 q 617 860 668 860 q 343 764 443 860 q 243 496 243 668 q 290 315 243 393 q 420 193 336 236 q 613 150 504 150 q 706 159 661 150 q 781 185 750 168 l 781 353 l 590 353 l 590 508 l 943 508 l 943 93 m 660 1075 l 556 1181 l 458 1075 l 315 1075 l 556 1319 l 557 1319 l 803 1075 l 660 1075 z "},"Ģ":{"ha":1050,"x_min":76,"x_max":943,"o":"m 943 93 q 798 22 901 54 q 608 -11 694 -11 q 328 53 449 -11 q 142 228 207 117 q 76 482 76 340 q 147 775 76 653 q 335 960 217 897 q 596 1022 454 1022 q 762 1002 683 1022 q 900 949 840 982 l 847 799 q 737 842 806 824 q 617 860 668 860 q 343 764 443 860 q 243 496 243 668 q 290 315 243 393 q 420 193 336 236 q 613 150 504 150 q 706 159 661 150 q 781 185 750 168 l 781 353 l 590 353 l 590 508 l 943 508 l 943 93 m 411 -256 q 451 -192 436 -232 q 465 -107 465 -151 q 463 -68 465 -93 l 599 -69 q 601 -100 601 -89 q 572 -218 601 -158 q 490 -310 542 -278 l 411 -256 z "},"Ġ":{"ha":1050,"x_min":76,"x_max":943,"o":"m 943 93 q 798 22 901 54 q 608 -11 694 -11 q 328 53 449 -11 q 142 228 207 117 q 76 482 76 340 q 147 775 76 653 q 335 960 217 897 q 596 1022 454 1022 q 762 1002 683 1022 q 900 949 840 982 l 847 799 q 737 842 806 824 q 617 860 668 860 q 343 764 443 860 q 243 496 243 668 q 290 315 243 393 q 420 193 336 236 q 613 150 504 150 q 706 159 661 150 q 781 185 750 168 l 781 353 l 590 353 l 590 508 l 943 508 l 943 93 m 479 1139 q 507 1198 479 1174 q 569 1222 535 1222 q 630 1198 603 1222 q 657 1139 657 1174 q 630 1081 657 1104 q 569 1057 603 1057 q 507 1081 535 1057 q 479 1139 479 1104 z "},"H":{"ha":1100,"x_min":139,"x_max":961,"o":"m 961 0 l 799 0 l 799 431 l 301 431 l 301 0 l 139 0 l 139 1011 l 301 1011 l 301 585 l 799 585 l 799 1011 l 961 1011 l 961 0 z "},"Ħ":{"ha":1328,"x_min":139,"x_max":1189,"o":"m 1189 692 l 1075 692 l 1075 0 l 913 0 l 913 431 l 415 431 l 415 0 l 253 0 l 253 692 l 139 692 l 139 811 l 253 811 l 253 1011 l 415 1011 l 415 811 l 913 811 l 913 1011 l 1075 1011 l 1075 811 l 1189 811 l 1189 692 m 913 692 l 415 692 l 415 585 l 913 585 l 913 692 z "},"Ĥ":{"ha":1100,"x_min":139,"x_max":961,"o":"m 961 0 l 799 0 l 799 431 l 301 431 l 301 0 l 139 0 l 139 1011 l 301 1011 l 301 585 l 799 585 l 799 1011 l 961 1011 l 961 0 m 642 1075 l 538 1181 l 440 1075 l 297 1075 l 538 1319 l 539 1319 l 785 1075 l 642 1075 z "},"I":{"ha":440,"x_min":139,"x_max":301,"o":"m 301 1011 l 301 0 l 139 0 l 139 1011 l 301 1011 z "},"Ĳ":{"ha":967,"x_min":139,"x_max":828,"o":"m 301 1011 l 301 0 l 139 0 l 139 1011 l 301 1011 m 828 196 q 779 -18 828 72 q 644 -157 731 -108 q 446 -210 558 -206 l 446 -53 q 606 15 547 -47 q 665 200 665 76 l 665 1011 l 828 1011 l 828 196 z "},"Í":{"ha":440,"x_min":139,"x_max":453,"o":"m 301 1011 l 301 0 l 139 0 l 139 1011 l 301 1011 m 265 1076 l 168 1076 l 281 1263 l 453 1263 l 265 1076 z "},"Ĭ":{"ha":440,"x_min":1,"x_max":439,"o":"m 301 1011 l 301 0 l 139 0 l 139 1011 l 301 1011 m 221 1081 q 1 1331 39 1081 l 106 1331 q 221 1185 129 1185 q 333 1331 313 1185 l 439 1331 q 221 1081 404 1081 z "},"Î":{"ha":440,"x_min":-32,"x_max":456,"o":"m 301 1011 l 301 0 l 139 0 l 139 1011 l 301 1011 m 313 1097 l 208 1203 l 111 1097 l -32 1097 l 208 1342 l 210 1342 l 456 1097 l 313 1097 z "},"Ȉ":{"ha":440,"x_min":-78,"x_max":403,"o":"m 301 1011 l 301 0 l 139 0 l 139 1011 l 301 1011 m 96 1279 l 190 1093 l 93 1093 l -78 1279 l 96 1279 m 308 1279 l 403 1093 l 306 1093 l 135 1279 l 308 1279 z "},"Ï":{"ha":440,"x_min":-3,"x_max":431,"o":"m 301 1011 l 301 0 l 139 0 l 139 1011 l 301 1011 m -3 1165 q 23 1226 -3 1201 q 82 1250 49 1250 q 138 1225 113 1250 q 164 1165 164 1200 q 138 1105 164 1129 q 82 1081 113 1081 q 23 1105 49 1081 q -3 1165 -3 1129 m 264 1165 q 290 1226 264 1201 q 349 1250 315 1250 q 405 1225 379 1250 q 431 1165 431 1200 q 405 1105 431 1129 q 349 1081 379 1081 q 290 1105 315 1081 q 264 1165 264 1129 z "},"İ":{"ha":440,"x_min":132,"x_max":310,"o":"m 301 1011 l 301 0 l 139 0 l 139 1011 l 301 1011 m 132 1161 q 160 1220 132 1196 q 222 1244 188 1244 q 283 1220 256 1244 q 310 1161 310 1196 q 283 1103 310 1126 q 222 1079 256 1079 q 160 1103 188 1079 q 132 1161 132 1126 z "},"Ị":{"ha":440,"x_min":129,"x_max":307,"o":"m 301 1011 l 301 0 l 139 0 l 139 1011 l 301 1011 m 129 -150 q 157 -91 129 -115 q 219 -67 185 -67 q 280 -91 253 -67 q 307 -150 307 -115 q 280 -208 307 -185 q 219 -232 253 -232 q 157 -208 185 -232 q 129 -150 129 -185 z "},"Ì":{"ha":440,"x_min":-8,"x_max":301,"o":"m 301 1011 l 301 0 l 139 0 l 139 1011 l 301 1011 m 165 1271 l 260 1085 l 163 1085 l -8 1271 l 165 1271 z "},"Ỉ":{"ha":440,"x_min":108,"x_max":357,"o":"m 301 1011 l 301 0 l 139 0 l 139 1011 l 301 1011 m 210 1135 q 255 1174 240 1157 q 269 1214 269 1192 q 258 1249 269 1236 q 225 1263 246 1263 q 165 1221 189 1263 l 108 1257 q 167 1326 131 1303 q 246 1349 204 1349 q 328 1315 300 1349 q 357 1235 357 1282 q 328 1154 357 1189 q 246 1089 299 1119 l 210 1135 z "},"Ȋ":{"ha":440,"x_min":-4,"x_max":433,"o":"m 301 1011 l 301 0 l 139 0 l 139 1011 l 301 1011 m 214 1294 q 433 1044 396 1294 l 329 1044 q 214 1190 306 1190 q 101 1044 122 1190 l -4 1044 q 214 1294 31 1294 z "},"Ī":{"ha":440,"x_min":43,"x_max":389,"o":"m 301 1011 l 301 0 l 139 0 l 139 1011 l 301 1011 m 389 1196 l 389 1086 l 43 1086 l 43 1196 l 389 1196 z "},"Į":{"ha":386,"x_min":15,"x_max":364,"o":"m 364 -211 q 288 -281 336 -253 q 194 -308 239 -308 q 66 -268 117 -308 q 15 -157 15 -228 q 49 -65 15 -108 q 138 4 82 -21 l 139 4 l 139 1011 l 301 1011 l 301 0 l 294 0 q 182 -62 219 -32 q 144 -133 144 -93 q 163 -182 144 -167 q 210 -197 182 -197 q 306 -131 264 -197 l 364 -211 z "},"Ĩ":{"ha":440,"x_min":-3,"x_max":456,"o":"m 301 1011 l 301 0 l 139 0 l 139 1011 l 301 1011 m 331 1128 q 263 1143 289 1128 q 199 1190 238 1158 q 163 1217 178 1208 q 133 1226 149 1226 q 93 1198 107 1226 q 82 1128 79 1169 l -1 1128 q -3 1151 -3 1136 q 36 1279 -3 1228 q 140 1331 75 1331 q 197 1315 172 1331 q 254 1269 221 1300 q 294 1236 278 1247 q 328 1225 311 1225 q 371 1329 376 1225 l 453 1328 q 456 1289 456 1300 q 419 1172 456 1217 q 331 1128 383 1128 z "},"J":{"ha":526,"x_min":6,"x_max":388,"o":"m 388 196 q 339 -18 388 72 q 204 -157 290 -108 q 6 -210 118 -206 l 6 -53 q 166 15 107 -47 q 225 200 225 76 l 225 1011 l 388 1011 l 388 196 z "},"Ĵ":{"ha":526,"x_min":6,"x_max":544,"o":"m 388 196 q 339 -18 388 72 q 204 -157 290 -108 q 6 -210 118 -206 l 6 -53 q 166 15 107 -47 q 225 200 225 76 l 225 1011 l 388 1011 l 388 196 m 401 1097 l 297 1203 l 200 1097 l 57 1097 l 297 1342 l 299 1342 l 544 1097 l 401 1097 z "},"K":{"ha":957,"x_min":139,"x_max":925,"o":"m 299 572 l 321 604 l 701 1011 l 910 1011 l 492 569 l 925 0 l 719 0 l 374 467 l 303 397 l 303 0 l 139 0 l 139 1011 l 303 1011 l 303 624 l 299 572 z "},"Ķ":{"ha":957,"x_min":139,"x_max":925,"o":"m 299 572 l 321 604 l 701 1011 l 910 1011 l 492 569 l 925 0 l 719 0 l 374 467 l 303 397 l 303 0 l 139 0 l 139 1011 l 303 1011 l 303 624 l 299 572 m 329 -256 q 369 -192 354 -232 q 383 -107 383 -151 q 381 -68 383 -93 l 517 -69 q 519 -100 519 -89 q 490 -218 519 -158 q 408 -310 460 -278 l 329 -256 z "},"L":{"ha":875,"x_min":139,"x_max":800,"o":"m 301 1011 l 301 156 l 800 156 l 800 0 l 139 0 l 139 1011 l 301 1011 z "},"Ǉ":{"ha":1401,"x_min":139,"x_max":1263,"o":"m 301 1011 l 301 156 l 800 156 l 800 0 l 139 0 l 139 1011 l 301 1011 m 1263 196 q 1214 -18 1263 72 q 1079 -157 1165 -108 q 881 -210 993 -206 l 881 -53 q 1041 15 982 -47 q 1100 200 1100 76 l 1100 1011 l 1263 1011 l 1263 196 z "},"Ĺ":{"ha":875,"x_min":139,"x_max":800,"o":"m 301 1011 l 301 156 l 800 156 l 800 0 l 139 0 l 139 1011 l 301 1011 m 263 1076 l 165 1076 l 278 1263 l 450 1263 l 263 1076 z "},"Ľ":{"ha":868,"x_min":139,"x_max":800,"o":"m 301 1011 l 301 156 l 800 156 l 800 0 l 139 0 l 139 1011 l 301 1011 m 543 817 q 585 881 568 842 q 601 961 601 921 q 599 993 601 971 l 721 1003 q 724 974 724 983 q 694 864 724 919 q 622 781 664 808 l 543 817 z "},"Ļ":{"ha":875,"x_min":139,"x_max":800,"o":"m 301 1011 l 301 156 l 800 156 l 800 0 l 139 0 l 139 1011 l 301 1011 m 329 -256 q 369 -192 354 -232 q 383 -107 383 -151 q 381 -68 383 -93 l 517 -69 q 519 -100 519 -89 q 490 -218 519 -158 q 408 -310 460 -278 l 329 -256 z "},"Ŀ":{"ha":876,"x_min":139,"x_max":814,"o":"m 301 1011 l 301 156 l 800 156 l 800 0 l 139 0 l 139 1011 l 301 1011 m 647 540 q 673 600 647 575 q 732 625 699 625 q 788 600 763 625 q 814 540 814 575 q 788 480 814 504 q 732 456 763 456 q 673 479 699 456 q 647 540 647 503 z "},"ǈ":{"ha":1256,"x_min":139,"x_max":1165,"o":"m 301 1011 l 301 156 l 800 156 l 800 0 l 139 0 l 139 1011 l 301 1011 m 913 -187 q 997 6 997 -118 l 997 588 l 1153 588 l 1153 -3 q 1117 -174 1153 -107 q 1003 -283 1082 -242 l 913 -187 m 988 797 q 1015 856 988 832 q 1078 881 1043 881 q 1138 856 1111 881 q 1165 797 1165 832 q 1138 739 1165 763 q 1078 715 1111 715 q 1015 739 1043 715 q 988 797 988 763 z "},"Ł":{"ha":868,"x_min":15,"x_max":800,"o":"m 800 156 l 800 0 l 139 0 l 139 390 l 49 361 l 15 489 l 139 528 l 139 1011 l 301 1011 l 301 581 l 551 660 l 583 533 l 301 443 l 301 156 l 800 156 z "},"M":{"ha":1299,"x_min":139,"x_max":1160,"o":"m 1160 1047 l 1160 0 l 999 0 l 999 585 l 644 82 l 642 82 l 296 561 l 296 0 l 139 0 l 139 1047 l 140 1047 l 644 333 l 1157 1047 l 1160 1047 z "},"N":{"ha":1172,"x_min":139,"x_max":1032,"o":"m 1032 1011 l 1032 -36 l 1028 -36 l 299 671 l 303 0 l 139 0 l 139 1046 l 147 1046 l 874 331 l 871 1011 l 1032 1011 z "},"Ǌ":{"ha":1699,"x_min":139,"x_max":1560,"o":"m 1032 1011 l 1032 -36 l 1028 -36 l 299 671 l 303 0 l 139 0 l 139 1046 l 147 1046 l 874 331 l 871 1011 l 1032 1011 m 1560 196 q 1511 -18 1560 72 q 1376 -157 1463 -108 q 1178 -210 1290 -206 l 1178 -53 q 1338 15 1279 -47 q 1397 200 1397 76 l 1397 1011 l 1560 1011 l 1560 196 z "},"Ń":{"ha":1172,"x_min":139,"x_max":1032,"o":"m 1032 1011 l 1032 -36 l 1028 -36 l 299 671 l 303 0 l 139 0 l 139 1046 l 147 1046 l 874 331 l 871 1011 l 1032 1011 m 610 1054 l 513 1054 l 625 1240 l 797 1240 l 610 1054 z "},"Ň":{"ha":1172,"x_min":139,"x_max":1032,"o":"m 1032 1011 l 1032 -36 l 1028 -36 l 299 671 l 303 0 l 139 0 l 139 1046 l 147 1046 l 874 331 l 871 1011 l 1032 1011 m 806 1286 l 565 1042 l 564 1042 l 319 1286 l 461 1286 l 567 1181 l 664 1286 l 806 1286 z "},"Ņ":{"ha":1172,"x_min":139,"x_max":1032,"o":"m 1032 1011 l 1032 -36 l 1028 -36 l 299 671 l 303 0 l 139 0 l 139 1046 l 147 1046 l 874 331 l 871 1011 l 1032 1011 m 467 -256 q 506 -192 492 -232 q 521 -107 521 -151 q 518 -68 521 -93 l 654 -69 q 657 -100 657 -89 q 627 -218 657 -158 q 546 -310 597 -278 l 467 -256 z "},"Ŋ":{"ha":1118,"x_min":113,"x_max":1006,"o":"m 1006 1011 l 1006 -3 q 856 -283 1006 -194 l 765 -187 q 850 6 850 -121 l 850 110 l 272 672 l 275 0 l 113 0 l 113 1046 l 119 1046 l 847 328 l 843 1011 l 1006 1011 z "},"Ɲ":{"ha":1144,"x_min":28,"x_max":1006,"o":"m 1006 1011 l 1006 0 l 1000 -36 l 272 672 l 275 51 l 275 -3 q 126 -283 275 -196 l 28 -187 q 113 6 113 -118 l 113 1046 l 119 1046 l 847 329 l 843 1011 l 1006 1011 z "},"ǋ":{"ha":1553,"x_min":139,"x_max":1463,"o":"m 1032 1011 l 1032 -36 l 1028 -36 l 299 671 l 303 0 l 139 0 l 139 1046 l 147 1046 l 874 331 l 871 1011 l 1032 1011 m 1210 -187 q 1294 6 1294 -118 l 1294 588 l 1450 588 l 1450 -3 q 1415 -174 1450 -107 q 1300 -283 1379 -242 l 1210 -187 m 1285 797 q 1313 856 1285 832 q 1375 881 1340 881 q 1435 856 1408 881 q 1463 797 1463 832 q 1435 739 1463 763 q 1375 715 1408 715 q 1313 739 1340 715 q 1285 797 1285 763 z "},"Ñ":{"ha":1172,"x_min":139,"x_max":1032,"o":"m 1032 1011 l 1032 -36 l 1028 -36 l 299 671 l 303 0 l 139 0 l 139 1046 l 147 1046 l 874 331 l 871 1011 l 1032 1011 m 675 1106 q 608 1121 633 1106 q 543 1168 582 1136 q 508 1195 522 1186 q 478 1204 493 1204 q 438 1176 451 1204 q 426 1106 424 1147 l 343 1106 q 342 1129 342 1114 q 381 1257 342 1206 q 485 1308 419 1308 q 541 1293 517 1308 q 599 1247 565 1278 q 639 1214 622 1225 q 672 1203 656 1203 q 715 1307 721 1203 l 797 1306 q 800 1267 800 1278 q 764 1150 800 1194 q 675 1106 728 1106 z "},"O":{"ha":1188,"x_min":76,"x_max":1111,"o":"m 76 504 q 146 762 76 643 q 334 951 215 881 q 593 1022 453 1022 q 851 951 732 1022 q 1040 761 969 881 q 1111 504 1111 642 q 1041 246 1111 364 q 851 58 971 128 q 593 -11 732 -11 q 334 58 453 -11 q 146 244 215 126 q 76 504 76 363 m 243 504 q 290 324 243 406 q 419 193 338 242 q 597 144 500 144 q 772 192 693 144 q 898 323 851 240 q 944 504 944 406 q 897 686 944 603 q 769 818 850 769 q 593 867 689 867 q 416 818 496 867 q 290 686 336 769 q 243 504 243 603 z "},"Ó":{"ha":1188,"x_min":76,"x_max":1111,"o":"m 76 504 q 146 762 76 643 q 334 951 215 881 q 593 1022 453 1022 q 851 951 732 1022 q 1040 761 969 881 q 1111 504 1111 642 q 1041 246 1111 364 q 851 58 971 128 q 593 -11 732 -11 q 334 58 453 -11 q 146 244 215 126 q 76 504 76 363 m 243 504 q 290 324 243 406 q 419 193 338 242 q 597 144 500 144 q 772 192 693 144 q 898 323 851 240 q 944 504 944 406 q 897 686 944 603 q 769 818 850 769 q 593 867 689 867 q 416 818 496 867 q 290 686 336 769 q 243 504 243 603 m 639 1065 l 542 1065 l 654 1251 l 826 1251 l 639 1065 z "},"Ŏ":{"ha":1188,"x_min":76,"x_max":1111,"o":"m 76 504 q 146 762 76 643 q 334 951 215 881 q 593 1022 453 1022 q 851 951 732 1022 q 1040 761 969 881 q 1111 504 1111 642 q 1041 246 1111 364 q 851 58 971 128 q 593 -11 732 -11 q 334 58 453 -11 q 146 244 215 126 q 76 504 76 363 m 243 504 q 290 324 243 406 q 419 193 338 242 q 597 144 500 144 q 772 192 693 144 q 898 323 851 240 q 944 504 944 406 q 897 686 944 603 q 769 818 850 769 q 593 867 689 867 q 416 818 496 867 q 290 686 336 769 q 243 504 243 603 m 596 1069 q 376 1319 414 1069 l 481 1319 q 596 1174 504 1174 q 708 1319 688 1174 l 814 1319 q 596 1069 779 1069 z "},"Ô":{"ha":1188,"x_min":76,"x_max":1111,"o":"m 76 504 q 146 762 76 643 q 334 951 215 881 q 593 1022 453 1022 q 851 951 732 1022 q 1040 761 969 881 q 1111 504 1111 642 q 1041 246 1111 364 q 851 58 971 128 q 593 -11 732 -11 q 334 58 453 -11 q 146 244 215 126 q 76 504 76 363 m 243 504 q 290 324 243 406 q 419 193 338 242 q 597 144 500 144 q 772 192 693 144 q 898 323 851 240 q 944 504 944 406 q 897 686 944 603 q 769 818 850 769 q 593 867 689 867 q 416 818 496 867 q 290 686 336 769 q 243 504 243 603 m 686 1086 l 582 1192 l 485 1086 l 342 1086 l 582 1331 l 583 1331 l 829 1086 l 686 1086 z "},"Ố":{"ha":1188,"x_min":76,"x_max":1111,"o":"m 76 504 q 146 762 76 643 q 334 951 215 881 q 593 1022 453 1022 q 851 951 732 1022 q 1040 761 969 881 q 1111 504 1111 642 q 1041 246 1111 364 q 851 58 971 128 q 593 -11 732 -11 q 334 58 453 -11 q 146 244 215 126 q 76 504 76 363 m 243 504 q 290 324 243 406 q 419 193 338 242 q 597 144 500 144 q 772 192 693 144 q 898 323 851 240 q 944 504 944 406 q 897 686 944 603 q 769 818 850 769 q 593 867 689 867 q 416 818 496 867 q 290 686 336 769 q 243 504 243 603 m 699 1107 l 594 1213 l 497 1107 l 354 1107 l 594 1351 l 596 1351 l 842 1107 l 699 1107 m 878 1249 l 781 1249 l 893 1435 l 1065 1435 l 878 1249 z "},"Ộ":{"ha":1188,"x_min":76,"x_max":1111,"o":"m 76 504 q 146 762 76 643 q 334 951 215 881 q 593 1022 453 1022 q 851 951 732 1022 q 1040 761 969 881 q 1111 504 1111 642 q 1041 246 1111 364 q 851 58 971 128 q 593 -11 732 -11 q 334 58 453 -11 q 146 244 215 126 q 76 504 76 363 m 243 504 q 290 324 243 406 q 419 193 338 242 q 597 144 500 144 q 772 192 693 144 q 898 323 851 240 q 944 504 944 406 q 897 686 944 603 q 769 818 850 769 q 593 867 689 867 q 416 818 496 867 q 290 686 336 769 q 243 504 243 603 m 503 -150 q 531 -91 503 -115 q 593 -67 558 -67 q 653 -91 626 -67 q 681 -150 681 -115 q 653 -208 681 -185 q 593 -232 626 -232 q 531 -208 558 -232 q 503 -150 503 -185 m 686 1086 l 582 1192 l 485 1086 l 342 1086 l 582 1331 l 583 1331 l 829 1086 l 686 1086 z "},"Ồ":{"ha":1188,"x_min":76,"x_max":1111,"o":"m 76 504 q 146 762 76 643 q 334 951 215 881 q 593 1022 453 1022 q 851 951 732 1022 q 1040 761 969 881 q 1111 504 1111 642 q 1041 246 1111 364 q 851 58 971 128 q 593 -11 732 -11 q 334 58 453 -11 q 146 244 215 126 q 76 504 76 363 m 243 504 q 290 324 243 406 q 419 193 338 242 q 597 144 500 144 q 772 192 693 144 q 898 323 851 240 q 944 504 944 406 q 897 686 944 603 q 769 818 850 769 q 593 867 689 867 q 416 818 496 867 q 290 686 336 769 q 243 504 243 603 m 690 1106 l 586 1211 l 489 1106 l 346 1106 l 586 1350 l 588 1350 l 833 1106 l 690 1106 m 317 1442 l 411 1256 l 314 1256 l 143 1442 l 317 1442 z "},"Ổ":{"ha":1188,"x_min":76,"x_max":1111,"o":"m 76 504 q 146 762 76 643 q 334 951 215 881 q 593 1022 453 1022 q 851 951 732 1022 q 1040 761 969 881 q 1111 504 1111 642 q 1041 246 1111 364 q 851 58 971 128 q 593 -11 732 -11 q 334 58 453 -11 q 146 244 215 126 q 76 504 76 363 m 243 504 q 290 324 243 406 q 419 193 338 242 q 597 144 500 144 q 772 192 693 144 q 898 323 851 240 q 944 504 944 406 q 897 686 944 603 q 769 818 850 769 q 593 867 689 867 q 416 818 496 867 q 290 686 336 769 q 243 504 243 603 m 694 1107 l 590 1213 l 493 1107 l 350 1107 l 590 1351 l 592 1351 l 838 1107 l 694 1107 m 826 1256 q 872 1295 857 1278 q 886 1335 886 1313 q 874 1370 886 1357 q 842 1383 863 1383 q 782 1342 806 1383 l 725 1378 q 784 1447 747 1424 q 863 1469 821 1469 q 945 1436 917 1469 q 974 1356 974 1403 q 944 1275 974 1310 q 863 1210 915 1240 l 826 1256 z "},"Ỗ":{"ha":1188,"x_min":76,"x_max":1111,"o":"m 76 504 q 146 762 76 643 q 334 951 215 881 q 593 1022 453 1022 q 851 951 732 1022 q 1040 761 969 881 q 1111 504 1111 642 q 1041 246 1111 364 q 851 58 971 128 q 593 -11 732 -11 q 334 58 453 -11 q 146 244 215 126 q 76 504 76 363 m 243 504 q 290 324 243 406 q 419 193 338 242 q 597 144 500 144 q 772 192 693 144 q 898 323 851 240 q 944 504 944 406 q 897 686 944 603 q 769 818 850 769 q 593 867 689 867 q 416 818 496 867 q 290 686 336 769 q 243 504 243 603 m 688 1100 l 583 1206 l 486 1100 l 343 1100 l 583 1344 l 585 1344 l 831 1100 l 688 1100 m 697 1400 q 630 1415 656 1400 q 565 1463 604 1431 q 530 1490 544 1481 q 500 1499 515 1499 q 460 1470 474 1499 q 449 1400 446 1442 l 365 1400 q 364 1424 364 1408 q 403 1551 364 1500 q 507 1603 442 1603 q 563 1588 539 1603 q 621 1542 588 1572 q 661 1508 644 1519 q 694 1497 678 1497 q 738 1601 743 1497 l 819 1600 q 822 1561 822 1572 q 786 1444 822 1489 q 697 1400 750 1400 z "},"Ȍ":{"ha":1188,"x_min":76,"x_max":1111,"o":"m 76 504 q 146 762 76 643 q 334 951 215 881 q 593 1022 453 1022 q 851 951 732 1022 q 1040 761 969 881 q 1111 504 1111 642 q 1041 246 1111 364 q 851 58 971 128 q 593 -11 732 -11 q 334 58 453 -11 q 146 244 215 126 q 76 504 76 363 m 243 504 q 290 324 243 406 q 419 193 338 242 q 597 144 500 144 q 772 192 693 144 q 898 323 851 240 q 944 504 944 406 q 897 686 944 603 q 769 818 850 769 q 593 867 689 867 q 416 818 496 867 q 290 686 336 769 q 243 504 243 603 m 469 1268 l 564 1082 l 467 1082 l 296 1268 l 469 1268 m 682 1268 l 776 1082 l 679 1082 l 508 1268 l 682 1268 z "},"Ö":{"ha":1188,"x_min":76,"x_max":1111,"o":"m 76 504 q 146 762 76 643 q 334 951 215 881 q 593 1022 453 1022 q 851 951 732 1022 q 1040 761 969 881 q 1111 504 1111 642 q 1041 246 1111 364 q 851 58 971 128 q 593 -11 732 -11 q 334 58 453 -11 q 146 244 215 126 q 76 504 76 363 m 243 504 q 290 324 243 406 q 419 193 338 242 q 597 144 500 144 q 772 192 693 144 q 898 323 851 240 q 944 504 944 406 q 897 686 944 603 q 769 818 850 769 q 593 867 689 867 q 416 818 496 867 q 290 686 336 769 q 243 504 243 603 m 371 1154 q 397 1215 371 1190 q 456 1239 422 1239 q 512 1214 486 1239 q 538 1154 538 1189 q 512 1094 538 1118 q 456 1069 486 1069 q 397 1094 422 1069 q 371 1154 371 1118 m 638 1154 q 663 1215 638 1190 q 722 1239 689 1239 q 778 1214 753 1239 q 804 1154 804 1189 q 778 1094 804 1118 q 722 1069 753 1069 q 663 1094 689 1069 q 638 1154 638 1118 z "},"Ȫ":{"ha":1188,"x_min":76,"x_max":1111,"o":"m 76 504 q 146 762 76 643 q 334 951 215 881 q 593 1022 453 1022 q 851 951 732 1022 q 1040 761 969 881 q 1111 504 1111 642 q 1041 246 1111 364 q 851 58 971 128 q 593 -11 732 -11 q 334 58 453 -11 q 146 244 215 126 q 76 504 76 363 m 243 504 q 290 324 243 406 q 419 193 338 242 q 597 144 500 144 q 772 192 693 144 q 898 323 851 240 q 944 504 944 406 q 897 686 944 603 q 769 818 850 769 q 593 867 689 867 q 416 818 496 867 q 290 686 336 769 q 243 504 243 603 m 371 1154 q 397 1215 371 1190 q 456 1239 422 1239 q 512 1214 486 1239 q 538 1154 538 1189 q 512 1094 538 1118 q 456 1069 486 1069 q 397 1094 422 1069 q 371 1154 371 1118 m 638 1154 q 663 1215 638 1190 q 722 1239 689 1239 q 778 1214 753 1239 q 804 1154 804 1189 q 778 1094 804 1118 q 722 1069 753 1069 q 663 1094 689 1069 q 638 1154 638 1118 m 763 1403 l 763 1293 l 417 1293 l 417 1403 l 763 1403 z "},"Ȱ":{"ha":1188,"x_min":76,"x_max":1111,"o":"m 76 504 q 146 762 76 643 q 334 951 215 881 q 593 1022 453 1022 q 851 951 732 1022 q 1040 761 969 881 q 1111 504 1111 642 q 1041 246 1111 364 q 851 58 971 128 q 593 -11 732 -11 q 334 58 453 -11 q 146 244 215 126 q 76 504 76 363 m 243 504 q 290 324 243 406 q 419 193 338 242 q 597 144 500 144 q 772 192 693 144 q 898 323 851 240 q 944 504 944 406 q 897 686 944 603 q 769 818 850 769 q 593 867 689 867 q 416 818 496 867 q 290 686 336 769 q 243 504 243 603 m 506 1150 q 533 1209 506 1185 q 596 1233 561 1233 q 656 1209 629 1233 q 683 1150 683 1185 q 656 1092 683 1115 q 596 1068 629 1068 q 533 1092 561 1068 q 506 1150 506 1115 m 764 1396 l 764 1286 l 418 1286 l 418 1396 l 764 1396 z "},"Ọ":{"ha":1188,"x_min":76,"x_max":1111,"o":"m 76 504 q 146 762 76 643 q 334 951 215 881 q 593 1022 453 1022 q 851 951 732 1022 q 1040 761 969 881 q 1111 504 1111 642 q 1041 246 1111 364 q 851 58 971 128 q 593 -11 732 -11 q 334 58 453 -11 q 146 244 215 126 q 76 504 76 363 m 243 504 q 290 324 243 406 q 419 193 338 242 q 597 144 500 144 q 772 192 693 144 q 898 323 851 240 q 944 504 944 406 q 897 686 944 603 q 769 818 850 769 q 593 867 689 867 q 416 818 496 867 q 290 686 336 769 q 243 504 243 603 m 503 -150 q 531 -91 503 -115 q 593 -67 558 -67 q 653 -91 626 -67 q 681 -150 681 -115 q 653 -208 681 -185 q 593 -232 626 -232 q 531 -208 558 -232 q 503 -150 503 -185 z "},"Ò":{"ha":1188,"x_min":76,"x_max":1111,"o":"m 76 504 q 146 762 76 643 q 334 951 215 881 q 593 1022 453 1022 q 851 951 732 1022 q 1040 761 969 881 q 1111 504 1111 642 q 1041 246 1111 364 q 851 58 971 128 q 593 -11 732 -11 q 334 58 453 -11 q 146 244 215 126 q 76 504 76 363 m 243 504 q 290 324 243 406 q 419 193 338 242 q 597 144 500 144 q 772 192 693 144 q 898 323 851 240 q 944 504 944 406 q 897 686 944 603 q 769 818 850 769 q 593 867 689 867 q 416 818 496 867 q 290 686 336 769 q 243 504 243 603 m 539 1260 l 633 1074 l 536 1074 l 365 1260 l 539 1260 z "},"Ỏ":{"ha":1188,"x_min":76,"x_max":1111,"o":"m 76 504 q 146 762 76 643 q 334 951 215 881 q 593 1022 453 1022 q 851 951 732 1022 q 1040 761 969 881 q 1111 504 1111 642 q 1041 246 1111 364 q 851 58 971 128 q 593 -11 732 -11 q 334 58 453 -11 q 146 244 215 126 q 76 504 76 363 m 243 504 q 290 324 243 406 q 419 193 338 242 q 597 144 500 144 q 772 192 693 144 q 898 323 851 240 q 944 504 944 406 q 897 686 944 603 q 769 818 850 769 q 593 867 689 867 q 416 818 496 867 q 290 686 336 769 q 243 504 243 603 m 583 1124 q 628 1163 614 1146 q 643 1203 643 1181 q 631 1238 643 1225 q 599 1251 619 1251 q 539 1210 563 1251 l 482 1246 q 541 1315 504 1292 q 619 1338 578 1338 q 702 1304 674 1338 q 731 1224 731 1271 q 701 1143 731 1178 q 619 1078 672 1108 l 583 1124 z "},"Ơ":{"ha":1188,"x_min":76,"x_max":1111,"o":"m 840 957 q 1037 767 963 889 q 1111 504 1111 646 q 1041 246 1111 364 q 851 58 971 128 q 593 -11 732 -11 q 334 58 453 -11 q 146 244 215 126 q 76 504 76 363 q 146 762 76 643 q 334 951 215 881 q 593 1022 453 1022 q 693 1013 638 1022 l 693 1014 q 769 1038 747 1014 q 800 1131 790 1063 l 915 1131 q 840 957 897 1004 m 597 144 q 772 192 693 144 q 898 323 851 240 q 944 504 944 406 q 897 686 944 603 q 769 818 850 769 q 593 867 689 867 q 416 818 496 867 q 290 686 336 769 q 243 504 243 603 q 290 324 243 406 q 419 193 338 242 q 597 144 500 144 z "},"Ớ":{"ha":1188,"x_min":76,"x_max":1111,"o":"m 840 957 q 1037 767 963 889 q 1111 504 1111 646 q 1041 246 1111 364 q 851 58 971 128 q 593 -11 732 -11 q 334 58 453 -11 q 146 244 215 126 q 76 504 76 363 q 146 762 76 643 q 334 951 215 881 q 593 1022 453 1022 q 693 1013 638 1022 l 693 1014 q 769 1038 747 1014 q 800 1131 790 1063 l 915 1131 q 840 957 897 1004 m 597 144 q 772 192 693 144 q 898 323 851 240 q 944 504 944 406 q 897 686 944 603 q 769 818 850 769 q 593 867 689 867 q 416 818 496 867 q 290 686 336 769 q 243 504 243 603 q 290 324 243 406 q 419 193 338 242 q 597 144 500 144 m 639 1065 l 542 1065 l 654 1251 l 826 1251 l 639 1065 z "},"Ợ":{"ha":1188,"x_min":76,"x_max":1111,"o":"m 840 957 q 1037 767 963 889 q 1111 504 1111 646 q 1041 246 1111 364 q 851 58 971 128 q 593 -11 732 -11 q 334 58 453 -11 q 146 244 215 126 q 76 504 76 363 q 146 762 76 643 q 334 951 215 881 q 593 1022 453 1022 q 693 1013 638 1022 l 693 1014 q 769 1038 747 1014 q 800 1131 790 1063 l 915 1131 q 840 957 897 1004 m 597 144 q 772 192 693 144 q 898 323 851 240 q 944 504 944 406 q 897 686 944 603 q 769 818 850 769 q 593 867 689 867 q 416 818 496 867 q 290 686 336 769 q 243 504 243 603 q 290 324 243 406 q 419 193 338 242 q 597 144 500 144 m 503 -150 q 531 -91 503 -115 q 593 -67 558 -67 q 653 -91 626 -67 q 681 -150 681 -115 q 653 -208 681 -185 q 593 -232 626 -232 q 531 -208 558 -232 q 503 -150 503 -185 z "},"Ờ":{"ha":1188,"x_min":76,"x_max":1111,"o":"m 840 957 q 1037 767 963 889 q 1111 504 1111 646 q 1041 246 1111 364 q 851 58 971 128 q 593 -11 732 -11 q 334 58 453 -11 q 146 244 215 126 q 76 504 76 363 q 146 762 76 643 q 334 951 215 881 q 593 1022 453 1022 q 693 1013 638 1022 l 693 1014 q 769 1038 747 1014 q 800 1131 790 1063 l 915 1131 q 840 957 897 1004 m 597 144 q 772 192 693 144 q 898 323 851 240 q 944 504 944 406 q 897 686 944 603 q 769 818 850 769 q 593 867 689 867 q 416 818 496 867 q 290 686 336 769 q 243 504 243 603 q 290 324 243 406 q 419 193 338 242 q 597 144 500 144 m 575 1258 l 669 1072 l 572 1072 l 401 1258 l 575 1258 z "},"Ở":{"ha":1188,"x_min":76,"x_max":1111,"o":"m 840 957 q 1037 767 963 889 q 1111 504 1111 646 q 1041 246 1111 364 q 851 58 971 128 q 593 -11 732 -11 q 334 58 453 -11 q 146 244 215 126 q 76 504 76 363 q 146 762 76 643 q 334 951 215 881 q 593 1022 453 1022 q 693 1013 638 1022 l 693 1014 q 769 1038 747 1014 q 800 1131 790 1063 l 915 1131 q 840 957 897 1004 m 597 144 q 772 192 693 144 q 898 323 851 240 q 944 504 944 406 q 897 686 944 603 q 769 818 850 769 q 593 867 689 867 q 416 818 496 867 q 290 686 336 769 q 243 504 243 603 q 290 324 243 406 q 419 193 338 242 q 597 144 500 144 m 583 1124 q 628 1163 614 1146 q 643 1203 643 1181 q 631 1238 643 1225 q 599 1251 619 1251 q 539 1210 563 1251 l 482 1246 q 541 1315 504 1292 q 619 1338 578 1338 q 702 1304 674 1338 q 731 1224 731 1271 q 701 1143 731 1178 q 619 1078 672 1108 l 583 1124 z "},"Ỡ":{"ha":1188,"x_min":76,"x_max":1111,"o":"m 840 957 q 1037 767 963 889 q 1111 504 1111 646 q 1041 246 1111 364 q 851 58 971 128 q 593 -11 732 -11 q 334 58 453 -11 q 146 244 215 126 q 76 504 76 363 q 146 762 76 643 q 334 951 215 881 q 593 1022 453 1022 q 693 1013 638 1022 l 693 1014 q 769 1038 747 1014 q 800 1131 790 1063 l 915 1131 q 840 957 897 1004 m 597 144 q 772 192 693 144 q 898 323 851 240 q 944 504 944 406 q 897 686 944 603 q 769 818 850 769 q 593 867 689 867 q 416 818 496 867 q 290 686 336 769 q 243 504 243 603 q 290 324 243 406 q 419 193 338 242 q 597 144 500 144 m 704 1117 q 637 1132 663 1117 q 572 1179 611 1147 q 537 1206 551 1197 q 507 1215 522 1215 q 467 1187 481 1215 q 456 1117 453 1158 l 372 1117 q 371 1140 371 1125 q 410 1268 371 1217 q 514 1319 449 1319 q 570 1304 546 1319 q 628 1258 594 1289 q 668 1225 651 1236 q 701 1214 685 1214 q 744 1318 750 1214 l 826 1317 q 829 1278 829 1289 q 793 1161 829 1206 q 704 1117 757 1117 z "},"Ő":{"ha":1188,"x_min":76,"x_max":1111,"o":"m 76 504 q 146 762 76 643 q 334 951 215 881 q 593 1022 453 1022 q 851 951 732 1022 q 1040 761 969 881 q 1111 504 1111 642 q 1041 246 1111 364 q 851 58 971 128 q 593 -11 732 -11 q 334 58 453 -11 q 146 244 215 126 q 76 504 76 363 m 243 504 q 290 324 243 406 q 419 193 338 242 q 597 144 500 144 q 772 192 693 144 q 898 323 851 240 q 944 504 944 406 q 897 686 944 603 q 769 818 850 769 q 593 867 689 867 q 416 818 496 867 q 290 686 336 769 q 243 504 243 603 m 485 1078 l 388 1078 l 500 1264 l 672 1264 l 485 1078 m 713 1075 l 615 1075 l 728 1261 l 900 1261 l 713 1075 z "},"Ȏ":{"ha":1188,"x_min":76,"x_max":1111,"o":"m 76 504 q 146 762 76 643 q 334 951 215 881 q 593 1022 453 1022 q 851 951 732 1022 q 1040 761 969 881 q 1111 504 1111 642 q 1041 246 1111 364 q 851 58 971 128 q 593 -11 732 -11 q 334 58 453 -11 q 146 244 215 126 q 76 504 76 363 m 243 504 q 290 324 243 406 q 419 193 338 242 q 597 144 500 144 q 772 192 693 144 q 898 323 851 240 q 944 504 944 406 q 897 686 944 603 q 769 818 850 769 q 593 867 689 867 q 416 818 496 867 q 290 686 336 769 q 243 504 243 603 m 588 1283 q 807 1033 769 1283 l 703 1033 q 588 1179 679 1179 q 475 1033 496 1179 l 369 1033 q 588 1283 404 1283 z "},"Ō":{"ha":1188,"x_min":76,"x_max":1111,"o":"m 76 504 q 146 762 76 643 q 334 951 215 881 q 593 1022 453 1022 q 851 951 732 1022 q 1040 761 969 881 q 1111 504 1111 642 q 1041 246 1111 364 q 851 58 971 128 q 593 -11 732 -11 q 334 58 453 -11 q 146 244 215 126 q 76 504 76 363 m 243 504 q 290 324 243 406 q 419 193 338 242 q 597 144 500 144 q 772 192 693 144 q 898 323 851 240 q 944 504 944 406 q 897 686 944 603 q 769 818 850 769 q 593 867 689 867 q 416 818 496 867 q 290 686 336 769 q 243 504 243 603 m 763 1185 l 763 1075 l 417 1075 l 417 1185 l 763 1185 z "},"Ǫ":{"ha":1188,"x_min":76,"x_max":1111,"o":"m 593 1022 q 851 951 732 1022 q 1040 761 969 881 q 1111 504 1111 642 q 1058 263 1111 361 q 915 89 1004 164 q 818 15 888 67 q 721 -62 750 -33 q 692 -132 692 -92 q 710 -182 692 -167 q 756 -197 728 -197 q 853 -131 810 -197 l 910 -211 q 835 -281 883 -253 q 742 -308 786 -308 q 613 -268 664 -308 q 563 -157 563 -228 q 590 -71 563 -111 q 664 -6 617 -31 q 593 -11 635 -11 q 334 58 453 -11 q 146 244 215 126 q 76 504 76 363 q 146 762 76 643 q 334 951 215 881 q 593 1022 453 1022 m 597 146 q 772 194 693 146 q 898 324 851 242 q 944 504 944 407 q 897 683 944 601 q 769 814 850 765 q 593 863 689 863 q 416 814 496 863 q 290 683 336 765 q 243 504 243 601 q 290 324 243 407 q 419 194 338 242 q 597 146 500 146 z "},"Ø":{"ha":1192,"x_min":76,"x_max":1111,"o":"m 974 851 q 1075 691 1039 781 q 1111 504 1111 601 q 1041 246 1111 364 q 851 58 971 128 q 593 -11 732 -11 q 307 74 435 -11 l 222 -25 l 119 68 l 203 165 q 109 322 142 235 q 76 504 76 408 q 146 762 76 643 q 334 951 215 881 q 593 1022 453 1022 q 869 940 742 1022 l 956 1040 l 1056 947 l 974 851 m 243 504 q 260 391 243 446 q 311 290 278 336 l 767 821 q 593 867 686 867 q 416 818 496 867 q 290 686 336 769 q 243 504 243 603 m 597 144 q 772 192 693 144 q 898 323 851 240 q 944 504 944 406 q 869 729 944 632 l 413 197 q 597 144 496 144 z "},"Ǿ":{"ha":1192,"x_min":76,"x_max":1111,"o":"m 974 851 q 1075 691 1039 781 q 1111 504 1111 601 q 1041 246 1111 364 q 851 58 971 128 q 593 -11 732 -11 q 307 74 435 -11 l 222 -25 l 119 68 l 203 165 q 109 322 142 235 q 76 504 76 408 q 146 762 76 643 q 334 951 215 881 q 593 1022 453 1022 q 869 940 742 1022 l 956 1040 l 1056 947 l 974 851 m 243 504 q 260 391 243 446 q 311 290 278 336 l 767 821 q 593 867 686 867 q 416 818 496 867 q 290 686 336 769 q 243 504 243 603 m 597 144 q 772 192 693 144 q 898 323 851 240 q 944 504 944 406 q 869 729 944 632 l 413 197 q 597 144 496 144 m 640 1054 l 543 1054 l 656 1240 l 828 1240 l 640 1054 z "},"Õ":{"ha":1188,"x_min":76,"x_max":1111,"o":"m 76 504 q 146 762 76 643 q 334 951 215 881 q 593 1022 453 1022 q 851 951 732 1022 q 1040 761 969 881 q 1111 504 1111 642 q 1041 246 1111 364 q 851 58 971 128 q 593 -11 732 -11 q 334 58 453 -11 q 146 244 215 126 q 76 504 76 363 m 243 504 q 290 324 243 406 q 419 193 338 242 q 597 144 500 144 q 772 192 693 144 q 898 323 851 240 q 944 504 944 406 q 897 686 944 603 q 769 818 850 769 q 593 867 689 867 q 416 818 496 867 q 290 686 336 769 q 243 504 243 603 m 704 1117 q 637 1132 663 1117 q 572 1179 611 1147 q 537 1206 551 1197 q 507 1215 522 1215 q 467 1187 481 1215 q 456 1117 453 1158 l 372 1117 q 371 1140 371 1125 q 410 1268 371 1217 q 514 1319 449 1319 q 570 1304 546 1319 q 628 1258 594 1289 q 668 1225 651 1236 q 701 1214 685 1214 q 744 1318 750 1214 l 826 1317 q 829 1278 829 1289 q 793 1161 829 1206 q 704 1117 757 1117 z "},"Ȭ":{"ha":1188,"x_min":76,"x_max":1111,"o":"m 76 504 q 146 762 76 643 q 334 951 215 881 q 593 1022 453 1022 q 851 951 732 1022 q 1040 761 969 881 q 1111 504 1111 642 q 1041 246 1111 364 q 851 58 971 128 q 593 -11 732 -11 q 334 58 453 -11 q 146 244 215 126 q 76 504 76 363 m 243 504 q 290 324 243 406 q 419 193 338 242 q 597 144 500 144 q 772 192 693 144 q 898 323 851 240 q 944 504 944 406 q 897 686 944 603 q 769 818 850 769 q 593 867 689 867 q 416 818 496 867 q 290 686 336 769 q 243 504 243 603 m 704 1117 q 637 1132 663 1117 q 572 1179 611 1147 q 537 1206 551 1197 q 507 1215 522 1215 q 467 1187 481 1215 q 456 1117 453 1158 l 372 1117 q 371 1140 371 1125 q 410 1268 371 1217 q 514 1319 449 1319 q 570 1304 546 1319 q 628 1258 594 1289 q 668 1225 651 1236 q 701 1214 685 1214 q 744 1318 750 1214 l 826 1317 q 829 1278 829 1289 q 793 1161 829 1206 q 704 1117 757 1117 m 763 1507 l 763 1397 l 417 1397 l 417 1507 l 763 1507 z "},"Œ":{"ha":1414,"x_min":89,"x_max":1319,"o":"m 1319 0 l 707 0 q 604 -11 654 -11 q 346 58 464 -11 q 158 246 228 128 q 89 504 89 364 q 158 762 89 643 q 346 951 228 881 q 604 1022 464 1022 q 706 1011 653 1022 l 1300 1011 l 1300 861 l 838 861 l 838 583 l 1244 583 l 1244 431 l 838 431 l 838 154 l 1319 154 l 1319 0 m 256 504 q 303 325 256 407 q 431 194 350 243 q 610 146 513 146 q 671 151 643 146 l 671 856 q 604 863 644 863 q 429 814 510 863 q 302 683 349 765 q 256 504 256 601 z "},"P":{"ha":849,"x_min":139,"x_max":792,"o":"m 425 1011 q 694 925 597 1011 q 792 686 792 839 q 757 523 792 599 q 645 399 722 447 q 447 351 568 351 l 301 351 l 301 0 l 139 0 l 139 1011 l 425 1011 m 447 507 q 555 535 514 507 q 613 605 596 564 q 631 683 631 646 q 590 801 631 747 q 451 856 549 856 l 301 856 l 301 507 l 447 507 z "},"Þ":{"ha":849,"x_min":139,"x_max":792,"o":"m 457 831 q 706 746 619 831 q 792 506 792 661 q 713 268 792 365 q 458 171 633 171 l 306 171 l 306 0 l 139 0 l 139 1006 l 306 1006 l 306 831 l 457 831 m 443 326 q 579 379 533 326 q 625 503 625 432 q 580 624 625 574 q 444 675 535 675 l 306 675 l 306 326 l 443 326 z "},"Q":{"ha":1236,"x_min":76,"x_max":1158,"o":"m 1158 0 l 700 0 q 593 -11 644 -11 q 334 58 453 -11 q 146 244 215 126 q 76 504 76 363 q 146 762 76 643 q 334 951 215 881 q 593 1022 453 1022 q 851 951 732 1022 q 1040 761 969 881 q 1111 504 1111 642 q 1076 317 1111 406 q 976 158 1040 229 l 1158 158 l 1158 0 m 243 504 q 290 324 243 407 q 419 194 338 242 q 597 146 500 146 q 772 194 693 146 q 898 324 851 242 q 944 504 944 407 q 897 683 944 601 q 769 814 850 765 q 593 863 689 863 q 416 814 496 863 q 290 683 336 765 q 243 504 243 601 z "},"R":{"ha":931,"x_min":139,"x_max":879,"o":"m 692 0 l 464 351 l 447 351 l 301 351 l 301 0 l 139 0 l 139 1011 l 424 1011 q 695 925 593 1011 q 797 686 797 839 q 758 513 797 593 q 633 390 718 433 l 879 0 l 692 0 m 301 507 l 446 507 q 587 560 543 507 q 631 681 631 614 q 614 759 631 719 q 557 827 597 799 q 451 856 517 856 l 301 856 l 301 507 z "},"Ŕ":{"ha":931,"x_min":139,"x_max":879,"o":"m 692 0 l 464 351 l 447 351 l 301 351 l 301 0 l 139 0 l 139 1011 l 424 1011 q 695 925 593 1011 q 797 686 797 839 q 758 513 797 593 q 633 390 718 433 l 879 0 l 692 0 m 301 507 l 446 507 q 587 560 543 507 q 631 681 631 614 q 614 759 631 719 q 557 827 597 799 q 451 856 517 856 l 301 856 l 301 507 m 472 1076 l 375 1076 l 488 1263 l 660 1263 l 472 1076 z "},"Ř":{"ha":931,"x_min":139,"x_max":879,"o":"m 692 0 l 464 351 l 447 351 l 301 351 l 301 0 l 139 0 l 139 1011 l 424 1011 q 695 925 593 1011 q 797 686 797 839 q 758 513 797 593 q 633 390 718 433 l 879 0 l 692 0 m 301 507 l 446 507 q 587 560 543 507 q 631 681 631 614 q 614 759 631 719 q 557 827 597 799 q 451 856 517 856 l 301 856 l 301 507 m 668 1308 l 428 1064 l 426 1064 l 182 1308 l 324 1308 l 429 1203 l 526 1308 l 668 1308 z "},"Ŗ":{"ha":931,"x_min":139,"x_max":879,"o":"m 692 0 l 464 351 l 447 351 l 301 351 l 301 0 l 139 0 l 139 1011 l 424 1011 q 695 925 593 1011 q 797 686 797 839 q 758 513 797 593 q 633 390 718 433 l 879 0 l 692 0 m 301 507 l 446 507 q 587 560 543 507 q 631 681 631 614 q 614 759 631 719 q 557 827 597 799 q 451 856 517 856 l 301 856 l 301 507 m 350 -256 q 390 -192 375 -232 q 404 -107 404 -151 q 401 -68 404 -93 l 538 -69 q 540 -100 540 -89 q 510 -218 540 -158 q 429 -310 481 -278 l 350 -256 z "},"Ȑ":{"ha":931,"x_min":129,"x_max":879,"o":"m 692 0 l 464 351 l 447 351 l 301 351 l 301 0 l 139 0 l 139 1011 l 424 1011 q 695 925 593 1011 q 797 686 797 839 q 758 513 797 593 q 633 390 718 433 l 879 0 l 692 0 m 301 507 l 446 507 q 587 560 543 507 q 631 681 631 614 q 614 759 631 719 q 557 827 597 799 q 451 856 517 856 l 301 856 l 301 507 m 303 1279 l 397 1093 l 300 1093 l 129 1279 l 303 1279 m 515 1279 l 610 1093 l 513 1093 l 342 1279 l 515 1279 z "},"Ȓ":{"ha":931,"x_min":139,"x_max":879,"o":"m 692 0 l 464 351 l 447 351 l 301 351 l 301 0 l 139 0 l 139 1011 l 424 1011 q 695 925 593 1011 q 797 686 797 839 q 758 513 797 593 q 633 390 718 433 l 879 0 l 692 0 m 301 507 l 446 507 q 587 560 543 507 q 631 681 631 614 q 614 759 631 719 q 557 827 597 799 q 451 856 517 856 l 301 856 l 301 507 m 421 1294 q 640 1044 603 1294 l 536 1044 q 421 1190 513 1190 q 308 1044 329 1190 l 203 1044 q 421 1294 238 1294 z "},"S":{"ha":808,"x_min":58,"x_max":735,"o":"m 669 806 q 438 874 539 874 q 319 840 363 874 q 275 749 275 807 q 330 653 275 692 q 483 578 385 615 q 612 517 558 551 q 700 425 665 483 q 735 278 735 367 q 694 132 735 197 q 578 28 654 67 q 397 -11 501 -11 q 217 17 306 -11 q 58 96 128 46 l 131 222 q 252 158 182 183 q 382 132 322 132 q 511 167 456 132 q 567 276 567 203 q 520 374 567 335 q 390 444 474 413 q 247 508 304 476 q 149 595 190 539 q 108 736 108 651 q 192 935 108 860 q 414 1017 276 1011 q 590 994 514 1017 q 731 929 665 971 l 669 806 z "},"Ś":{"ha":808,"x_min":58,"x_max":735,"o":"m 669 806 q 438 874 539 874 q 319 840 363 874 q 275 749 275 807 q 330 653 275 692 q 483 578 385 615 q 612 517 558 551 q 700 425 665 483 q 735 278 735 367 q 694 132 735 197 q 578 28 654 67 q 397 -11 501 -11 q 217 17 306 -11 q 58 96 128 46 l 131 222 q 252 158 182 183 q 382 132 322 132 q 511 167 456 132 q 567 276 567 203 q 520 374 567 335 q 390 444 474 413 q 247 508 304 476 q 149 595 190 539 q 108 736 108 651 q 192 935 108 860 q 414 1017 276 1011 q 590 994 514 1017 q 731 929 665 971 l 669 806 m 447 1060 l 350 1060 l 463 1246 l 635 1246 l 447 1060 z "},"Š":{"ha":808,"x_min":58,"x_max":735,"o":"m 669 806 q 438 874 539 874 q 319 840 363 874 q 275 749 275 807 q 330 653 275 692 q 483 578 385 615 q 612 517 558 551 q 700 425 665 483 q 735 278 735 367 q 694 132 735 197 q 578 28 654 67 q 397 -11 501 -11 q 217 17 306 -11 q 58 96 128 46 l 131 222 q 252 158 182 183 q 382 132 322 132 q 511 167 456 132 q 567 276 567 203 q 520 374 567 335 q 390 444 474 413 q 247 508 304 476 q 149 595 190 539 q 108 736 108 651 q 192 935 108 860 q 414 1017 276 1011 q 590 994 514 1017 q 731 929 665 971 l 669 806 m 643 1292 l 403 1047 l 401 1047 l 157 1292 l 299 1292 l 404 1186 l 501 1292 l 643 1292 z "},"Ş":{"ha":808,"x_min":58,"x_max":735,"o":"m 735 278 q 668 97 735 174 q 485 -3 601 19 l 428 -68 q 551 -100 504 -68 q 597 -192 597 -132 q 539 -298 597 -261 q 396 -335 481 -335 q 242 -278 299 -335 l 290 -215 q 328 -242 306 -232 q 379 -251 351 -251 q 440 -236 414 -251 q 467 -194 467 -221 q 447 -154 467 -171 q 383 -137 428 -137 q 296 -154 353 -137 l 271 -81 l 353 -10 q 194 25 271 -3 q 58 96 118 53 l 131 222 q 252 158 182 183 q 382 132 322 132 q 511 167 456 132 q 567 276 567 203 q 520 374 567 335 q 390 444 474 413 q 247 508 304 476 q 149 595 190 539 q 108 736 108 651 q 192 935 108 860 q 414 1017 276 1011 q 590 994 514 1017 q 731 929 665 971 l 669 806 q 438 874 539 874 q 319 840 363 874 q 275 749 275 807 q 330 653 275 692 q 483 578 385 615 q 612 517 558 551 q 700 425 665 483 q 735 278 735 367 z "},"Ŝ":{"ha":808,"x_min":58,"x_max":735,"o":"m 669 806 q 438 874 539 874 q 319 840 363 874 q 275 749 275 807 q 330 653 275 692 q 483 578 385 615 q 612 517 558 551 q 700 425 665 483 q 735 278 735 367 q 694 132 735 197 q 578 28 654 67 q 397 -11 501 -11 q 217 17 306 -11 q 58 96 128 46 l 131 222 q 252 158 182 183 q 382 132 322 132 q 511 167 456 132 q 567 276 567 203 q 520 374 567 335 q 390 444 474 413 q 247 508 304 476 q 149 595 190 539 q 108 736 108 651 q 192 935 108 860 q 414 1017 276 1011 q 590 994 514 1017 q 731 929 665 971 l 669 806 m 494 1081 l 390 1186 l 293 1081 l 150 1081 l 390 1325 l 392 1325 l 638 1081 l 494 1081 z "},"Ș":{"ha":808,"x_min":58,"x_max":735,"o":"m 669 806 q 438 874 539 874 q 319 840 363 874 q 275 749 275 807 q 330 653 275 692 q 483 578 385 615 q 612 517 558 551 q 700 425 665 483 q 735 278 735 367 q 694 132 735 197 q 578 28 654 67 q 397 -11 501 -11 q 217 17 306 -11 q 58 96 128 46 l 131 222 q 252 158 182 183 q 382 132 322 132 q 511 167 456 132 q 567 276 567 203 q 520 374 567 335 q 390 444 474 413 q 247 508 304 476 q 149 595 190 539 q 108 736 108 651 q 192 935 108 860 q 414 1017 276 1011 q 590 994 514 1017 q 731 929 665 971 l 669 806 m 282 -267 q 322 -203 307 -243 q 336 -118 336 -162 q 333 -79 336 -104 l 469 -81 q 472 -111 472 -100 q 442 -229 472 -169 q 361 -321 413 -289 l 282 -267 z "},"ẞ":{"ha":1165,"x_min":139,"x_max":1097,"o":"m 869 553 q 992 476 950 506 q 1065 394 1033 447 q 1097 264 1097 342 q 1061 127 1097 190 q 956 26 1025 64 q 792 -11 886 -11 q 619 14 703 -11 q 465 88 535 39 l 536 214 q 654 155 588 178 q 778 132 721 132 q 883 165 836 132 q 929 264 929 199 q 909 324 929 297 q 862 368 889 350 q 778 418 835 386 q 616 534 679 469 q 553 694 553 599 q 589 835 553 776 q 693 922 625 894 q 579 939 639 939 q 374 844 447 939 q 301 556 301 750 l 301 0 l 139 0 l 139 561 q 188 827 139 713 q 333 1005 238 942 q 563 1068 428 1068 q 785 1025 674 1068 q 947 926 897 982 l 904 807 q 846 833 875 829 l 844 835 l 822 836 q 744 803 775 836 q 714 722 714 771 q 735 654 714 683 q 784 606 757 625 q 869 553 811 588 z "},"Ə":{"ha":1099,"x_min":63,"x_max":1022,"o":"m 522 1022 q 785 957 671 1022 q 960 778 899 892 q 1022 524 1022 664 q 954 256 1022 376 q 770 67 886 136 q 518 -3 654 -3 q 222 110 340 -3 q 63 425 103 224 l 811 682 q 689 815 768 767 q 518 864 610 864 q 366 830 444 864 q 243 743 288 796 l 163 874 q 329 978 224 935 q 522 1022 435 1022 m 531 142 q 690 191 615 142 q 808 326 764 240 q 851 514 851 411 q 849 564 851 531 l 261 354 q 365 199 297 256 q 531 142 433 142 z "},"T":{"ha":810,"x_min":67,"x_max":743,"o":"m 743 1011 l 743 856 l 482 856 l 482 0 l 321 0 l 321 856 l 67 856 l 67 1011 l 743 1011 z "},"Ŧ":{"ha":810,"x_min":67,"x_max":743,"o":"m 482 856 l 482 574 l 604 574 l 604 429 l 482 429 l 482 0 l 321 0 l 321 429 l 199 429 l 199 574 l 321 574 l 321 856 l 67 856 l 67 1011 l 743 1011 l 743 856 l 482 856 z "},"Ť":{"ha":810,"x_min":67,"x_max":743,"o":"m 743 1011 l 743 856 l 482 856 l 482 0 l 321 0 l 321 856 l 67 856 l 67 1011 l 743 1011 m 646 1286 l 406 1042 l 404 1042 l 160 1286 l 301 1286 l 407 1181 l 504 1286 l 646 1286 z "},"Ţ":{"ha":810,"x_min":67,"x_max":743,"o":"m 482 856 l 482 10 l 489 10 l 482 1 l 482 0 l 481 0 l 431 -57 q 553 -89 507 -57 q 600 -181 600 -121 q 542 -287 600 -250 q 399 -324 483 -324 q 244 -267 301 -324 l 293 -204 q 331 -231 308 -221 q 382 -240 354 -240 q 443 -225 417 -240 q 469 -183 469 -210 q 450 -143 469 -160 q 386 -126 431 -126 q 299 -143 356 -126 l 274 -69 l 354 0 l 321 0 l 321 856 l 67 856 l 67 1011 l 743 1011 l 743 856 l 482 856 z "},"Ț":{"ha":810,"x_min":67,"x_max":743,"o":"m 743 1011 l 743 856 l 482 856 l 482 0 l 321 0 l 321 856 l 67 856 l 67 1011 l 743 1011 m 285 -256 q 324 -192 310 -232 q 339 -107 339 -151 q 336 -68 339 -93 l 472 -69 q 475 -100 475 -89 q 445 -218 475 -158 q 364 -310 415 -278 l 285 -256 z "},"U":{"ha":1029,"x_min":124,"x_max":907,"o":"m 285 364 q 315 256 285 306 q 399 176 346 206 q 514 146 451 146 q 633 175 579 146 q 717 254 686 204 q 747 364 747 304 l 747 1011 l 907 1011 l 907 360 q 855 167 907 251 q 713 36 803 83 q 514 -11 622 -11 q 316 36 406 -11 q 175 167 226 83 q 124 360 124 251 l 124 1011 l 285 1011 l 285 364 z "},"Ú":{"ha":1029,"x_min":124,"x_max":907,"o":"m 285 364 q 315 256 285 306 q 399 176 346 206 q 514 146 451 146 q 633 175 579 146 q 717 254 686 204 q 747 364 747 304 l 747 1011 l 907 1011 l 907 360 q 855 167 907 251 q 713 36 803 83 q 514 -11 622 -11 q 316 36 406 -11 q 175 167 226 83 q 124 360 124 251 l 124 1011 l 285 1011 l 285 364 m 560 1076 l 463 1076 l 575 1263 l 747 1263 l 560 1076 z "},"Ŭ":{"ha":1029,"x_min":124,"x_max":907,"o":"m 285 364 q 315 256 285 306 q 399 176 346 206 q 514 146 451 146 q 633 175 579 146 q 717 254 686 204 q 747 364 747 304 l 747 1011 l 907 1011 l 907 360 q 855 167 907 251 q 713 36 803 83 q 514 -11 622 -11 q 316 36 406 -11 q 175 167 226 83 q 124 360 124 251 l 124 1011 l 285 1011 l 285 364 m 517 1081 q 297 1331 335 1081 l 401 1331 q 517 1185 425 1185 q 629 1331 608 1185 l 735 1331 q 517 1081 700 1081 z "},"Ǔ":{"ha":1029,"x_min":124,"x_max":907,"o":"m 285 364 q 315 256 285 306 q 399 176 346 206 q 514 146 451 146 q 633 175 579 146 q 717 254 686 204 q 747 364 747 304 l 747 1011 l 907 1011 l 907 360 q 855 167 907 251 q 713 36 803 83 q 514 -11 622 -11 q 316 36 406 -11 q 175 167 226 83 q 124 360 124 251 l 124 1011 l 285 1011 l 285 364 m 756 1308 l 515 1064 l 514 1064 l 269 1308 l 411 1308 l 517 1203 l 614 1308 l 756 1308 z "},"Û":{"ha":1029,"x_min":124,"x_max":907,"o":"m 285 364 q 315 256 285 306 q 399 176 346 206 q 514 146 451 146 q 633 175 579 146 q 717 254 686 204 q 747 364 747 304 l 747 1011 l 907 1011 l 907 360 q 855 167 907 251 q 713 36 803 83 q 514 -11 622 -11 q 316 36 406 -11 q 175 167 226 83 q 124 360 124 251 l 124 1011 l 285 1011 l 285 364 m 607 1097 l 503 1203 l 406 1097 l 263 1097 l 503 1342 l 504 1342 l 750 1097 l 607 1097 z "},"Ȕ":{"ha":1029,"x_min":124,"x_max":907,"o":"m 285 364 q 315 256 285 306 q 399 176 346 206 q 514 146 451 146 q 633 175 579 146 q 717 254 686 204 q 747 364 747 304 l 747 1011 l 907 1011 l 907 360 q 855 167 907 251 q 713 36 803 83 q 514 -11 622 -11 q 316 36 406 -11 q 175 167 226 83 q 124 360 124 251 l 124 1011 l 285 1011 l 285 364 m 390 1279 l 485 1093 l 388 1093 l 217 1279 l 390 1279 m 603 1279 l 697 1093 l 600 1093 l 429 1279 l 603 1279 z "},"Ü":{"ha":1029,"x_min":124,"x_max":907,"o":"m 285 364 q 315 256 285 306 q 399 176 346 206 q 514 146 451 146 q 633 175 579 146 q 717 254 686 204 q 747 364 747 304 l 747 1011 l 907 1011 l 907 360 q 855 167 907 251 q 713 36 803 83 q 514 -11 622 -11 q 316 36 406 -11 q 175 167 226 83 q 124 360 124 251 l 124 1011 l 285 1011 l 285 364 m 292 1165 q 317 1226 292 1201 q 376 1250 343 1250 q 433 1225 407 1250 q 458 1165 458 1200 q 433 1105 458 1129 q 376 1081 407 1081 q 317 1105 343 1081 q 292 1165 292 1129 m 558 1165 q 584 1226 558 1201 q 643 1250 610 1250 q 699 1225 674 1250 q 725 1165 725 1200 q 699 1105 725 1129 q 643 1081 674 1081 q 584 1105 610 1081 q 558 1165 558 1129 z "},"Ụ":{"ha":1029,"x_min":124,"x_max":907,"o":"m 285 364 q 315 256 285 306 q 399 176 346 206 q 514 146 451 146 q 633 175 579 146 q 717 254 686 204 q 747 364 747 304 l 747 1011 l 907 1011 l 907 360 q 855 167 907 251 q 713 36 803 83 q 514 -11 622 -11 q 316 36 406 -11 q 175 167 226 83 q 124 360 124 251 l 124 1011 l 285 1011 l 285 364 m 424 -150 q 451 -91 424 -115 q 514 -67 479 -67 q 574 -91 547 -67 q 601 -150 601 -115 q 574 -208 601 -185 q 514 -232 547 -232 q 451 -208 479 -232 q 424 -150 424 -185 z "},"Ù":{"ha":1029,"x_min":124,"x_max":907,"o":"m 285 364 q 315 256 285 306 q 399 176 346 206 q 514 146 451 146 q 633 175 579 146 q 717 254 686 204 q 747 364 747 304 l 747 1011 l 907 1011 l 907 360 q 855 167 907 251 q 713 36 803 83 q 514 -11 622 -11 q 316 36 406 -11 q 175 167 226 83 q 124 360 124 251 l 124 1011 l 285 1011 l 285 364 m 460 1271 l 554 1085 l 457 1085 l 286 1271 l 460 1271 z "},"Ủ":{"ha":1029,"x_min":124,"x_max":907,"o":"m 285 364 q 315 256 285 306 q 399 176 346 206 q 514 146 451 146 q 633 175 579 146 q 717 254 686 204 q 747 364 747 304 l 747 1011 l 907 1011 l 907 360 q 855 167 907 251 q 713 36 803 83 q 514 -11 622 -11 q 316 36 406 -11 q 175 167 226 83 q 124 360 124 251 l 124 1011 l 285 1011 l 285 364 m 504 1135 q 549 1174 535 1157 q 564 1214 564 1192 q 552 1249 564 1236 q 519 1263 540 1263 q 460 1221 483 1263 l 403 1257 q 462 1326 425 1303 q 540 1349 499 1349 q 623 1315 594 1349 q 651 1235 651 1282 q 622 1154 651 1189 q 540 1089 593 1119 l 504 1135 z "},"Ư":{"ha":1064,"x_min":124,"x_max":1101,"o":"m 1101 1053 q 1039 891 1086 936 q 907 842 992 846 l 907 360 q 855 167 907 251 q 713 36 803 83 q 514 -11 622 -11 q 316 36 406 -11 q 175 167 226 83 q 124 360 124 251 l 124 1011 l 285 1011 l 285 364 q 315 256 285 306 q 399 176 346 206 q 514 146 451 146 q 633 175 579 146 q 717 254 686 204 q 747 364 747 304 l 747 1011 l 907 1011 l 907 938 q 961 968 944 943 q 986 1053 978 993 l 1101 1053 z "},"Ứ":{"ha":1064,"x_min":124,"x_max":1101,"o":"m 1101 1053 q 1039 891 1086 936 q 907 842 992 846 l 907 360 q 855 167 907 251 q 713 36 803 83 q 514 -11 622 -11 q 316 36 406 -11 q 175 167 226 83 q 124 360 124 251 l 124 1011 l 285 1011 l 285 364 q 315 256 285 306 q 399 176 346 206 q 514 146 451 146 q 633 175 579 146 q 717 254 686 204 q 747 364 747 304 l 747 1011 l 907 1011 l 907 938 q 961 968 944 943 q 986 1053 978 993 l 1101 1053 m 560 1076 l 463 1076 l 575 1263 l 747 1263 l 560 1076 z "},"Ự":{"ha":1064,"x_min":124,"x_max":1101,"o":"m 1101 1053 q 1039 891 1086 936 q 907 842 992 846 l 907 360 q 855 167 907 251 q 713 36 803 83 q 514 -11 622 -11 q 316 36 406 -11 q 175 167 226 83 q 124 360 124 251 l 124 1011 l 285 1011 l 285 364 q 315 256 285 306 q 399 176 346 206 q 514 146 451 146 q 633 175 579 146 q 717 254 686 204 q 747 364 747 304 l 747 1011 l 907 1011 l 907 938 q 961 968 944 943 q 986 1053 978 993 l 1101 1053 m 424 -150 q 451 -91 424 -115 q 514 -67 479 -67 q 574 -91 547 -67 q 601 -150 601 -115 q 574 -208 601 -185 q 514 -232 547 -232 q 451 -208 479 -232 q 424 -150 424 -185 z "},"Ừ":{"ha":1064,"x_min":124,"x_max":1101,"o":"m 1101 1053 q 1039 891 1086 936 q 907 842 992 846 l 907 360 q 855 167 907 251 q 713 36 803 83 q 514 -11 622 -11 q 316 36 406 -11 q 175 167 226 83 q 124 360 124 251 l 124 1011 l 285 1011 l 285 364 q 315 256 285 306 q 399 176 346 206 q 514 146 451 146 q 633 175 579 146 q 717 254 686 204 q 747 364 747 304 l 747 1011 l 907 1011 l 907 938 q 961 968 944 943 q 986 1053 978 993 l 1101 1053 m 460 1271 l 554 1085 l 457 1085 l 286 1271 l 460 1271 z "},"Ử":{"ha":1064,"x_min":124,"x_max":1101,"o":"m 1101 1053 q 1039 891 1086 936 q 907 842 992 846 l 907 360 q 855 167 907 251 q 713 36 803 83 q 514 -11 622 -11 q 316 36 406 -11 q 175 167 226 83 q 124 360 124 251 l 124 1011 l 285 1011 l 285 364 q 315 256 285 306 q 399 176 346 206 q 514 146 451 146 q 633 175 579 146 q 717 254 686 204 q 747 364 747 304 l 747 1011 l 907 1011 l 907 938 q 961 968 944 943 q 986 1053 978 993 l 1101 1053 m 504 1135 q 549 1174 535 1157 q 564 1214 564 1192 q 552 1249 564 1236 q 519 1263 540 1263 q 460 1221 483 1263 l 403 1257 q 462 1326 425 1303 q 540 1349 499 1349 q 623 1315 594 1349 q 651 1235 651 1282 q 622 1154 651 1189 q 540 1089 593 1119 l 504 1135 z "},"Ữ":{"ha":1064,"x_min":124,"x_max":1101,"o":"m 1101 1053 q 1039 891 1086 936 q 907 842 992 846 l 907 360 q 855 167 907 251 q 713 36 803 83 q 514 -11 622 -11 q 316 36 406 -11 q 175 167 226 83 q 124 360 124 251 l 124 1011 l 285 1011 l 285 364 q 315 256 285 306 q 399 176 346 206 q 514 146 451 146 q 633 175 579 146 q 717 254 686 204 q 747 364 747 304 l 747 1011 l 907 1011 l 907 938 q 961 968 944 943 q 986 1053 978 993 l 1101 1053 m 625 1128 q 558 1143 583 1128 q 493 1190 532 1158 q 458 1217 472 1208 q 428 1226 443 1226 q 388 1198 401 1226 q 376 1128 374 1169 l 293 1128 q 292 1151 292 1136 q 331 1279 292 1228 q 435 1331 369 1331 q 491 1315 467 1331 q 549 1269 515 1300 q 589 1236 572 1247 q 622 1225 606 1225 q 665 1329 671 1225 l 747 1328 q 750 1289 750 1300 q 714 1172 750 1217 q 625 1128 678 1128 z "},"Ű":{"ha":1029,"x_min":124,"x_max":907,"o":"m 285 364 q 315 256 285 306 q 399 176 346 206 q 514 146 451 146 q 633 175 579 146 q 717 254 686 204 q 747 364 747 304 l 747 1011 l 907 1011 l 907 360 q 855 167 907 251 q 713 36 803 83 q 514 -11 622 -11 q 316 36 406 -11 q 175 167 226 83 q 124 360 124 251 l 124 1011 l 285 1011 l 285 364 m 406 1089 l 308 1089 l 421 1275 l 593 1275 l 406 1089 m 633 1086 l 536 1086 l 649 1272 l 821 1272 l 633 1086 z "},"Ȗ":{"ha":1029,"x_min":124,"x_max":907,"o":"m 285 364 q 315 256 285 306 q 399 176 346 206 q 514 146 451 146 q 633 175 579 146 q 717 254 686 204 q 747 364 747 304 l 747 1011 l 907 1011 l 907 360 q 855 167 907 251 q 713 36 803 83 q 514 -11 622 -11 q 316 36 406 -11 q 175 167 226 83 q 124 360 124 251 l 124 1011 l 285 1011 l 285 364 m 508 1294 q 728 1044 690 1294 l 624 1044 q 508 1190 600 1190 q 396 1044 417 1190 l 290 1044 q 508 1294 325 1294 z "},"Ū":{"ha":1029,"x_min":124,"x_max":907,"o":"m 285 364 q 315 256 285 306 q 399 176 346 206 q 514 146 451 146 q 633 175 579 146 q 717 254 686 204 q 747 364 747 304 l 747 1011 l 907 1011 l 907 360 q 855 167 907 251 q 713 36 803 83 q 514 -11 622 -11 q 316 36 406 -11 q 175 167 226 83 q 124 360 124 251 l 124 1011 l 285 1011 l 285 364 m 683 1196 l 683 1086 l 338 1086 l 338 1196 l 683 1196 z "},"Ų":{"ha":1029,"x_min":124,"x_max":907,"o":"m 729 38 q 641 -49 671 -11 q 611 -133 611 -87 q 629 -182 611 -167 q 675 -197 647 -197 q 772 -131 731 -197 l 829 -211 q 754 -281 803 -253 q 661 -308 706 -308 q 533 -263 585 -308 q 482 -146 482 -218 q 501 -72 482 -108 q 554 -10 521 -35 q 514 -11 542 -11 q 310 35 399 -11 q 172 167 221 82 q 124 360 124 251 l 124 1011 l 285 1011 l 285 364 q 315 256 285 306 q 399 176 346 206 q 514 146 451 146 q 633 175 579 146 q 717 254 686 204 q 747 364 747 304 l 747 1011 l 907 1011 l 907 351 q 859 173 907 244 q 729 38 811 101 z "},"Ů":{"ha":1029,"x_min":124,"x_max":907,"o":"m 285 364 q 315 256 285 306 q 399 176 346 206 q 514 146 451 146 q 633 175 579 146 q 717 254 686 204 q 747 364 747 304 l 747 1011 l 907 1011 l 907 360 q 855 167 907 251 q 713 36 803 83 q 514 -11 622 -11 q 316 36 406 -11 q 175 167 226 83 q 124 360 124 251 l 124 1011 l 285 1011 l 285 364 m 379 1210 q 419 1305 379 1268 q 519 1342 458 1342 q 619 1305 579 1342 q 660 1210 660 1268 q 619 1114 660 1151 q 519 1076 579 1076 q 419 1113 458 1076 q 379 1210 379 1150 m 463 1207 q 478 1164 463 1181 q 519 1147 494 1147 q 561 1164 546 1147 q 576 1207 576 1181 q 561 1252 576 1236 q 519 1268 546 1268 q 478 1252 494 1268 q 463 1207 463 1236 z "},"Ũ":{"ha":1029,"x_min":124,"x_max":907,"o":"m 285 364 q 315 256 285 306 q 399 176 346 206 q 514 146 451 146 q 633 175 579 146 q 717 254 686 204 q 747 364 747 304 l 747 1011 l 907 1011 l 907 360 q 855 167 907 251 q 713 36 803 83 q 514 -11 622 -11 q 316 36 406 -11 q 175 167 226 83 q 124 360 124 251 l 124 1011 l 285 1011 l 285 364 m 625 1128 q 558 1143 583 1128 q 493 1190 532 1158 q 458 1217 472 1208 q 428 1226 443 1226 q 388 1198 401 1226 q 376 1128 374 1169 l 293 1128 q 292 1151 292 1136 q 331 1279 292 1228 q 435 1331 369 1331 q 491 1315 467 1331 q 549 1269 515 1300 q 589 1236 572 1247 q 622 1225 606 1225 q 665 1329 671 1225 l 747 1328 q 750 1289 750 1300 q 714 1172 750 1217 q 625 1128 678 1128 z "},"V":{"ha":1008,"x_min":51,"x_max":957,"o":"m 957 1011 l 504 -47 l 51 1011 l 244 1011 l 511 347 l 767 1011 l 957 1011 z "},"W":{"ha":1408,"x_min":51,"x_max":1357,"o":"m 963 -44 l 724 558 l 456 -47 l 51 1006 l 240 1006 l 476 331 l 644 761 l 547 1006 l 707 1006 l 967 350 l 1183 1006 l 1357 1006 l 963 -44 z "},"Ẃ":{"ha":1408,"x_min":51,"x_max":1357,"o":"m 963 -44 l 724 558 l 456 -47 l 51 1006 l 240 1006 l 476 331 l 644 761 l 547 1006 l 707 1006 l 967 350 l 1183 1006 l 1357 1006 l 963 -44 m 750 1065 l 653 1065 l 765 1251 l 938 1251 l 750 1065 z "},"Ŵ":{"ha":1408,"x_min":51,"x_max":1357,"o":"m 963 -44 l 724 558 l 456 -47 l 51 1006 l 240 1006 l 476 331 l 644 761 l 547 1006 l 707 1006 l 967 350 l 1183 1006 l 1357 1006 l 963 -44 m 797 1086 l 693 1192 l 596 1086 l 453 1086 l 693 1331 l 694 1331 l 940 1086 l 797 1086 z "},"Ẅ":{"ha":1408,"x_min":51,"x_max":1357,"o":"m 963 -44 l 724 558 l 456 -47 l 51 1006 l 240 1006 l 476 331 l 644 761 l 547 1006 l 707 1006 l 967 350 l 1183 1006 l 1357 1006 l 963 -44 m 482 1154 q 508 1215 482 1190 q 567 1239 533 1239 q 623 1214 597 1239 q 649 1154 649 1189 q 623 1094 649 1118 q 567 1069 597 1069 q 508 1094 533 1069 q 482 1154 482 1118 m 749 1154 q 774 1215 749 1190 q 833 1239 800 1239 q 890 1214 864 1239 q 915 1154 915 1189 q 890 1094 915 1118 q 833 1069 864 1069 q 774 1094 800 1069 q 749 1154 749 1118 z "},"Ẁ":{"ha":1408,"x_min":51,"x_max":1357,"o":"m 963 -44 l 724 558 l 456 -47 l 51 1006 l 240 1006 l 476 331 l 644 761 l 547 1006 l 707 1006 l 967 350 l 1183 1006 l 1357 1006 l 963 -44 m 650 1260 l 744 1074 l 647 1074 l 476 1260 l 650 1260 z "},"X":{"ha":964,"x_min":42,"x_max":921,"o":"m 713 0 l 464 382 l 242 0 l 42 0 l 374 521 l 56 1011 l 261 1011 l 499 646 l 713 1011 l 908 1011 l 588 511 l 921 0 l 713 0 z "},"Y":{"ha":978,"x_min":32,"x_max":946,"o":"m 946 1011 l 567 328 l 567 0 l 406 0 l 406 328 l 32 1011 l 231 1011 l 492 513 l 747 1011 l 946 1011 z "},"Ý":{"ha":978,"x_min":32,"x_max":946,"o":"m 946 1011 l 567 328 l 567 0 l 406 0 l 406 328 l 32 1011 l 231 1011 l 492 513 l 747 1011 l 946 1011 m 556 1074 l 458 1074 l 571 1260 l 743 1260 l 556 1074 z "},"Ŷ":{"ha":978,"x_min":32,"x_max":946,"o":"m 946 1011 l 567 328 l 567 0 l 406 0 l 406 328 l 32 1011 l 231 1011 l 492 513 l 747 1011 l 946 1011 m 603 1094 l 499 1200 l 401 1094 l 258 1094 l 499 1339 l 500 1339 l 746 1094 l 603 1094 z "},"Ÿ":{"ha":978,"x_min":32,"x_max":946,"o":"m 946 1011 l 567 328 l 567 0 l 406 0 l 406 328 l 32 1011 l 231 1011 l 492 513 l 747 1011 l 946 1011 m 288 1163 q 313 1223 288 1199 q 372 1247 339 1247 q 428 1222 403 1247 q 454 1163 454 1197 q 428 1102 454 1126 q 372 1078 403 1078 q 313 1102 339 1078 q 288 1163 288 1126 m 554 1163 q 580 1223 554 1199 q 639 1247 606 1247 q 695 1222 669 1247 q 721 1163 721 1197 q 695 1102 721 1126 q 639 1078 669 1078 q 580 1102 606 1078 q 554 1163 554 1126 z "},"Ỵ":{"ha":978,"x_min":32,"x_max":946,"o":"m 946 1011 l 567 328 l 567 0 l 406 0 l 406 328 l 32 1011 l 231 1011 l 492 513 l 747 1011 l 946 1011 m 397 -150 q 425 -91 397 -115 q 488 -67 453 -67 q 548 -91 521 -67 q 575 -150 575 -115 q 548 -208 575 -185 q 488 -232 521 -232 q 425 -208 453 -232 q 397 -150 397 -185 z "},"Ỳ":{"ha":978,"x_min":32,"x_max":946,"o":"m 946 1011 l 567 328 l 567 0 l 406 0 l 406 328 l 32 1011 l 231 1011 l 492 513 l 747 1011 l 946 1011 m 456 1268 l 550 1082 l 453 1082 l 282 1268 l 456 1268 z "},"Ỷ":{"ha":978,"x_min":32,"x_max":946,"o":"m 946 1011 l 567 328 l 567 0 l 406 0 l 406 328 l 32 1011 l 231 1011 l 492 513 l 747 1011 l 946 1011 m 500 1132 q 545 1172 531 1154 q 560 1211 560 1189 q 548 1247 560 1233 q 515 1260 536 1260 q 456 1218 479 1260 l 399 1254 q 458 1323 421 1300 q 536 1346 494 1346 q 619 1313 590 1346 q 647 1232 647 1279 q 618 1151 647 1186 q 536 1086 589 1117 l 500 1132 z "},"Ȳ":{"ha":978,"x_min":32,"x_max":946,"o":"m 946 1011 l 567 328 l 567 0 l 406 0 l 406 328 l 32 1011 l 231 1011 l 492 513 l 747 1011 l 946 1011 m 679 1193 l 679 1083 l 333 1083 l 333 1193 l 679 1193 z "},"Ỹ":{"ha":978,"x_min":32,"x_max":946,"o":"m 946 1011 l 567 328 l 567 0 l 406 0 l 406 328 l 32 1011 l 231 1011 l 492 513 l 747 1011 l 946 1011 m 621 1125 q 553 1140 579 1125 q 489 1188 528 1156 q 453 1215 468 1206 q 424 1224 439 1224 q 383 1195 397 1224 q 372 1125 369 1167 l 289 1125 q 288 1149 288 1133 q 326 1276 288 1225 q 431 1328 365 1328 q 487 1313 463 1328 q 544 1267 511 1297 q 585 1233 568 1244 q 618 1222 601 1222 q 661 1326 667 1222 l 743 1325 q 746 1286 746 1297 q 710 1169 746 1214 q 621 1125 674 1125 z "},"Z":{"ha":994,"x_min":67,"x_max":921,"o":"m 921 156 l 921 0 l 67 0 q 336 410 82 22 q 628 856 547 736 l 253 856 q 169 882 207 856 q 131 947 131 908 l 131 1063 l 281 1063 l 281 1043 q 288 1015 281 1019 q 324 1011 296 1011 l 913 1011 l 344 156 l 921 156 z "},"Ź":{"ha":994,"x_min":67,"x_max":921,"o":"m 921 156 l 921 0 l 67 0 q 336 410 82 22 q 628 856 547 736 l 253 856 q 169 882 207 856 q 131 947 131 908 l 131 1063 l 281 1063 l 281 1043 q 288 1015 281 1019 q 324 1011 296 1011 l 913 1011 l 344 156 l 921 156 m 542 1054 l 444 1054 l 557 1240 l 729 1240 l 542 1054 z "},"Ž":{"ha":994,"x_min":67,"x_max":921,"o":"m 921 156 l 921 0 l 67 0 q 336 410 82 22 q 628 856 547 736 l 253 856 q 169 882 207 856 q 131 947 131 908 l 131 1063 l 281 1063 l 281 1043 q 288 1015 281 1019 q 324 1011 296 1011 l 913 1011 l 344 156 l 921 156 m 738 1286 l 497 1042 l 496 1042 l 251 1286 l 393 1286 l 499 1181 l 596 1286 l 738 1286 z "},"Ż":{"ha":994,"x_min":67,"x_max":921,"o":"m 921 156 l 921 0 l 67 0 q 336 410 82 22 q 628 856 547 736 l 253 856 q 169 882 207 856 q 131 947 131 908 l 131 1063 l 281 1063 l 281 1043 q 288 1015 281 1019 q 324 1011 296 1011 l 913 1011 l 344 156 l 921 156 m 408 1139 q 436 1198 408 1174 q 499 1222 464 1222 q 559 1198 532 1222 q 586 1139 586 1174 q 559 1081 586 1104 q 499 1057 532 1057 q 436 1081 464 1057 q 408 1139 408 1104 z "},"a":{"ha":831,"x_min":58,"x_max":722,"o":"m 722 588 l 722 0 l 567 0 l 567 85 q 481 16 535 47 q 354 -15 426 -15 q 203 20 269 -15 q 97 125 136 56 q 58 293 58 194 q 99 462 58 389 q 206 574 139 535 q 354 614 274 614 q 568 508 497 614 l 579 588 l 722 588 m 397 113 q 505 145 461 113 q 567 238 549 178 l 567 365 q 502 453 550 419 q 392 486 454 486 q 267 434 318 486 q 215 301 215 382 q 240 206 215 249 q 307 138 265 163 q 397 113 349 113 z "},"á":{"ha":831,"x_min":58,"x_max":722,"o":"m 722 588 l 722 0 l 567 0 l 567 85 q 481 16 535 47 q 354 -15 426 -15 q 203 20 269 -15 q 97 125 136 56 q 58 293 58 194 q 99 462 58 389 q 206 574 139 535 q 354 614 274 614 q 568 508 497 614 l 579 588 l 722 588 m 397 113 q 505 145 461 113 q 567 238 549 178 l 567 365 q 502 453 550 419 q 392 486 454 486 q 267 434 318 486 q 215 301 215 382 q 240 206 215 249 q 307 138 265 163 q 397 113 349 113 m 489 692 l 392 692 l 504 878 l 676 878 l 489 692 z "},"ă":{"ha":831,"x_min":58,"x_max":722,"o":"m 722 588 l 722 0 l 567 0 l 567 85 q 481 16 535 47 q 354 -15 426 -15 q 203 20 269 -15 q 97 125 136 56 q 58 293 58 194 q 99 462 58 389 q 206 574 139 535 q 354 614 274 614 q 568 508 497 614 l 579 588 l 722 588 m 397 113 q 505 145 461 113 q 567 238 549 178 l 567 365 q 502 453 550 419 q 392 486 454 486 q 267 434 318 486 q 215 301 215 382 q 240 206 215 249 q 307 138 265 163 q 397 113 349 113 m 439 672 q 219 922 257 672 l 324 922 q 439 776 347 776 q 551 922 531 776 l 657 922 q 439 672 622 672 z "},"ắ":{"ha":831,"x_min":58,"x_max":722,"o":"m 722 588 l 722 0 l 567 0 l 567 85 q 481 16 535 47 q 354 -15 426 -15 q 203 20 269 -15 q 97 125 136 56 q 58 293 58 194 q 99 462 58 389 q 206 574 139 535 q 354 614 274 614 q 568 508 497 614 l 579 588 l 722 588 m 397 113 q 505 145 461 113 q 567 238 549 178 l 567 365 q 502 453 550 419 q 392 486 454 486 q 267 434 318 486 q 215 301 215 382 q 240 206 215 249 q 307 138 265 163 q 397 113 349 113 m 439 672 q 219 922 257 672 l 324 922 q 439 776 347 776 q 551 922 531 776 l 657 922 q 439 672 622 672 m 472 953 l 375 953 l 488 1139 l 660 1139 l 472 953 z "},"ặ":{"ha":831,"x_min":58,"x_max":722,"o":"m 722 588 l 722 0 l 567 0 l 567 85 q 481 16 535 47 q 354 -15 426 -15 q 203 20 269 -15 q 97 125 136 56 q 58 293 58 194 q 99 462 58 389 q 206 574 139 535 q 354 614 274 614 q 568 508 497 614 l 579 588 l 722 588 m 397 113 q 505 145 461 113 q 567 238 549 178 l 567 365 q 502 453 550 419 q 392 486 454 486 q 267 434 318 486 q 215 301 215 382 q 240 206 215 249 q 307 138 265 163 q 397 113 349 113 m 339 -144 q 363 -93 339 -114 q 418 -72 388 -72 q 469 -93 446 -72 q 493 -144 493 -114 q 470 -195 493 -175 q 418 -215 447 -215 q 363 -195 388 -215 q 339 -144 339 -175 m 439 672 q 219 922 257 672 l 324 922 q 439 776 347 776 q 551 922 531 776 l 657 922 q 439 672 622 672 z "},"ằ":{"ha":831,"x_min":58,"x_max":722,"o":"m 722 588 l 722 0 l 567 0 l 567 85 q 481 16 535 47 q 354 -15 426 -15 q 203 20 269 -15 q 97 125 136 56 q 58 293 58 194 q 99 462 58 389 q 206 574 139 535 q 354 614 274 614 q 568 508 497 614 l 579 588 l 722 588 m 397 113 q 505 145 461 113 q 567 238 549 178 l 567 365 q 502 453 550 419 q 392 486 454 486 q 267 434 318 486 q 215 301 215 382 q 240 206 215 249 q 307 138 265 163 q 397 113 349 113 m 439 672 q 219 922 257 672 l 324 922 q 439 776 347 776 q 551 922 531 776 l 657 922 q 439 672 622 672 m 397 1138 l 492 951 l 394 951 l 224 1138 l 397 1138 z "},"ẳ":{"ha":831,"x_min":58,"x_max":722,"o":"m 722 588 l 722 0 l 567 0 l 567 85 q 481 16 535 47 q 354 -15 426 -15 q 203 20 269 -15 q 97 125 136 56 q 58 293 58 194 q 99 462 58 389 q 206 574 139 535 q 354 614 274 614 q 568 508 497 614 l 579 588 l 722 588 m 397 113 q 505 145 461 113 q 567 238 549 178 l 567 365 q 502 453 550 419 q 392 486 454 486 q 267 434 318 486 q 215 301 215 382 q 240 206 215 249 q 307 138 265 163 q 397 113 349 113 m 439 672 q 219 922 257 672 l 324 922 q 439 776 347 776 q 551 922 531 776 l 657 922 q 439 672 622 672 m 432 979 q 477 1019 463 1001 q 492 1058 492 1036 q 480 1094 492 1081 q 447 1107 468 1107 q 388 1065 411 1107 l 331 1101 q 390 1170 353 1147 q 468 1193 426 1193 q 551 1160 522 1193 q 579 1079 579 1126 q 550 999 579 1033 q 468 933 521 964 l 432 979 z "},"ẵ":{"ha":831,"x_min":58,"x_max":722,"o":"m 722 588 l 722 0 l 567 0 l 567 85 q 481 16 535 47 q 354 -15 426 -15 q 203 20 269 -15 q 97 125 136 56 q 58 293 58 194 q 99 462 58 389 q 206 574 139 535 q 354 614 274 614 q 568 508 497 614 l 579 588 l 722 588 m 397 113 q 505 145 461 113 q 567 238 549 178 l 567 365 q 502 453 550 419 q 392 486 454 486 q 267 434 318 486 q 215 301 215 382 q 240 206 215 249 q 307 138 265 163 q 397 113 349 113 m 438 672 q 218 922 256 672 l 322 922 q 438 776 346 776 q 550 922 529 776 l 656 922 q 438 672 621 672 m 558 968 q 491 983 517 968 q 426 1031 465 999 q 391 1058 406 1049 q 361 1067 376 1067 q 321 1038 335 1067 q 310 968 307 1010 l 226 968 q 225 992 225 976 q 264 1119 225 1068 q 368 1171 303 1171 q 424 1156 400 1171 q 482 1110 449 1140 q 522 1076 506 1088 q 556 1065 539 1065 q 599 1169 604 1065 l 681 1168 q 683 1129 683 1140 q 647 1013 683 1057 q 558 968 611 968 z "},"â":{"ha":831,"x_min":58,"x_max":722,"o":"m 722 588 l 722 0 l 567 0 l 567 85 q 481 16 535 47 q 354 -15 426 -15 q 203 20 269 -15 q 97 125 136 56 q 58 293 58 194 q 99 462 58 389 q 206 574 139 535 q 354 614 274 614 q 568 508 497 614 l 579 588 l 722 588 m 397 113 q 505 145 461 113 q 567 238 549 178 l 567 365 q 502 453 550 419 q 392 486 454 486 q 267 434 318 486 q 215 301 215 382 q 240 206 215 249 q 307 138 265 163 q 397 113 349 113 m 536 699 l 432 804 l 335 699 l 192 699 l 432 943 l 433 943 l 679 699 l 536 699 z "},"ấ":{"ha":831,"x_min":58,"x_max":907,"o":"m 722 588 l 722 0 l 567 0 l 567 85 q 481 16 535 47 q 354 -15 426 -15 q 203 20 269 -15 q 97 125 136 56 q 58 293 58 194 q 99 462 58 389 q 206 574 139 535 q 354 614 274 614 q 568 508 497 614 l 579 588 l 722 588 m 397 113 q 505 145 461 113 q 567 238 549 178 l 567 365 q 502 453 550 419 q 392 486 454 486 q 267 434 318 486 q 215 301 215 382 q 240 206 215 249 q 307 138 265 163 q 397 113 349 113 m 540 694 l 436 800 l 339 694 l 196 694 l 436 939 l 438 939 l 683 694 l 540 694 m 719 836 l 622 836 l 735 1022 l 907 1022 l 719 836 z "},"ậ":{"ha":831,"x_min":58,"x_max":722,"o":"m 722 588 l 722 0 l 567 0 l 567 85 q 481 16 535 47 q 354 -15 426 -15 q 203 20 269 -15 q 97 125 136 56 q 58 293 58 194 q 99 462 58 389 q 206 574 139 535 q 354 614 274 614 q 568 508 497 614 l 579 588 l 722 588 m 397 113 q 505 145 461 113 q 567 238 549 178 l 567 365 q 502 453 550 419 q 392 486 454 486 q 267 434 318 486 q 215 301 215 382 q 240 206 215 249 q 307 138 265 163 q 397 113 349 113 m 339 -144 q 363 -93 339 -114 q 418 -72 388 -72 q 469 -93 446 -72 q 493 -144 493 -114 q 470 -195 493 -175 q 418 -215 447 -215 q 363 -195 388 -215 q 339 -144 339 -175 m 536 699 l 432 804 l 335 699 l 192 699 l 432 943 l 433 943 l 679 699 l 536 699 z "},"ầ":{"ha":831,"x_min":-15,"x_max":722,"o":"m 722 588 l 722 0 l 567 0 l 567 85 q 481 16 535 47 q 354 -15 426 -15 q 203 20 269 -15 q 97 125 136 56 q 58 293 58 194 q 99 462 58 389 q 206 574 139 535 q 354 614 274 614 q 568 508 497 614 l 579 588 l 722 588 m 397 113 q 505 145 461 113 q 567 238 549 178 l 567 365 q 502 453 550 419 q 392 486 454 486 q 267 434 318 486 q 215 301 215 382 q 240 206 215 249 q 307 138 265 163 q 397 113 349 113 m 532 693 l 428 799 l 331 693 l 188 693 l 428 938 l 429 938 l 675 693 l 532 693 m 158 1029 l 253 843 l 156 843 l -15 1029 l 158 1029 z "},"ẩ":{"ha":831,"x_min":58,"x_max":815,"o":"m 722 588 l 722 0 l 567 0 l 567 85 q 481 16 535 47 q 354 -15 426 -15 q 203 20 269 -15 q 97 125 136 56 q 58 293 58 194 q 99 462 58 389 q 206 574 139 535 q 354 614 274 614 q 568 508 497 614 l 579 588 l 722 588 m 397 113 q 505 145 461 113 q 567 238 549 178 l 567 365 q 502 453 550 419 q 392 486 454 486 q 267 434 318 486 q 215 301 215 382 q 240 206 215 249 q 307 138 265 163 q 397 113 349 113 m 536 694 l 432 800 l 335 694 l 192 694 l 432 939 l 433 939 l 679 694 l 536 694 m 668 843 q 713 883 699 865 q 728 922 728 900 q 716 958 728 944 q 683 971 704 971 q 624 929 647 971 l 567 965 q 626 1034 589 1011 q 704 1057 663 1057 q 787 1024 758 1057 q 815 943 815 990 q 786 863 815 897 q 704 797 757 828 l 668 843 z "},"ẫ":{"ha":831,"x_min":58,"x_max":722,"o":"m 722 588 l 722 0 l 567 0 l 567 85 q 481 16 535 47 q 354 -15 426 -15 q 203 20 269 -15 q 97 125 136 56 q 58 293 58 194 q 99 462 58 389 q 206 574 139 535 q 354 614 274 614 q 568 508 497 614 l 579 588 l 722 588 m 397 113 q 505 145 461 113 q 567 238 549 178 l 567 365 q 502 453 550 419 q 392 486 454 486 q 267 434 318 486 q 215 301 215 382 q 240 206 215 249 q 307 138 265 163 q 397 113 349 113 m 529 688 l 425 793 l 328 688 l 185 688 l 425 932 l 426 932 l 672 688 l 529 688 m 539 988 q 472 1003 497 988 q 407 1050 446 1018 q 372 1077 386 1068 q 342 1086 357 1086 q 301 1058 315 1086 q 290 988 288 1029 l 207 988 q 206 1011 206 996 q 244 1139 206 1088 q 349 1190 283 1190 q 405 1175 381 1190 q 463 1129 429 1160 q 503 1096 486 1107 q 536 1085 519 1085 q 579 1189 585 1085 l 661 1188 q 664 1149 664 1160 q 628 1032 664 1076 q 539 988 592 988 z "},"ȁ":{"ha":831,"x_min":58,"x_max":722,"o":"m 722 588 l 722 0 l 567 0 l 567 85 q 481 16 535 47 q 354 -15 426 -15 q 203 20 269 -15 q 97 125 136 56 q 58 293 58 194 q 99 462 58 389 q 206 574 139 535 q 354 614 274 614 q 568 508 497 614 l 579 588 l 722 588 m 397 113 q 505 145 461 113 q 567 238 549 178 l 567 365 q 502 453 550 419 q 392 486 454 486 q 267 434 318 486 q 215 301 215 382 q 240 206 215 249 q 307 138 265 163 q 397 113 349 113 m 296 885 l 390 699 l 293 699 l 122 885 l 296 885 m 508 885 l 603 699 l 506 699 l 335 885 l 508 885 z "},"ä":{"ha":831,"x_min":58,"x_max":722,"o":"m 722 588 l 722 0 l 567 0 l 567 85 q 481 16 535 47 q 354 -15 426 -15 q 203 20 269 -15 q 97 125 136 56 q 58 293 58 194 q 99 462 58 389 q 206 574 139 535 q 354 614 274 614 q 568 508 497 614 l 579 588 l 722 588 m 397 113 q 505 145 461 113 q 567 238 549 178 l 567 365 q 502 453 550 419 q 392 486 454 486 q 267 434 318 486 q 215 301 215 382 q 240 206 215 249 q 307 138 265 163 q 397 113 349 113 m 218 763 q 244 823 218 799 q 303 847 269 847 q 359 822 333 847 q 385 763 385 797 q 359 702 385 726 q 303 678 333 678 q 244 702 269 678 q 218 763 218 726 m 485 763 q 510 823 485 799 q 569 847 536 847 q 626 822 600 847 q 651 763 651 797 q 626 702 651 726 q 569 678 600 678 q 510 702 536 678 q 485 763 485 726 z "},"ạ":{"ha":831,"x_min":58,"x_max":722,"o":"m 722 588 l 722 0 l 567 0 l 567 85 q 481 16 535 47 q 354 -15 426 -15 q 203 20 269 -15 q 97 125 136 56 q 58 293 58 194 q 99 462 58 389 q 206 574 139 535 q 354 614 274 614 q 568 508 497 614 l 579 588 l 722 588 m 397 113 q 505 145 461 113 q 567 238 549 178 l 567 365 q 502 453 550 419 q 392 486 454 486 q 267 434 318 486 q 215 301 215 382 q 240 206 215 249 q 307 138 265 163 q 397 113 349 113 m 339 -144 q 363 -93 339 -114 q 418 -72 388 -72 q 469 -93 446 -72 q 493 -144 493 -114 q 470 -195 493 -175 q 418 -215 447 -215 q 363 -195 388 -215 q 339 -144 339 -175 z "},"à":{"ha":831,"x_min":58,"x_max":722,"o":"m 722 588 l 722 0 l 567 0 l 567 85 q 481 16 535 47 q 354 -15 426 -15 q 203 20 269 -15 q 97 125 136 56 q 58 293 58 194 q 99 462 58 389 q 206 574 139 535 q 354 614 274 614 q 568 508 497 614 l 579 588 l 722 588 m 397 113 q 505 145 461 113 q 567 238 549 178 l 567 365 q 502 453 550 419 q 392 486 454 486 q 267 434 318 486 q 215 301 215 382 q 240 206 215 249 q 307 138 265 163 q 397 113 349 113 m 390 885 l 485 699 l 388 699 l 217 885 l 390 885 z "},"ả":{"ha":831,"x_min":58,"x_max":722,"o":"m 722 588 l 722 0 l 567 0 l 567 85 q 481 16 535 47 q 354 -15 426 -15 q 203 20 269 -15 q 97 125 136 56 q 58 293 58 194 q 99 462 58 389 q 206 574 139 535 q 354 614 274 614 q 568 508 497 614 l 579 588 l 722 588 m 397 113 q 505 145 461 113 q 567 238 549 178 l 567 365 q 502 453 550 419 q 392 486 454 486 q 267 434 318 486 q 215 301 215 382 q 240 206 215 249 q 307 138 265 163 q 397 113 349 113 m 403 719 q 448 759 433 742 q 463 799 463 776 q 451 834 463 821 q 418 847 439 847 q 358 806 382 847 l 301 842 q 360 910 324 888 q 439 933 397 933 q 522 900 493 933 q 550 819 550 867 q 521 739 550 774 q 439 674 492 704 l 403 719 z "},"ȃ":{"ha":831,"x_min":58,"x_max":722,"o":"m 722 588 l 722 0 l 567 0 l 567 85 q 481 16 535 47 q 354 -15 426 -15 q 203 20 269 -15 q 97 125 136 56 q 58 293 58 194 q 99 462 58 389 q 206 574 139 535 q 354 614 274 614 q 568 508 497 614 l 579 588 l 722 588 m 397 113 q 505 145 461 113 q 567 238 549 178 l 567 365 q 502 453 550 419 q 392 486 454 486 q 267 434 318 486 q 215 301 215 382 q 240 206 215 249 q 307 138 265 163 q 397 113 349 113 m 442 915 q 661 665 624 915 l 557 665 q 442 811 533 811 q 329 665 350 811 l 224 665 q 442 915 258 915 z "},"ā":{"ha":831,"x_min":58,"x_max":722,"o":"m 722 588 l 722 0 l 567 0 l 567 85 q 481 16 535 47 q 354 -15 426 -15 q 203 20 269 -15 q 97 125 136 56 q 58 293 58 194 q 99 462 58 389 q 206 574 139 535 q 354 614 274 614 q 568 508 497 614 l 579 588 l 722 588 m 397 113 q 505 145 461 113 q 567 238 549 178 l 567 365 q 502 453 550 419 q 392 486 454 486 q 267 434 318 486 q 215 301 215 382 q 240 206 215 249 q 307 138 265 163 q 397 113 349 113 m 610 789 l 610 679 l 264 679 l 264 789 l 610 789 z "},"ą":{"ha":838,"x_min":63,"x_max":803,"o":"m 803 -211 q 728 -281 776 -253 q 635 -308 679 -308 q 507 -263 558 -308 q 456 -146 456 -218 q 487 -56 456 -99 q 571 11 518 -12 l 571 90 q 353 -15 479 -15 q 204 20 269 -15 q 101 125 139 56 q 63 293 63 194 q 103 462 63 389 q 209 574 143 535 q 353 614 275 614 q 486 584 435 614 q 572 501 538 554 l 583 588 l 728 588 l 728 0 q 621 -62 657 -32 q 585 -133 585 -93 q 603 -182 585 -167 q 650 -197 621 -197 q 746 -131 704 -197 l 803 -211 m 396 113 q 507 145 461 113 q 571 238 553 178 l 571 365 q 506 453 554 419 q 396 486 458 486 q 272 434 322 486 q 221 301 221 382 q 244 206 221 249 q 308 138 268 163 q 396 113 349 113 z "},"å":{"ha":831,"x_min":58,"x_max":722,"o":"m 722 588 l 722 0 l 567 0 l 567 85 q 481 16 535 47 q 354 -15 426 -15 q 203 20 269 -15 q 97 125 136 56 q 58 293 58 194 q 99 462 58 389 q 206 574 139 535 q 354 614 274 614 q 568 508 497 614 l 579 588 l 722 588 m 397 113 q 505 145 461 113 q 567 238 549 178 l 567 365 q 502 453 550 419 q 392 486 454 486 q 267 434 318 486 q 215 301 215 382 q 240 206 215 249 q 307 138 265 163 q 397 113 349 113 m 281 788 q 320 883 281 846 q 421 919 360 919 q 521 883 481 919 q 561 788 561 846 q 521 692 561 729 q 421 654 481 654 q 320 691 360 654 q 281 788 281 728 m 364 785 q 380 742 364 758 q 421 725 396 725 q 463 742 447 725 q 478 785 478 758 q 463 830 478 814 q 421 846 447 846 q 380 830 396 846 q 364 785 364 814 z "},"ǻ":{"ha":831,"x_min":58,"x_max":722,"o":"m 722 588 l 722 0 l 567 0 l 567 85 q 481 16 535 47 q 354 -15 426 -15 q 203 20 269 -15 q 97 125 136 56 q 58 293 58 194 q 99 462 58 389 q 206 574 139 535 q 354 614 274 614 q 568 508 497 614 l 579 588 l 722 588 m 397 113 q 505 145 461 113 q 567 238 549 178 l 567 365 q 502 453 550 419 q 392 486 454 486 q 267 434 318 486 q 215 301 215 382 q 240 206 215 249 q 307 138 265 163 q 397 113 349 113 m 281 788 q 320 883 281 846 q 421 919 360 919 q 521 883 481 919 q 561 788 561 846 q 521 692 561 729 q 421 654 481 654 q 320 691 360 654 q 281 788 281 728 m 364 785 q 380 742 364 758 q 421 725 396 725 q 463 742 447 725 q 478 785 478 758 q 463 830 478 814 q 421 846 447 846 q 380 830 396 846 q 364 785 364 814 m 489 1001 l 392 1001 l 504 1188 l 676 1188 l 489 1001 z "},"ã":{"ha":831,"x_min":58,"x_max":722,"o":"m 722 588 l 722 0 l 567 0 l 567 85 q 481 16 535 47 q 354 -15 426 -15 q 203 20 269 -15 q 97 125 136 56 q 58 293 58 194 q 99 462 58 389 q 206 574 139 535 q 354 614 274 614 q 568 508 497 614 l 579 588 l 722 588 m 397 113 q 505 145 461 113 q 567 238 549 178 l 567 365 q 502 453 550 419 q 392 486 454 486 q 267 434 318 486 q 215 301 215 382 q 240 206 215 249 q 307 138 265 163 q 397 113 349 113 m 547 665 q 480 681 506 665 q 415 728 454 696 q 380 755 394 746 q 350 764 365 764 q 310 735 324 764 q 299 665 296 707 l 215 665 q 214 689 214 674 q 253 817 214 765 q 357 868 292 868 q 413 853 389 868 q 471 807 438 838 q 511 774 494 785 q 544 763 528 763 q 588 867 593 763 l 669 865 q 672 826 672 838 q 636 710 672 754 q 547 665 600 665 z "},"æ":{"ha":1150,"x_min":58,"x_max":1104,"o":"m 800 118 q 932 164 865 118 l 1003 49 q 901 2 956 19 q 797 -15 847 -15 q 648 12 713 -15 q 540 90 583 39 q 432 11 499 38 q 289 -15 365 -15 q 116 35 174 -15 q 58 168 58 86 q 92 265 58 224 q 183 329 126 307 q 304 351 240 351 q 389 342 346 351 q 468 318 432 333 l 468 365 q 427 457 468 429 q 343 485 386 485 q 249 460 292 485 q 175 396 206 435 l 96 494 q 364 613 206 613 q 487 592 432 613 q 576 532 542 571 q 678 592 621 571 q 800 614 736 614 q 999 544 919 614 q 1104 346 1078 474 l 651 193 q 714 138 675 157 q 800 118 753 118 m 788 492 q 667 440 714 492 q 621 307 621 389 q 622 283 621 292 l 931 393 q 878 464 913 436 q 788 492 843 492 m 481 203 l 479 207 q 414 239 444 229 q 342 249 383 249 q 260 230 290 249 q 229 172 229 211 q 256 114 229 135 q 333 93 283 93 q 414 114 371 93 q 481 163 457 135 l 481 203 z "},"ǽ":{"ha":1150,"x_min":58,"x_max":1104,"o":"m 800 118 q 932 164 865 118 l 1003 49 q 901 2 956 19 q 797 -15 847 -15 q 648 12 713 -15 q 540 90 583 39 q 432 11 499 38 q 289 -15 365 -15 q 116 35 174 -15 q 58 168 58 86 q 92 265 58 224 q 183 329 126 307 q 304 351 240 351 q 389 342 346 351 q 468 318 432 333 l 468 365 q 427 457 468 429 q 343 485 386 485 q 249 460 292 485 q 175 396 206 435 l 96 494 q 364 613 206 613 q 487 592 432 613 q 576 532 542 571 q 678 592 621 571 q 800 614 736 614 q 999 544 919 614 q 1104 346 1078 474 l 651 193 q 714 138 675 157 q 800 118 753 118 m 788 492 q 667 440 714 492 q 621 307 621 389 q 622 283 621 292 l 931 393 q 878 464 913 436 q 788 492 843 492 m 481 203 l 479 207 q 414 239 444 229 q 342 249 383 249 q 260 230 290 249 q 229 172 229 211 q 256 114 229 135 q 333 93 283 93 q 414 114 371 93 q 481 163 457 135 l 481 203 m 626 669 l 529 669 l 642 856 l 814 856 l 626 669 z "},"b":{"ha":840,"x_min":107,"x_max":783,"o":"m 499 614 q 642 576 576 614 q 745 469 707 539 q 783 304 783 399 q 742 135 783 207 q 630 24 700 63 q 478 -15 560 -15 q 354 10 408 -15 q 263 78 300 35 l 263 0 l 107 0 l 107 1083 l 263 1083 l 263 525 q 362 590 300 565 q 499 614 424 614 m 444 117 q 573 171 521 117 q 625 306 625 225 q 601 400 625 357 q 535 467 576 443 q 444 492 494 492 q 330 458 379 492 q 263 369 281 425 l 263 239 q 331 149 283 182 q 444 117 378 117 z "},"c":{"ha":646,"x_min":58,"x_max":599,"o":"m 593 54 q 498 3 554 22 q 385 -15 442 -15 q 213 22 288 -15 q 99 130 139 60 q 58 294 58 200 q 101 458 58 388 q 216 565 144 528 q 369 603 288 603 q 599 528 508 603 l 521 426 q 459 462 494 447 q 383 476 424 476 q 263 424 313 476 q 214 294 214 372 q 266 165 214 217 q 399 113 318 113 q 515 151 468 113 l 593 54 z "},"ć":{"ha":646,"x_min":58,"x_max":599,"o":"m 593 54 q 498 3 554 22 q 385 -15 442 -15 q 213 22 288 -15 q 99 130 139 60 q 58 294 58 200 q 101 458 58 388 q 216 565 144 528 q 369 603 288 603 q 599 528 508 603 l 521 426 q 459 462 494 447 q 383 476 424 476 q 263 424 313 476 q 214 294 214 372 q 266 165 214 217 q 399 113 318 113 q 515 151 468 113 l 593 54 m 407 681 l 310 681 l 422 867 l 594 867 l 407 681 z "},"č":{"ha":646,"x_min":58,"x_max":610,"o":"m 593 54 q 498 3 554 22 q 385 -15 442 -15 q 213 22 288 -15 q 99 130 139 60 q 58 294 58 200 q 101 458 58 388 q 216 565 144 528 q 369 603 288 603 q 599 528 508 603 l 521 426 q 459 462 494 447 q 383 476 424 476 q 263 424 313 476 q 214 294 214 372 q 266 165 214 217 q 399 113 318 113 q 515 151 468 113 l 593 54 m 610 915 l 369 671 l 368 671 l 124 915 l 265 915 l 371 810 l 468 915 l 610 915 z "},"ç":{"ha":646,"x_min":58,"x_max":599,"o":"m 383 -15 l 349 -56 q 472 -87 425 -56 q 518 -179 518 -119 q 460 -285 518 -249 q 317 -322 401 -322 q 163 -265 219 -322 l 211 -203 q 249 -229 226 -219 q 300 -239 272 -239 q 361 -224 335 -239 q 388 -182 388 -208 q 368 -142 388 -158 q 304 -125 349 -125 q 217 -142 274 -125 l 192 -68 l 271 0 q 115 106 172 29 q 58 294 58 183 q 101 458 58 388 q 216 565 144 528 q 369 603 288 603 q 599 528 508 603 l 521 426 q 459 462 494 447 q 383 476 424 476 q 263 424 313 476 q 214 294 214 372 q 266 165 214 217 q 399 113 318 113 q 515 151 468 113 l 593 54 q 498 3 554 22 q 385 -15 442 -15 l 383 -15 z "},"ĉ":{"ha":646,"x_min":58,"x_max":599,"o":"m 593 54 q 498 3 554 22 q 385 -15 442 -15 q 213 22 288 -15 q 99 130 139 60 q 58 294 58 200 q 101 458 58 388 q 216 565 144 528 q 369 603 288 603 q 599 528 508 603 l 521 426 q 459 462 494 447 q 383 476 424 476 q 263 424 313 476 q 214 294 214 372 q 266 165 214 217 q 399 113 318 113 q 515 151 468 113 l 593 54 m 454 688 l 350 793 l 253 688 l 110 688 l 350 932 l 351 932 l 597 688 l 454 688 z "},"ċ":{"ha":646,"x_min":58,"x_max":599,"o":"m 593 54 q 498 3 554 22 q 385 -15 442 -15 q 213 22 288 -15 q 99 130 139 60 q 58 294 58 200 q 101 458 58 388 q 216 565 144 528 q 369 603 288 603 q 599 528 508 603 l 521 426 q 459 462 494 447 q 383 476 424 476 q 263 424 313 476 q 214 294 214 372 q 266 165 214 217 q 399 113 318 113 q 515 151 468 113 l 593 54 m 267 808 q 294 867 267 843 q 357 892 322 892 q 417 867 390 892 q 444 808 444 843 q 417 750 444 774 q 357 726 390 726 q 294 750 322 726 q 267 808 267 774 z "},"d":{"ha":840,"x_min":58,"x_max":733,"o":"m 733 1083 l 733 0 l 578 0 l 578 79 q 347 -15 481 -15 q 199 24 265 -15 q 96 135 133 63 q 58 303 58 207 q 98 469 58 399 q 208 577 138 540 q 367 614 278 614 q 488 590 431 614 q 579 524 544 565 l 579 1083 l 733 1083 m 397 117 q 511 150 464 117 q 578 243 558 183 l 578 368 q 512 457 561 422 q 397 492 463 492 q 307 467 349 492 q 240 401 265 443 q 215 306 215 358 q 240 210 215 253 q 307 142 265 167 q 397 117 349 117 z "},"ð":{"ha":771,"x_min":58,"x_max":714,"o":"m 531 874 q 665 622 615 758 q 714 356 714 485 q 674 176 714 261 q 556 38 633 90 q 372 -15 478 -15 q 213 24 285 -15 q 100 134 142 63 q 58 300 58 206 q 97 459 58 388 q 202 572 136 531 q 349 614 268 614 q 535 524 458 614 q 400 792 500 671 l 276 715 l 225 818 l 321 878 q 208 975 258 936 l 322 1076 q 457 961 392 1031 l 576 1035 l 628 933 l 531 874 m 385 113 q 508 165 460 113 q 556 299 556 218 q 508 433 556 379 q 385 486 460 486 q 264 431 313 486 q 215 299 215 376 q 264 166 215 219 q 385 113 313 113 z "},"ď":{"ha":986,"x_min":58,"x_max":1001,"o":"m 733 1083 l 733 0 l 578 0 l 578 79 q 347 -15 481 -15 q 199 24 265 -15 q 96 135 133 63 q 58 303 58 207 q 98 469 58 399 q 208 577 138 540 q 367 614 278 614 q 488 590 431 614 q 579 524 544 565 l 579 1083 l 733 1083 m 397 117 q 511 150 464 117 q 578 243 558 183 l 578 368 q 512 457 561 422 q 397 492 463 492 q 307 467 349 492 q 240 401 265 443 q 215 306 215 358 q 240 210 215 253 q 307 142 265 167 q 397 117 349 117 m 821 893 q 863 958 846 918 q 879 1038 879 997 q 876 1069 879 1047 l 999 1079 q 1001 1050 1001 1060 q 972 940 1001 996 q 900 857 942 885 l 821 893 z "},"đ":{"ha":840,"x_min":58,"x_max":850,"o":"m 850 810 l 733 810 l 733 0 l 578 0 l 578 79 q 347 -15 481 -15 q 199 24 265 -15 q 96 135 133 63 q 58 303 58 207 q 98 469 58 399 q 208 577 138 540 q 367 614 278 614 q 488 590 431 614 q 579 524 544 565 l 579 810 l 444 810 l 444 954 l 579 954 l 579 1083 l 733 1083 l 733 954 l 850 954 l 850 810 m 397 117 q 511 150 464 117 q 578 243 558 183 l 578 368 q 512 457 561 422 q 397 492 463 492 q 307 467 349 492 q 240 401 265 443 q 215 306 215 358 q 240 210 215 253 q 307 142 265 167 q 397 117 349 117 z "},"ǳ":{"ha":1517,"x_min":58,"x_max":1444,"o":"m 733 1083 l 733 0 l 578 0 l 578 79 q 347 -15 481 -15 q 199 24 265 -15 q 96 135 133 63 q 58 303 58 207 q 98 469 58 399 q 208 577 138 540 q 367 614 278 614 q 488 590 431 614 q 579 524 544 565 l 579 1083 l 733 1083 m 397 117 q 511 150 464 117 q 578 243 558 183 l 578 368 q 512 457 561 422 q 397 492 463 492 q 307 467 349 492 q 240 401 265 443 q 215 306 215 358 q 240 210 215 253 q 307 142 265 167 q 397 117 349 117 m 1126 128 l 1440 128 l 1440 0 l 875 0 l 1193 461 l 1018 461 q 938 492 971 461 q 906 578 906 524 l 906 644 l 1022 644 l 1022 625 q 1033 594 1022 601 q 1069 588 1043 588 l 1444 588 l 1126 128 z "},"ǆ":{"ha":1517,"x_min":58,"x_max":1444,"o":"m 733 1083 l 733 0 l 578 0 l 578 79 q 347 -15 481 -15 q 199 24 265 -15 q 96 135 133 63 q 58 303 58 207 q 98 469 58 399 q 208 577 138 540 q 367 614 278 614 q 488 590 431 614 q 579 524 544 565 l 579 1083 l 733 1083 m 397 117 q 511 150 464 117 q 578 243 558 183 l 578 368 q 512 457 561 422 q 397 492 463 492 q 307 467 349 492 q 240 401 265 443 q 215 306 215 358 q 240 210 215 253 q 307 142 265 167 q 397 117 349 117 m 1126 128 l 1440 128 l 1440 0 l 875 0 l 1193 461 l 1018 461 q 938 492 971 461 q 906 578 906 524 l 906 644 l 1022 644 l 1022 625 q 1033 594 1022 601 q 1069 588 1043 588 l 1444 588 l 1126 128 m 1436 904 l 1196 660 l 1194 660 l 950 904 l 1092 904 l 1197 799 l 1294 904 l 1436 904 z "},"e":{"ha":740,"x_min":58,"x_max":694,"o":"m 390 118 q 522 164 456 118 l 593 49 q 492 2 546 19 q 388 -15 438 -15 q 212 25 286 -15 q 98 136 138 65 q 58 299 58 207 q 103 457 58 385 q 224 572 147 529 q 390 614 300 614 q 589 544 510 614 q 694 346 668 474 l 242 193 q 304 138 265 157 q 390 118 343 118 m 378 492 q 258 440 304 492 q 211 307 211 389 q 213 283 211 292 l 521 393 q 468 464 503 436 q 378 492 433 492 z "},"é":{"ha":740,"x_min":58,"x_max":694,"o":"m 390 118 q 522 164 456 118 l 593 49 q 492 2 546 19 q 388 -15 438 -15 q 212 25 286 -15 q 98 136 138 65 q 58 299 58 207 q 103 457 58 385 q 224 572 147 529 q 390 614 300 614 q 589 544 510 614 q 694 346 668 474 l 242 193 q 304 138 265 157 q 390 118 343 118 m 378 492 q 258 440 304 492 q 211 307 211 389 q 213 283 211 292 l 521 393 q 468 464 503 436 q 378 492 433 492 m 438 693 l 340 693 l 453 879 l 625 879 l 438 693 z "},"ĕ":{"ha":740,"x_min":58,"x_max":694,"o":"m 390 118 q 522 164 456 118 l 593 49 q 492 2 546 19 q 388 -15 438 -15 q 212 25 286 -15 q 98 136 138 65 q 58 299 58 207 q 103 457 58 385 q 224 572 147 529 q 390 614 300 614 q 589 544 510 614 q 694 346 668 474 l 242 193 q 304 138 265 157 q 390 118 343 118 m 378 492 q 258 440 304 492 q 211 307 211 389 q 213 283 211 292 l 521 393 q 468 464 503 436 q 378 492 433 492 m 388 674 q 168 924 206 674 l 272 924 q 388 778 296 778 q 500 924 479 778 l 606 924 q 388 674 571 674 z "},"ě":{"ha":740,"x_min":58,"x_max":694,"o":"m 390 118 q 522 164 456 118 l 593 49 q 492 2 546 19 q 388 -15 438 -15 q 212 25 286 -15 q 98 136 138 65 q 58 299 58 207 q 103 457 58 385 q 224 572 147 529 q 390 614 300 614 q 589 544 510 614 q 694 346 668 474 l 242 193 q 304 138 265 157 q 390 118 343 118 m 378 492 q 258 440 304 492 q 211 307 211 389 q 213 283 211 292 l 521 393 q 468 464 503 436 q 378 492 433 492 m 640 928 l 400 683 l 399 683 l 154 928 l 296 928 l 401 822 l 499 928 l 640 928 z "},"ê":{"ha":740,"x_min":58,"x_max":694,"o":"m 390 118 q 522 164 456 118 l 593 49 q 492 2 546 19 q 388 -15 438 -15 q 212 25 286 -15 q 98 136 138 65 q 58 299 58 207 q 103 457 58 385 q 224 572 147 529 q 390 614 300 614 q 589 544 510 614 q 694 346 668 474 l 242 193 q 304 138 265 157 q 390 118 343 118 m 378 492 q 258 440 304 492 q 211 307 211 389 q 213 283 211 292 l 521 393 q 468 464 503 436 q 378 492 433 492 m 485 700 l 381 806 l 283 700 l 140 700 l 381 944 l 382 944 l 628 700 l 485 700 z "},"ế":{"ha":740,"x_min":58,"x_max":856,"o":"m 390 118 q 522 164 456 118 l 593 49 q 492 2 546 19 q 388 -15 438 -15 q 212 25 286 -15 q 98 136 138 65 q 58 299 58 207 q 103 457 58 385 q 224 572 147 529 q 390 614 300 614 q 589 544 510 614 q 694 346 668 474 l 242 193 q 304 138 265 157 q 390 118 343 118 m 378 492 q 258 440 304 492 q 211 307 211 389 q 213 283 211 292 l 521 393 q 468 464 503 436 q 378 492 433 492 m 489 696 l 385 801 l 288 696 l 144 696 l 385 940 l 386 940 l 632 696 l 489 696 m 668 838 l 571 838 l 683 1024 l 856 1024 l 668 838 z "},"ệ":{"ha":740,"x_min":58,"x_max":694,"o":"m 390 118 q 522 164 456 118 l 593 49 q 492 2 546 19 q 388 -15 438 -15 q 212 25 286 -15 q 98 136 138 65 q 58 299 58 207 q 103 457 58 385 q 224 572 147 529 q 390 614 300 614 q 589 544 510 614 q 694 346 668 474 l 242 193 q 304 138 265 157 q 390 118 343 118 m 378 492 q 258 440 304 492 q 211 307 211 389 q 213 283 211 292 l 521 393 q 468 464 503 436 q 378 492 433 492 m 296 -144 q 320 -93 296 -114 q 375 -72 344 -72 q 426 -93 403 -72 q 450 -144 450 -114 q 427 -195 450 -175 q 375 -215 404 -215 q 320 -195 344 -215 q 296 -144 296 -175 m 485 700 l 381 806 l 283 700 l 140 700 l 381 944 l 382 944 l 628 700 l 485 700 z "},"ề":{"ha":740,"x_min":-67,"x_max":694,"o":"m 390 118 q 522 164 456 118 l 593 49 q 492 2 546 19 q 388 -15 438 -15 q 212 25 286 -15 q 98 136 138 65 q 58 299 58 207 q 103 457 58 385 q 224 572 147 529 q 390 614 300 614 q 589 544 510 614 q 694 346 668 474 l 242 193 q 304 138 265 157 q 390 118 343 118 m 378 492 q 258 440 304 492 q 211 307 211 389 q 213 283 211 292 l 521 393 q 468 464 503 436 q 378 492 433 492 m 481 694 l 376 800 l 279 694 l 136 694 l 376 939 l 378 939 l 624 694 l 481 694 m 107 1031 l 201 844 l 104 844 l -67 1031 l 107 1031 z "},"ể":{"ha":740,"x_min":58,"x_max":764,"o":"m 390 118 q 522 164 456 118 l 593 49 q 492 2 546 19 q 388 -15 438 -15 q 212 25 286 -15 q 98 136 138 65 q 58 299 58 207 q 103 457 58 385 q 224 572 147 529 q 390 614 300 614 q 589 544 510 614 q 694 346 668 474 l 242 193 q 304 138 265 157 q 390 118 343 118 m 378 492 q 258 440 304 492 q 211 307 211 389 q 213 283 211 292 l 521 393 q 468 464 503 436 q 378 492 433 492 m 485 696 l 381 801 l 283 696 l 140 696 l 381 940 l 382 940 l 628 696 l 485 696 m 617 844 q 662 884 647 867 q 676 924 676 901 q 665 959 676 946 q 632 972 653 972 q 572 931 596 972 l 515 967 q 574 1035 538 1013 q 653 1058 611 1058 q 735 1025 707 1058 q 764 944 764 992 q 735 864 764 899 q 653 799 706 829 l 617 844 z "},"ễ":{"ha":740,"x_min":58,"x_max":694,"o":"m 390 118 q 522 164 456 118 l 593 49 q 492 2 546 19 q 388 -15 438 -15 q 212 25 286 -15 q 98 136 138 65 q 58 299 58 207 q 103 457 58 385 q 224 572 147 529 q 390 614 300 614 q 589 544 510 614 q 694 346 668 474 l 242 193 q 304 138 265 157 q 390 118 343 118 m 378 492 q 258 440 304 492 q 211 307 211 389 q 213 283 211 292 l 521 393 q 468 464 503 436 q 378 492 433 492 m 478 689 l 374 794 l 276 689 l 133 689 l 374 933 l 375 933 l 621 689 l 478 689 m 488 989 q 420 1004 446 989 q 356 1051 394 1019 q 320 1078 335 1069 q 290 1088 306 1088 q 250 1059 264 1088 q 239 989 236 1031 l 156 989 q 154 1013 154 997 q 193 1140 154 1089 q 297 1192 232 1192 q 353 1176 329 1192 q 411 1131 378 1161 q 451 1097 435 1108 q 485 1086 468 1086 q 528 1190 533 1086 l 610 1189 q 613 1150 613 1161 q 576 1033 613 1078 q 488 989 540 989 z "},"ȅ":{"ha":740,"x_min":58,"x_max":694,"o":"m 390 118 q 522 164 456 118 l 593 49 q 492 2 546 19 q 388 -15 438 -15 q 212 25 286 -15 q 98 136 138 65 q 58 299 58 207 q 103 457 58 385 q 224 572 147 529 q 390 614 300 614 q 589 544 510 614 q 694 346 668 474 l 242 193 q 304 138 265 157 q 390 118 343 118 m 378 492 q 258 440 304 492 q 211 307 211 389 q 213 283 211 292 l 521 393 q 468 464 503 436 q 378 492 433 492 m 244 886 l 339 700 l 242 700 l 71 886 l 244 886 m 457 886 l 551 700 l 454 700 l 283 886 l 457 886 z "},"ë":{"ha":740,"x_min":58,"x_max":694,"o":"m 390 118 q 522 164 456 118 l 593 49 q 492 2 546 19 q 388 -15 438 -15 q 212 25 286 -15 q 98 136 138 65 q 58 299 58 207 q 103 457 58 385 q 224 572 147 529 q 390 614 300 614 q 589 544 510 614 q 694 346 668 474 l 242 193 q 304 138 265 157 q 390 118 343 118 m 378 492 q 258 440 304 492 q 211 307 211 389 q 213 283 211 292 l 521 393 q 468 464 503 436 q 378 492 433 492 m 167 764 q 192 824 167 800 q 251 849 218 849 q 308 824 282 849 q 333 764 333 799 q 308 703 333 728 q 251 679 282 679 q 192 703 218 679 q 167 764 167 728 m 433 764 q 459 824 433 800 q 518 849 485 849 q 574 824 549 849 q 600 764 600 799 q 574 703 600 728 q 518 679 549 679 q 459 703 485 679 q 433 764 433 728 z "},"ė":{"ha":740,"x_min":58,"x_max":694,"o":"m 390 118 q 522 164 456 118 l 593 49 q 492 2 546 19 q 388 -15 438 -15 q 212 25 286 -15 q 98 136 138 65 q 58 299 58 207 q 103 457 58 385 q 224 572 147 529 q 390 614 300 614 q 589 544 510 614 q 694 346 668 474 l 242 193 q 304 138 265 157 q 390 118 343 118 m 378 492 q 258 440 304 492 q 211 307 211 389 q 213 283 211 292 l 521 393 q 468 464 503 436 q 378 492 433 492 m 297 821 q 325 880 297 856 q 388 904 353 904 q 448 880 421 904 q 475 821 475 856 q 448 763 475 786 q 388 739 421 739 q 325 763 353 739 q 297 821 297 786 z "},"ẹ":{"ha":740,"x_min":58,"x_max":694,"o":"m 390 118 q 522 164 456 118 l 593 49 q 492 2 546 19 q 388 -15 438 -15 q 212 25 286 -15 q 98 136 138 65 q 58 299 58 207 q 103 457 58 385 q 224 572 147 529 q 390 614 300 614 q 589 544 510 614 q 694 346 668 474 l 242 193 q 304 138 265 157 q 390 118 343 118 m 378 492 q 258 440 304 492 q 211 307 211 389 q 213 283 211 292 l 521 393 q 468 464 503 436 q 378 492 433 492 m 296 -144 q 320 -93 296 -114 q 375 -72 344 -72 q 426 -93 403 -72 q 450 -144 450 -114 q 427 -195 450 -175 q 375 -215 404 -215 q 320 -195 344 -215 q 296 -144 296 -175 z "},"è":{"ha":740,"x_min":58,"x_max":694,"o":"m 390 118 q 522 164 456 118 l 593 49 q 492 2 546 19 q 388 -15 438 -15 q 212 25 286 -15 q 98 136 138 65 q 58 299 58 207 q 103 457 58 385 q 224 572 147 529 q 390 614 300 614 q 589 544 510 614 q 694 346 668 474 l 242 193 q 304 138 265 157 q 390 118 343 118 m 378 492 q 258 440 304 492 q 211 307 211 389 q 213 283 211 292 l 521 393 q 468 464 503 436 q 378 492 433 492 m 339 886 l 433 700 l 336 700 l 165 886 l 339 886 z "},"ẻ":{"ha":740,"x_min":58,"x_max":694,"o":"m 390 118 q 522 164 456 118 l 593 49 q 492 2 546 19 q 388 -15 438 -15 q 212 25 286 -15 q 98 136 138 65 q 58 299 58 207 q 103 457 58 385 q 224 572 147 529 q 390 614 300 614 q 589 544 510 614 q 694 346 668 474 l 242 193 q 304 138 265 157 q 390 118 343 118 m 378 492 q 258 440 304 492 q 211 307 211 389 q 213 283 211 292 l 521 393 q 468 464 503 436 q 378 492 433 492 m 351 721 q 397 760 382 743 q 411 800 411 778 q 399 835 411 822 q 367 849 388 849 q 307 807 331 849 l 250 843 q 309 912 272 889 q 388 935 346 935 q 470 901 442 935 q 499 821 499 868 q 469 740 499 775 q 388 675 440 706 l 351 721 z "},"ȇ":{"ha":740,"x_min":58,"x_max":694,"o":"m 390 118 q 522 164 456 118 l 593 49 q 492 2 546 19 q 388 -15 438 -15 q 212 25 286 -15 q 98 136 138 65 q 58 299 58 207 q 103 457 58 385 q 224 572 147 529 q 390 614 300 614 q 589 544 510 614 q 694 346 668 474 l 242 193 q 304 138 265 157 q 390 118 343 118 m 378 492 q 258 440 304 492 q 211 307 211 389 q 213 283 211 292 l 521 393 q 468 464 503 436 q 378 492 433 492 m 390 917 q 610 667 572 917 l 506 667 q 390 813 482 813 q 278 667 299 813 l 172 667 q 390 917 207 917 z "},"ē":{"ha":740,"x_min":58,"x_max":694,"o":"m 390 118 q 522 164 456 118 l 593 49 q 492 2 546 19 q 388 -15 438 -15 q 212 25 286 -15 q 98 136 138 65 q 58 299 58 207 q 103 457 58 385 q 224 572 147 529 q 390 614 300 614 q 589 544 510 614 q 694 346 668 474 l 242 193 q 304 138 265 157 q 390 118 343 118 m 378 492 q 258 440 304 492 q 211 307 211 389 q 213 283 211 292 l 521 393 q 468 464 503 436 q 378 492 433 492 m 558 790 l 558 681 l 213 681 l 213 790 l 558 790 z "},"ę":{"ha":744,"x_min":63,"x_max":699,"o":"m 467 -197 q 560 -136 519 -197 l 617 -218 q 543 -283 590 -257 q 453 -308 496 -308 q 317 -263 368 -308 q 265 -143 265 -218 q 283 -72 265 -107 q 332 -11 300 -37 q 134 90 206 6 q 63 299 63 174 q 107 457 63 385 q 228 572 151 529 q 394 614 304 614 q 594 544 515 614 q 699 346 672 474 l 247 193 q 309 138 271 157 q 394 118 347 118 q 526 164 460 118 l 597 49 q 522 11 572 33 q 425 -46 456 -19 q 394 -119 394 -72 q 417 -176 394 -154 q 467 -197 439 -197 m 383 492 q 262 440 308 492 q 215 307 215 389 q 217 282 215 290 l 525 392 q 383 492 488 492 z "},"ẽ":{"ha":740,"x_min":58,"x_max":694,"o":"m 390 118 q 522 164 456 118 l 593 49 q 492 2 546 19 q 388 -15 438 -15 q 212 25 286 -15 q 98 136 138 65 q 58 299 58 207 q 103 457 58 385 q 224 572 147 529 q 390 614 300 614 q 589 544 510 614 q 694 346 668 474 l 242 193 q 304 138 265 157 q 390 118 343 118 m 378 492 q 258 440 304 492 q 211 307 211 389 q 213 283 211 292 l 521 393 q 468 464 503 436 q 378 492 433 492 m 496 667 q 428 682 454 667 q 364 729 403 697 q 328 756 343 747 q 299 765 314 765 q 258 737 272 765 q 247 667 244 708 l 164 667 q 163 690 163 675 q 201 818 163 767 q 306 869 240 869 q 362 854 338 869 q 419 808 386 839 q 460 775 443 786 q 493 764 476 764 q 536 868 542 764 l 618 867 q 621 828 621 839 q 585 711 621 756 q 496 667 549 667 z "},"ə":{"ha":740,"x_min":46,"x_max":682,"o":"m 353 603 q 528 563 454 603 q 642 451 603 522 q 682 289 682 381 q 638 131 682 203 q 517 16 593 58 q 350 -26 440 -26 q 151 44 231 -26 q 46 242 72 114 l 499 394 q 436 450 475 431 q 350 469 397 469 q 218 424 285 469 l 147 539 q 249 585 194 568 q 353 603 303 603 m 363 96 q 483 147 436 96 q 529 281 529 199 q 528 304 529 296 l 219 194 q 272 124 238 151 q 363 96 307 96 z "},"f":{"ha":558,"x_min":58,"x_max":544,"o":"m 158 451 l 58 451 l 58 589 l 158 589 l 158 819 q 221 1013 158 943 q 400 1082 283 1082 q 475 1072 435 1082 q 544 1042 515 1061 l 479 929 q 417 954 456 954 q 314 815 314 954 l 314 589 l 497 589 l 497 451 l 314 451 l 314 0 l 158 0 l 158 451 z "},"g":{"ha":850,"x_min":58,"x_max":743,"o":"m 743 588 l 743 -3 q 699 -151 743 -85 q 577 -255 656 -217 q 400 -293 499 -293 q 240 -263 304 -293 q 111 -176 176 -233 l 203 -69 q 293 -134 247 -111 q 397 -157 339 -157 q 535 -115 483 -157 q 588 0 586 -72 l 588 99 q 497 16 557 47 q 356 -15 436 -15 q 207 26 275 -15 q 99 138 139 67 q 58 297 58 210 q 101 459 58 386 q 213 573 143 532 q 363 614 283 614 q 497 588 436 614 q 588 521 557 563 l 600 588 l 743 588 m 401 113 q 519 146 469 113 q 588 236 568 179 l 588 364 q 518 453 568 419 q 401 486 468 486 q 269 434 322 486 q 215 301 215 382 q 240 206 215 249 q 308 138 265 163 q 401 113 350 113 z "},"ğ":{"ha":850,"x_min":58,"x_max":743,"o":"m 743 588 l 743 -3 q 699 -151 743 -85 q 577 -255 656 -217 q 400 -293 499 -293 q 240 -263 304 -293 q 111 -176 176 -233 l 203 -69 q 293 -134 247 -111 q 397 -157 339 -157 q 535 -115 483 -157 q 588 0 586 -72 l 588 99 q 497 16 557 47 q 356 -15 436 -15 q 207 26 275 -15 q 99 138 139 67 q 58 297 58 210 q 101 459 58 386 q 213 573 143 532 q 363 614 283 614 q 497 588 436 614 q 588 521 557 563 l 600 588 l 743 588 m 401 113 q 519 146 469 113 q 588 236 568 179 l 588 364 q 518 453 568 419 q 401 486 468 486 q 269 434 322 486 q 215 301 215 382 q 240 206 215 249 q 308 138 265 163 q 401 113 350 113 m 428 672 q 208 922 246 672 l 313 922 q 428 776 336 776 q 540 922 519 776 l 646 922 q 428 672 611 672 z "},"ǧ":{"ha":850,"x_min":58,"x_max":743,"o":"m 743 588 l 743 -3 q 699 -151 743 -85 q 577 -255 656 -217 q 400 -293 499 -293 q 240 -263 304 -293 q 111 -176 176 -233 l 203 -69 q 293 -134 247 -111 q 397 -157 339 -157 q 535 -115 483 -157 q 588 0 586 -72 l 588 99 q 497 16 557 47 q 356 -15 436 -15 q 207 26 275 -15 q 99 138 139 67 q 58 297 58 210 q 101 459 58 386 q 213 573 143 532 q 363 614 283 614 q 497 588 436 614 q 588 521 557 563 l 600 588 l 743 588 m 401 113 q 519 146 469 113 q 588 236 568 179 l 588 364 q 518 453 568 419 q 401 486 468 486 q 269 434 322 486 q 215 301 215 382 q 240 206 215 249 q 308 138 265 163 q 401 113 350 113 m 681 926 l 440 682 l 439 682 l 194 926 l 336 926 l 442 821 l 539 926 l 681 926 z "},"ĝ":{"ha":850,"x_min":58,"x_max":743,"o":"m 743 588 l 743 -3 q 699 -151 743 -85 q 577 -255 656 -217 q 400 -293 499 -293 q 240 -263 304 -293 q 111 -176 176 -233 l 203 -69 q 293 -134 247 -111 q 397 -157 339 -157 q 535 -115 483 -157 q 588 0 586 -72 l 588 99 q 497 16 557 47 q 356 -15 436 -15 q 207 26 275 -15 q 99 138 139 67 q 58 297 58 210 q 101 459 58 386 q 213 573 143 532 q 363 614 283 614 q 497 588 436 614 q 588 521 557 563 l 600 588 l 743 588 m 401 113 q 519 146 469 113 q 588 236 568 179 l 588 364 q 518 453 568 419 q 401 486 468 486 q 269 434 322 486 q 215 301 215 382 q 240 206 215 249 q 308 138 265 163 q 401 113 350 113 m 525 699 l 421 804 l 324 699 l 181 699 l 421 943 l 422 943 l 668 699 l 525 699 z "},"ģ":{"ha":806,"x_min":58,"x_max":743,"o":"m 528 899 q 456 704 465 731 l 317 704 l 439 996 l 564 996 l 528 899 m 743 588 l 743 -3 q 699 -151 743 -85 q 577 -255 656 -217 q 400 -293 499 -293 q 240 -263 304 -293 q 111 -176 176 -233 l 203 -69 q 293 -134 247 -111 q 397 -157 339 -157 q 535 -115 483 -157 q 588 0 586 -72 l 588 99 q 497 16 557 47 q 356 -15 436 -15 q 207 26 275 -15 q 99 138 139 67 q 58 297 58 210 q 101 459 58 386 q 213 573 143 532 q 363 614 283 614 q 497 588 436 614 q 588 521 557 563 l 600 588 l 743 588 m 401 113 q 519 146 469 113 q 588 236 568 179 l 588 364 q 518 453 568 419 q 401 486 468 486 q 269 434 322 486 q 215 301 215 382 q 240 206 215 249 q 308 138 265 163 q 401 113 350 113 z "},"ġ":{"ha":850,"x_min":58,"x_max":743,"o":"m 743 588 l 743 -3 q 699 -151 743 -85 q 577 -255 656 -217 q 400 -293 499 -293 q 240 -263 304 -293 q 111 -176 176 -233 l 203 -69 q 293 -134 247 -111 q 397 -157 339 -157 q 535 -115 483 -157 q 588 0 586 -72 l 588 99 q 497 16 557 47 q 356 -15 436 -15 q 207 26 275 -15 q 99 138 139 67 q 58 297 58 210 q 101 459 58 386 q 213 573 143 532 q 363 614 283 614 q 497 588 436 614 q 588 521 557 563 l 600 588 l 743 588 m 401 113 q 519 146 469 113 q 588 236 568 179 l 588 364 q 518 453 568 419 q 401 486 468 486 q 269 434 322 486 q 215 301 215 382 q 240 206 215 249 q 308 138 265 163 q 401 113 350 113 m 338 819 q 365 878 338 854 q 428 903 393 903 q 488 878 461 903 q 515 819 515 854 q 488 761 515 785 q 428 738 461 738 q 365 761 393 738 q 338 819 338 785 z "},"h":{"ha":790,"x_min":107,"x_max":683,"o":"m 490 613 q 627 563 572 613 q 683 436 682 514 l 683 0 l 528 0 l 528 381 q 501 453 525 426 q 428 481 476 479 q 309 418 356 481 q 263 261 263 356 l 263 0 l 107 0 l 107 1083 l 260 1083 l 260 488 q 352 578 293 544 q 490 613 411 613 z "},"ħ":{"ha":790,"x_min":-8,"x_max":683,"o":"m 490 613 q 627 563 572 613 q 683 436 682 514 l 683 0 l 528 0 l 528 381 q 501 453 525 426 q 428 481 476 479 q 309 418 356 481 q 263 261 263 356 l 263 0 l 107 0 l 107 772 l -8 772 l -8 917 l 107 917 l 107 1083 l 260 1083 l 260 917 l 397 917 l 397 772 l 260 772 l 260 488 q 352 578 293 544 q 490 613 411 613 z "},"ĥ":{"ha":790,"x_min":-71,"x_max":683,"o":"m 490 613 q 627 563 572 613 q 683 436 682 514 l 683 0 l 528 0 l 528 381 q 501 453 525 426 q 428 481 476 479 q 309 418 356 481 q 263 261 263 356 l 263 0 l 107 0 l 107 1083 l 260 1083 l 260 488 q 352 578 293 544 q 490 613 411 613 m 274 1143 l 169 1249 l 72 1143 l -71 1143 l 169 1388 l 171 1388 l 417 1143 l 274 1143 z "},"i":{"ha":369,"x_min":100,"x_max":278,"o":"m 263 588 l 263 0 l 107 0 l 107 588 l 263 588 m 100 797 q 128 856 100 832 q 190 881 156 881 q 251 856 224 881 q 278 797 278 832 q 251 739 278 763 q 190 715 224 715 q 128 739 156 715 q 100 797 100 763 z "},"ı":{"ha":369,"x_min":107,"x_max":263,"o":"m 263 588 l 263 0 l 107 0 l 107 588 l 263 588 z "},"í":{"ha":369,"x_min":107,"x_max":428,"o":"m 263 588 l 263 0 l 107 0 l 107 588 l 263 588 m 240 669 l 143 669 l 256 856 l 428 856 l 240 669 z "},"ĭ":{"ha":369,"x_min":-29,"x_max":408,"o":"m 263 588 l 263 0 l 107 0 l 107 588 l 263 588 m 190 650 q -29 900 8 650 l 75 900 q 190 754 99 754 q 303 900 282 754 l 408 900 q 190 650 374 650 z "},"î":{"ha":369,"x_min":-57,"x_max":431,"o":"m 263 588 l 263 0 l 107 0 l 107 588 l 263 588 m 288 676 l 183 782 l 86 676 l -57 676 l 183 921 l 185 921 l 431 676 l 288 676 z "},"ȉ":{"ha":369,"x_min":-126,"x_max":354,"o":"m 263 588 l 263 0 l 107 0 l 107 588 l 263 588 m 47 863 l 142 676 l 44 676 l -126 863 l 47 863 m 260 863 l 354 676 l 257 676 l 86 863 l 260 863 z "},"ï":{"ha":369,"x_min":-31,"x_max":403,"o":"m 263 588 l 263 0 l 107 0 l 107 588 l 263 588 m -31 740 q -5 801 -31 776 q 54 825 21 825 q 110 800 85 825 q 136 740 136 775 q 110 680 136 704 q 54 656 85 656 q -5 680 21 656 q -31 740 -31 704 m 236 740 q 262 801 236 776 q 321 825 288 825 q 377 800 351 825 q 403 740 403 775 q 377 680 403 704 q 321 656 351 656 q 262 680 288 656 q 236 740 236 704 z "},"ị":{"ha":369,"x_min":100,"x_max":278,"o":"m 263 588 l 263 0 l 107 0 l 107 588 l 263 588 m 100 797 q 128 856 100 832 q 190 881 156 881 q 251 856 224 881 q 278 797 278 832 q 251 739 278 763 q 190 715 224 715 q 128 739 156 715 q 100 797 100 763 m 108 -144 q 133 -93 108 -114 q 188 -72 157 -72 q 239 -93 215 -72 q 263 -144 263 -114 q 240 -195 263 -175 q 188 -215 217 -215 q 133 -195 157 -215 q 108 -144 108 -175 z "},"ì":{"ha":369,"x_min":-32,"x_max":263,"o":"m 263 588 l 263 0 l 107 0 l 107 588 l 263 588 m 142 863 l 236 676 l 139 676 l -32 863 l 142 863 z "},"ỉ":{"ha":369,"x_min":53,"x_max":301,"o":"m 263 588 l 263 0 l 107 0 l 107 588 l 263 588 m 154 697 q 199 737 185 719 q 214 776 214 754 q 202 812 214 799 q 169 825 190 825 q 110 783 133 825 l 53 819 q 112 888 75 865 q 190 911 149 911 q 273 878 244 911 q 301 797 301 844 q 272 717 301 751 q 190 651 243 682 l 154 697 z "},"ȋ":{"ha":369,"x_min":-25,"x_max":413,"o":"m 263 588 l 263 0 l 107 0 l 107 588 l 263 588 m 193 893 q 413 643 375 893 l 308 643 q 193 789 285 789 q 81 643 101 789 l -25 643 q 193 893 10 893 z "},"ĳ":{"ha":732,"x_min":100,"x_max":631,"o":"m 263 588 l 263 0 l 107 0 l 107 588 l 263 588 m 100 797 q 128 856 100 832 q 190 881 156 881 q 251 856 224 881 q 278 797 278 832 q 251 739 278 763 q 190 715 224 715 q 128 739 156 715 q 100 797 100 763 m 378 -187 q 463 6 463 -118 l 463 588 l 618 588 l 618 -3 q 583 -174 618 -107 q 468 -283 547 -242 l 378 -187 m 453 797 q 481 856 453 832 q 543 881 508 881 q 603 856 576 881 q 631 797 631 832 q 603 739 631 763 q 543 715 576 715 q 481 739 508 715 q 453 797 453 763 z "},"ī":{"ha":369,"x_min":15,"x_max":361,"o":"m 263 588 l 263 0 l 107 0 l 107 588 l 263 588 m 361 767 l 361 657 l 15 657 l 15 767 l 361 767 z "},"į":{"ha":376,"x_min":-4,"x_max":343,"o":"m 188 710 q 125 733 153 710 q 97 792 97 757 q 125 851 97 826 q 188 875 153 875 q 248 851 221 875 q 275 792 275 826 q 248 733 275 757 q 188 710 221 710 m 343 -211 q 268 -281 317 -253 q 175 -308 219 -308 q 47 -263 99 -308 q -4 -146 -4 -218 q 26 -58 -4 -100 q 107 8 56 -17 l 107 588 l 263 588 l 263 1 l 265 0 q 159 -62 193 -32 q 125 -133 125 -92 q 143 -182 125 -167 q 189 -197 161 -197 q 286 -131 243 -197 l 343 -211 z "},"ĩ":{"ha":369,"x_min":-36,"x_max":422,"o":"m 263 588 l 263 0 l 107 0 l 107 588 l 263 588 m 297 643 q 230 658 256 643 q 165 706 204 674 q 130 733 144 724 q 100 742 115 742 q 60 713 74 742 q 49 643 46 685 l -35 643 q -36 667 -36 651 q 3 794 -36 743 q 107 846 42 846 q 163 831 139 846 q 221 785 188 815 q 261 751 244 763 q 294 740 278 740 q 338 844 343 740 l 419 843 q 422 804 422 815 q 386 688 422 732 q 297 643 350 643 z "},"j":{"ha":381,"x_min":38,"x_max":290,"o":"m 38 -187 q 122 6 122 -118 l 122 588 l 278 588 l 278 -3 q 242 -174 278 -107 q 128 -283 207 -242 l 38 -187 m 113 797 q 140 856 113 832 q 203 881 168 881 q 263 856 236 881 q 290 797 290 832 q 263 739 290 763 q 203 715 236 715 q 140 739 168 715 q 113 797 113 763 z "},"ȷ":{"ha":381,"x_min":38,"x_max":278,"o":"m 38 -187 q 122 6 122 -118 l 122 588 l 278 588 l 278 -3 q 242 -174 278 -107 q 128 -283 207 -242 l 38 -187 z "},"ĵ":{"ha":381,"x_min":-44,"x_max":443,"o":"m 38 -187 q 122 6 122 -118 l 122 588 l 278 588 l 278 -3 q 242 -174 278 -107 q 128 -283 207 -242 l 38 -187 m 300 676 l 196 782 l 99 676 l -44 676 l 196 921 l 197 921 l 443 676 l 300 676 z "},"k":{"ha":719,"x_min":107,"x_max":676,"o":"m 331 267 l 263 214 l 263 0 l 107 0 l 107 1083 l 263 1083 l 263 375 l 557 601 l 651 518 l 438 351 l 676 0 l 496 0 l 331 267 z "},"ķ":{"ha":719,"x_min":107,"x_max":676,"o":"m 331 267 l 263 214 l 263 0 l 107 0 l 107 1083 l 263 1083 l 263 375 l 557 601 l 651 518 l 438 351 l 676 0 l 496 0 l 331 267 m 239 -233 q 278 -169 264 -210 q 293 -85 293 -129 q 290 -46 293 -71 l 426 -47 q 429 -78 429 -67 q 399 -196 429 -136 q 318 -287 369 -256 l 239 -233 z "},"ĸ":{"ha":735,"x_min":107,"x_max":678,"o":"m 414 329 l 676 0 l 496 0 l 315 232 l 263 181 l 263 0 l 107 0 l 107 588 l 263 588 l 263 344 l 490 588 l 678 588 l 414 329 z "},"l":{"ha":369,"x_min":107,"x_max":263,"o":"m 263 1083 l 263 0 l 107 0 l 107 1083 l 263 1083 z "},"ĺ":{"ha":369,"x_min":107,"x_max":419,"o":"m 263 1083 l 263 0 l 107 0 l 107 1083 l 263 1083 m 232 1146 l 135 1146 l 247 1332 l 419 1332 l 232 1146 z "},"ľ":{"ha":536,"x_min":107,"x_max":536,"o":"m 263 1083 l 263 0 l 107 0 l 107 1083 l 263 1083 m 356 882 q 397 947 381 907 q 414 1026 414 986 q 411 1058 414 1036 l 533 1068 q 536 1039 536 1049 q 506 929 536 985 q 435 846 476 874 l 356 882 z "},"ļ":{"ha":369,"x_min":64,"x_max":263,"o":"m 263 1083 l 263 0 l 107 0 l 107 1083 l 263 1083 m 64 -233 q 103 -169 89 -210 q 118 -85 118 -129 q 115 -46 118 -71 l 251 -47 q 254 -78 254 -67 q 224 -196 254 -136 q 143 -287 194 -256 l 64 -233 z "},"ŀ":{"ha":511,"x_min":107,"x_max":525,"o":"m 263 1083 l 263 0 l 107 0 l 107 1083 l 263 1083 m 358 454 q 384 514 358 489 q 443 539 410 539 q 499 514 474 539 q 525 454 525 489 q 499 394 525 418 q 443 369 474 369 q 384 393 410 369 q 358 454 358 417 z "},"ǉ":{"ha":750,"x_min":107,"x_max":660,"o":"m 263 1083 l 263 0 l 107 0 l 107 1083 l 263 1083 m 407 -187 q 492 6 492 -118 l 492 588 l 647 588 l 647 -3 q 612 -174 647 -107 q 497 -283 576 -242 l 407 -187 m 482 797 q 510 856 482 832 q 572 881 538 881 q 633 856 606 881 q 660 797 660 832 q 633 739 660 763 q 572 715 606 715 q 510 739 538 715 q 482 797 482 763 z "},"ł":{"ha":397,"x_min":25,"x_max":379,"o":"m 379 419 l 274 393 l 274 0 l 118 0 l 118 353 l 25 329 l 25 464 l 118 488 l 118 1083 l 274 1083 l 274 528 l 379 554 l 379 419 z "},"m":{"ha":1167,"x_min":107,"x_max":1060,"o":"m 869 614 q 1006 565 956 614 q 1060 438 1057 517 l 1060 0 l 906 0 l 906 378 q 885 451 903 425 q 825 479 867 476 q 708 415 753 479 q 663 264 664 350 l 663 0 l 506 0 l 506 378 q 484 450 503 424 q 422 479 465 476 q 339 449 375 479 q 283 368 303 418 q 263 264 263 318 l 263 0 l 107 0 l 107 588 l 247 588 l 260 485 q 350 581 293 547 q 481 614 407 614 q 599 583 551 614 q 663 493 647 551 q 754 582 699 550 q 869 614 810 614 z "},"n":{"ha":790,"x_min":107,"x_max":683,"o":"m 490 613 q 627 563 572 613 q 683 436 682 514 l 683 0 l 528 0 l 528 381 q 501 453 525 426 q 428 481 476 479 q 309 419 356 481 q 263 261 263 357 l 263 0 l 107 0 l 107 588 l 247 588 l 258 483 q 351 578 290 544 q 490 613 411 613 z "},"ń":{"ha":790,"x_min":107,"x_max":683,"o":"m 490 613 q 627 563 572 613 q 683 436 682 514 l 683 0 l 528 0 l 528 381 q 501 453 525 426 q 428 481 476 479 q 309 419 356 481 q 263 261 263 357 l 263 0 l 107 0 l 107 588 l 247 588 l 258 483 q 351 578 290 544 q 490 613 411 613 m 449 681 l 351 681 l 464 867 l 636 867 l 449 681 z "},"ŉ":{"ha":817,"x_min":-76,"x_max":708,"o":"m -76 631 q -37 694 -51 654 q -22 779 -22 735 q -25 818 -22 793 l 111 817 q 114 786 114 797 q 84 668 114 728 q 3 576 54 608 l -76 631 m 515 613 q 652 563 597 613 q 708 436 707 514 l 708 0 l 553 0 l 553 381 q 526 453 550 426 q 453 481 501 479 q 334 419 381 481 q 288 261 288 357 l 288 0 l 132 0 l 132 588 l 272 588 l 283 483 q 376 578 315 544 q 515 613 436 613 z "},"ň":{"ha":790,"x_min":107,"x_max":683,"o":"m 490 613 q 627 563 572 613 q 683 436 682 514 l 683 0 l 528 0 l 528 381 q 501 453 525 426 q 428 481 476 479 q 309 419 356 481 q 263 261 263 357 l 263 0 l 107 0 l 107 588 l 247 588 l 258 483 q 351 578 290 544 q 490 613 411 613 m 651 915 l 411 671 l 410 671 l 165 915 l 307 915 l 413 810 l 510 915 l 651 915 z "},"ņ":{"ha":790,"x_min":107,"x_max":683,"o":"m 490 613 q 627 563 572 613 q 683 436 682 514 l 683 0 l 528 0 l 528 381 q 501 453 525 426 q 428 481 476 479 q 309 419 356 481 q 263 261 263 357 l 263 0 l 107 0 l 107 588 l 247 588 l 258 483 q 351 578 290 544 q 490 613 411 613 m 276 -233 q 316 -169 301 -210 q 331 -85 331 -129 q 328 -46 331 -71 l 464 -47 q 467 -78 467 -67 q 437 -196 467 -136 q 356 -287 407 -256 l 276 -233 z "},"ŋ":{"ha":790,"x_min":107,"x_max":683,"o":"m 683 6 q 647 -165 683 -92 q 535 -283 610 -239 l 444 -187 q 528 6 528 -119 l 528 381 q 501 453 525 426 q 428 481 476 479 q 309 419 356 481 q 263 261 263 357 l 263 0 l 107 0 l 107 588 l 247 588 l 260 478 q 349 576 290 540 q 490 613 408 613 q 627 563 572 613 q 683 436 682 514 l 683 6 z "},"ɲ":{"ha":790,"x_min":26,"x_max":683,"o":"m 490 613 q 627 563 572 613 q 683 436 682 514 l 683 0 l 528 0 l 528 381 q 501 453 525 426 q 428 481 476 479 q 309 419 356 481 q 263 261 263 357 l 263 58 l 267 58 l 267 -3 q 227 -167 267 -96 q 117 -283 188 -237 l 26 -187 q 111 0 110 -122 l 107 0 l 107 588 l 247 588 l 258 483 q 351 578 290 544 q 490 613 411 613 z "},"ǌ":{"ha":1157,"x_min":107,"x_max":1056,"o":"m 490 613 q 627 563 572 613 q 683 436 682 514 l 683 0 l 528 0 l 528 381 q 501 453 525 426 q 428 481 476 479 q 309 419 356 481 q 263 261 263 357 l 263 0 l 107 0 l 107 588 l 247 588 l 258 483 q 351 578 290 544 q 490 613 411 613 m 803 -187 q 888 6 888 -118 l 888 588 l 1043 588 l 1043 -3 q 1008 -174 1043 -107 q 893 -283 972 -242 l 803 -187 m 878 797 q 906 856 878 832 q 968 881 933 881 q 1028 856 1001 881 q 1056 797 1056 832 q 1028 739 1056 763 q 968 715 1001 715 q 906 739 933 715 q 878 797 878 763 z "},"ñ":{"ha":790,"x_min":107,"x_max":683,"o":"m 490 613 q 627 563 572 613 q 683 436 682 514 l 683 0 l 528 0 l 528 381 q 501 453 525 426 q 428 481 476 479 q 309 419 356 481 q 263 261 263 357 l 263 0 l 107 0 l 107 588 l 247 588 l 258 483 q 351 578 290 544 q 490 613 411 613 m 507 654 q 440 669 465 654 q 375 717 414 685 q 340 744 354 735 q 310 753 325 753 q 269 724 283 753 q 258 654 256 696 l 175 654 q 174 678 174 663 q 213 806 174 754 q 317 857 251 857 q 373 842 349 857 q 431 796 397 826 q 471 763 454 774 q 504 751 488 751 q 547 856 553 751 l 629 854 q 632 815 632 826 q 596 699 632 743 q 507 654 560 654 z "},"o":{"ha":771,"x_min":58,"x_max":714,"o":"m 58 300 q 101 460 58 388 q 218 573 143 532 q 389 614 293 614 q 559 573 485 614 q 674 460 633 532 q 714 300 714 389 q 674 140 714 211 q 559 26 633 68 q 388 -15 485 -15 q 218 23 293 -15 q 101 133 143 61 q 58 300 58 204 m 215 299 q 264 166 215 219 q 385 113 313 113 q 508 165 460 113 q 556 299 556 218 q 508 433 556 379 q 385 486 460 486 q 264 431 313 486 q 215 299 215 376 z "},"ó":{"ha":771,"x_min":58,"x_max":714,"o":"m 58 300 q 101 460 58 388 q 218 573 143 532 q 389 614 293 614 q 559 573 485 614 q 674 460 633 532 q 714 300 714 389 q 674 140 714 211 q 559 26 633 68 q 388 -15 485 -15 q 218 23 293 -15 q 101 133 143 61 q 58 300 58 204 m 215 299 q 264 166 215 219 q 385 113 313 113 q 508 165 460 113 q 556 299 556 218 q 508 433 556 379 q 385 486 460 486 q 264 431 313 486 q 215 299 215 376 m 439 692 l 342 692 l 454 878 l 626 878 l 439 692 z "},"ŏ":{"ha":771,"x_min":58,"x_max":714,"o":"m 58 300 q 101 460 58 388 q 218 573 143 532 q 389 614 293 614 q 559 573 485 614 q 674 460 633 532 q 714 300 714 389 q 674 140 714 211 q 559 26 633 68 q 388 -15 485 -15 q 218 23 293 -15 q 101 133 143 61 q 58 300 58 204 m 215 299 q 264 166 215 219 q 385 113 313 113 q 508 165 460 113 q 556 299 556 218 q 508 433 556 379 q 385 486 460 486 q 264 431 313 486 q 215 299 215 376 m 389 672 q 169 922 207 672 l 274 922 q 389 776 297 776 q 501 922 481 776 l 607 922 q 389 672 572 672 z "},"ô":{"ha":771,"x_min":58,"x_max":714,"o":"m 58 300 q 101 460 58 388 q 218 573 143 532 q 389 614 293 614 q 559 573 485 614 q 674 460 633 532 q 714 300 714 389 q 674 140 714 211 q 559 26 633 68 q 388 -15 485 -15 q 218 23 293 -15 q 101 133 143 61 q 58 300 58 204 m 215 299 q 264 166 215 219 q 385 113 313 113 q 508 165 460 113 q 556 299 556 218 q 508 433 556 379 q 385 486 460 486 q 264 431 313 486 q 215 299 215 376 m 486 699 l 382 804 l 285 699 l 142 699 l 382 943 l 383 943 l 629 699 l 486 699 z "},"ố":{"ha":771,"x_min":58,"x_max":857,"o":"m 58 300 q 101 460 58 388 q 218 573 143 532 q 389 614 293 614 q 559 573 485 614 q 674 460 633 532 q 714 300 714 389 q 674 140 714 211 q 559 26 633 68 q 388 -15 485 -15 q 218 23 293 -15 q 101 133 143 61 q 58 300 58 204 m 215 299 q 264 166 215 219 q 385 113 313 113 q 508 165 460 113 q 556 299 556 218 q 508 433 556 379 q 385 486 460 486 q 264 431 313 486 q 215 299 215 376 m 490 694 l 386 800 l 289 694 l 146 694 l 386 939 l 388 939 l 633 694 l 490 694 m 669 836 l 572 836 l 685 1022 l 857 1022 l 669 836 z "},"ộ":{"ha":771,"x_min":58,"x_max":714,"o":"m 58 300 q 101 460 58 388 q 218 573 143 532 q 389 614 293 614 q 559 573 485 614 q 674 460 633 532 q 714 300 714 389 q 674 140 714 211 q 559 26 633 68 q 388 -15 485 -15 q 218 23 293 -15 q 101 133 143 61 q 58 300 58 204 m 215 299 q 264 166 215 219 q 385 113 313 113 q 508 165 460 113 q 556 299 556 218 q 508 433 556 379 q 385 486 460 486 q 264 431 313 486 q 215 299 215 376 m 310 -144 q 334 -93 310 -114 q 389 -72 358 -72 q 440 -93 417 -72 q 464 -144 464 -114 q 441 -195 464 -175 q 389 -215 418 -215 q 334 -195 358 -215 q 310 -144 310 -175 m 486 699 l 382 804 l 285 699 l 142 699 l 382 943 l 383 943 l 629 699 l 486 699 z "},"ồ":{"ha":771,"x_min":-65,"x_max":714,"o":"m 58 300 q 101 460 58 388 q 218 573 143 532 q 389 614 293 614 q 559 573 485 614 q 674 460 633 532 q 714 300 714 389 q 674 140 714 211 q 559 26 633 68 q 388 -15 485 -15 q 218 23 293 -15 q 101 133 143 61 q 58 300 58 204 m 215 299 q 264 166 215 219 q 385 113 313 113 q 508 165 460 113 q 556 299 556 218 q 508 433 556 379 q 385 486 460 486 q 264 431 313 486 q 215 299 215 376 m 482 693 l 378 799 l 281 693 l 138 693 l 378 938 l 379 938 l 625 693 l 482 693 m 108 1029 l 203 843 l 106 843 l -65 1029 l 108 1029 z "},"ổ":{"ha":771,"x_min":58,"x_max":765,"o":"m 58 300 q 101 460 58 388 q 218 573 143 532 q 389 614 293 614 q 559 573 485 614 q 674 460 633 532 q 714 300 714 389 q 674 140 714 211 q 559 26 633 68 q 388 -15 485 -15 q 218 23 293 -15 q 101 133 143 61 q 58 300 58 204 m 215 299 q 264 166 215 219 q 385 113 313 113 q 508 165 460 113 q 556 299 556 218 q 508 433 556 379 q 385 486 460 486 q 264 431 313 486 q 215 299 215 376 m 486 694 l 382 800 l 285 694 l 142 694 l 382 939 l 383 939 l 629 694 l 486 694 m 618 843 q 663 883 649 865 q 678 922 678 900 q 666 958 678 944 q 633 971 654 971 q 574 929 597 971 l 517 965 q 576 1034 539 1011 q 654 1057 613 1057 q 737 1024 708 1057 q 765 943 765 990 q 736 863 765 897 q 654 797 707 828 l 618 843 z "},"ỗ":{"ha":771,"x_min":58,"x_max":714,"o":"m 58 300 q 101 460 58 388 q 218 573 143 532 q 389 614 293 614 q 559 573 485 614 q 674 460 633 532 q 714 300 714 389 q 674 140 714 211 q 559 26 633 68 q 388 -15 485 -15 q 218 23 293 -15 q 101 133 143 61 q 58 300 58 204 m 215 299 q 264 166 215 219 q 385 113 313 113 q 508 165 460 113 q 556 299 556 218 q 508 433 556 379 q 385 486 460 486 q 264 431 313 486 q 215 299 215 376 m 479 688 l 375 793 l 278 688 l 135 688 l 375 932 l 376 932 l 622 688 l 479 688 m 489 988 q 422 1003 447 988 q 357 1050 396 1018 q 322 1077 336 1068 q 292 1086 307 1086 q 251 1058 265 1086 q 240 988 238 1029 l 157 988 q 156 1011 156 996 q 194 1139 156 1088 q 299 1190 233 1190 q 355 1175 331 1190 q 413 1129 379 1160 q 453 1096 436 1107 q 486 1085 469 1085 q 529 1189 535 1085 l 611 1188 q 614 1149 614 1160 q 578 1032 614 1076 q 489 988 542 988 z "},"ȍ":{"ha":771,"x_min":58,"x_max":714,"o":"m 58 300 q 101 460 58 388 q 218 573 143 532 q 389 614 293 614 q 559 573 485 614 q 674 460 633 532 q 714 300 714 389 q 674 140 714 211 q 559 26 633 68 q 388 -15 485 -15 q 218 23 293 -15 q 101 133 143 61 q 58 300 58 204 m 215 299 q 264 166 215 219 q 385 113 313 113 q 508 165 460 113 q 556 299 556 218 q 508 433 556 379 q 385 486 460 486 q 264 431 313 486 q 215 299 215 376 m 246 885 l 340 699 l 243 699 l 72 885 l 246 885 m 458 885 l 553 699 l 456 699 l 285 885 l 458 885 z "},"ö":{"ha":771,"x_min":58,"x_max":714,"o":"m 58 300 q 101 460 58 388 q 218 573 143 532 q 389 614 293 614 q 559 573 485 614 q 674 460 633 532 q 714 300 714 389 q 674 140 714 211 q 559 26 633 68 q 388 -15 485 -15 q 218 23 293 -15 q 101 133 143 61 q 58 300 58 204 m 215 299 q 264 166 215 219 q 385 113 313 113 q 508 165 460 113 q 556 299 556 218 q 508 433 556 379 q 385 486 460 486 q 264 431 313 486 q 215 299 215 376 m 168 763 q 194 823 168 799 q 253 847 219 847 q 309 822 283 847 q 335 763 335 797 q 309 702 335 726 q 253 678 283 678 q 194 702 219 678 q 168 763 168 726 m 435 763 q 460 823 435 799 q 519 847 486 847 q 576 822 550 847 q 601 763 601 797 q 576 702 601 726 q 519 678 550 678 q 460 702 486 678 q 435 763 435 726 z "},"ȫ":{"ha":771,"x_min":58,"x_max":714,"o":"m 58 300 q 101 460 58 388 q 218 573 143 532 q 389 614 293 614 q 559 573 485 614 q 674 460 633 532 q 714 300 714 389 q 674 140 714 211 q 559 26 633 68 q 388 -15 485 -15 q 218 23 293 -15 q 101 133 143 61 q 58 300 58 204 m 215 299 q 264 166 215 219 q 385 113 313 113 q 508 165 460 113 q 556 299 556 218 q 508 433 556 379 q 385 486 460 486 q 264 431 313 486 q 215 299 215 376 m 168 763 q 194 823 168 799 q 253 847 219 847 q 309 822 283 847 q 335 763 335 797 q 309 702 335 726 q 253 678 283 678 q 194 702 219 678 q 168 763 168 726 m 435 763 q 460 823 435 799 q 519 847 486 847 q 576 822 550 847 q 601 763 601 797 q 576 702 601 726 q 519 678 550 678 q 460 702 486 678 q 435 763 435 726 m 560 1026 l 560 917 l 214 917 l 214 1026 l 560 1026 z "},"ȱ":{"ha":771,"x_min":58,"x_max":714,"o":"m 58 300 q 101 460 58 388 q 218 573 143 532 q 389 614 293 614 q 559 573 485 614 q 674 460 633 532 q 714 300 714 389 q 674 140 714 211 q 559 26 633 68 q 388 -15 485 -15 q 218 23 293 -15 q 101 133 143 61 q 58 300 58 204 m 215 299 q 264 166 215 219 q 385 113 313 113 q 508 165 460 113 q 556 299 556 218 q 508 433 556 379 q 385 486 460 486 q 264 431 313 486 q 215 299 215 376 m 299 819 q 326 878 299 854 q 389 903 354 903 q 449 878 422 903 q 476 819 476 854 q 449 761 476 785 q 389 738 422 738 q 326 761 354 738 q 299 819 299 785 m 560 1083 l 560 974 l 214 974 l 214 1083 l 560 1083 z "},"ọ":{"ha":771,"x_min":58,"x_max":714,"o":"m 58 300 q 101 460 58 388 q 218 573 143 532 q 389 614 293 614 q 559 573 485 614 q 674 460 633 532 q 714 300 714 389 q 674 140 714 211 q 559 26 633 68 q 388 -15 485 -15 q 218 23 293 -15 q 101 133 143 61 q 58 300 58 204 m 215 299 q 264 166 215 219 q 385 113 313 113 q 508 165 460 113 q 556 299 556 218 q 508 433 556 379 q 385 486 460 486 q 264 431 313 486 q 215 299 215 376 m 310 -144 q 334 -93 310 -114 q 389 -72 358 -72 q 440 -93 417 -72 q 464 -144 464 -114 q 441 -195 464 -175 q 389 -215 418 -215 q 334 -195 358 -215 q 310 -144 310 -175 z "},"ò":{"ha":771,"x_min":58,"x_max":714,"o":"m 58 300 q 101 460 58 388 q 218 573 143 532 q 389 614 293 614 q 559 573 485 614 q 674 460 633 532 q 714 300 714 389 q 674 140 714 211 q 559 26 633 68 q 388 -15 485 -15 q 218 23 293 -15 q 101 133 143 61 q 58 300 58 204 m 215 299 q 264 166 215 219 q 385 113 313 113 q 508 165 460 113 q 556 299 556 218 q 508 433 556 379 q 385 486 460 486 q 264 431 313 486 q 215 299 215 376 m 340 885 l 435 699 l 338 699 l 167 885 l 340 885 z "},"ỏ":{"ha":771,"x_min":58,"x_max":714,"o":"m 58 300 q 101 460 58 388 q 218 573 143 532 q 389 614 293 614 q 559 573 485 614 q 674 460 633 532 q 714 300 714 389 q 674 140 714 211 q 559 26 633 68 q 388 -15 485 -15 q 218 23 293 -15 q 101 133 143 61 q 58 300 58 204 m 215 299 q 264 166 215 219 q 385 113 313 113 q 508 165 460 113 q 556 299 556 218 q 508 433 556 379 q 385 486 460 486 q 264 431 313 486 q 215 299 215 376 m 353 719 q 398 759 383 742 q 413 799 413 776 q 401 834 413 821 q 368 847 389 847 q 308 806 332 847 l 251 842 q 310 910 274 888 q 389 933 347 933 q 472 900 443 933 q 500 819 500 867 q 471 739 500 774 q 389 674 442 704 l 353 719 z "},"ơ":{"ha":771,"x_min":58,"x_max":740,"o":"m 740 713 q 628 519 721 567 q 692 422 669 478 q 714 300 714 365 q 674 140 714 211 q 559 26 633 68 q 388 -15 485 -15 q 218 23 293 -15 q 101 133 143 61 q 58 300 58 204 q 101 460 58 388 q 218 573 143 532 q 389 614 293 614 q 525 589 464 614 q 592 625 568 594 q 625 713 615 656 l 740 713 m 385 113 q 508 165 460 113 q 556 299 556 218 q 508 433 556 379 q 385 486 460 486 q 264 431 313 486 q 215 299 215 376 q 264 166 215 219 q 385 113 313 113 z "},"ớ":{"ha":771,"x_min":58,"x_max":740,"o":"m 740 713 q 628 519 721 567 q 692 422 669 478 q 714 300 714 365 q 674 140 714 211 q 559 26 633 68 q 388 -15 485 -15 q 218 23 293 -15 q 101 133 143 61 q 58 300 58 204 q 101 460 58 388 q 218 573 143 532 q 389 614 293 614 q 525 589 464 614 q 592 625 568 594 q 625 713 615 656 l 740 713 m 385 113 q 508 165 460 113 q 556 299 556 218 q 508 433 556 379 q 385 486 460 486 q 264 431 313 486 q 215 299 215 376 q 264 166 215 219 q 385 113 313 113 m 439 692 l 342 692 l 454 878 l 626 878 l 439 692 z "},"ợ":{"ha":771,"x_min":58,"x_max":740,"o":"m 740 713 q 628 519 721 567 q 692 422 669 478 q 714 300 714 365 q 674 140 714 211 q 559 26 633 68 q 388 -15 485 -15 q 218 23 293 -15 q 101 133 143 61 q 58 300 58 204 q 101 460 58 388 q 218 573 143 532 q 389 614 293 614 q 525 589 464 614 q 592 625 568 594 q 625 713 615 656 l 740 713 m 385 113 q 508 165 460 113 q 556 299 556 218 q 508 433 556 379 q 385 486 460 486 q 264 431 313 486 q 215 299 215 376 q 264 166 215 219 q 385 113 313 113 m 310 -144 q 334 -93 310 -114 q 389 -72 358 -72 q 440 -93 417 -72 q 464 -144 464 -114 q 441 -195 464 -175 q 389 -215 418 -215 q 334 -195 358 -215 q 310 -144 310 -175 z "},"ờ":{"ha":771,"x_min":58,"x_max":740,"o":"m 740 713 q 628 519 721 567 q 692 422 669 478 q 714 300 714 365 q 674 140 714 211 q 559 26 633 68 q 388 -15 485 -15 q 218 23 293 -15 q 101 133 143 61 q 58 300 58 204 q 101 460 58 388 q 218 573 143 532 q 389 614 293 614 q 525 589 464 614 q 592 625 568 594 q 625 713 615 656 l 740 713 m 385 113 q 508 165 460 113 q 556 299 556 218 q 508 433 556 379 q 385 486 460 486 q 264 431 313 486 q 215 299 215 376 q 264 166 215 219 q 385 113 313 113 m 340 885 l 435 699 l 338 699 l 167 885 l 340 885 z "},"ở":{"ha":771,"x_min":58,"x_max":740,"o":"m 740 713 q 628 519 721 567 q 692 422 669 478 q 714 300 714 365 q 674 140 714 211 q 559 26 633 68 q 388 -15 485 -15 q 218 23 293 -15 q 101 133 143 61 q 58 300 58 204 q 101 460 58 388 q 218 573 143 532 q 389 614 293 614 q 525 589 464 614 q 592 625 568 594 q 625 713 615 656 l 740 713 m 385 113 q 508 165 460 113 q 556 299 556 218 q 508 433 556 379 q 385 486 460 486 q 264 431 313 486 q 215 299 215 376 q 264 166 215 219 q 385 113 313 113 m 353 719 q 398 759 383 742 q 413 799 413 776 q 401 834 413 821 q 368 847 389 847 q 308 806 332 847 l 251 842 q 310 910 274 888 q 389 933 347 933 q 472 900 443 933 q 500 819 500 867 q 471 739 500 774 q 389 674 442 704 l 353 719 z "},"ỡ":{"ha":771,"x_min":58,"x_max":740,"o":"m 168 675 l 167 696 q 201 806 167 761 q 292 850 235 850 q 339 837 319 850 q 389 797 358 824 q 424 768 410 778 q 453 758 439 758 q 490 849 496 758 l 561 847 q 564 815 564 825 q 533 714 564 753 q 456 675 501 675 q 397 688 419 675 q 342 729 374 701 q 311 752 324 744 q 285 760 299 760 q 251 735 263 760 q 240 675 239 711 l 168 675 m 740 713 q 628 519 721 567 q 692 422 669 478 q 714 300 714 365 q 674 140 714 211 q 559 26 633 68 q 388 -15 485 -15 q 218 23 293 -15 q 101 133 143 61 q 58 300 58 204 q 101 460 58 388 q 218 573 143 532 q 389 614 293 614 q 525 589 464 614 q 592 625 568 594 q 625 713 615 656 l 740 713 m 385 113 q 508 165 460 113 q 556 299 556 218 q 508 433 556 379 q 385 486 460 486 q 264 431 313 486 q 215 299 215 376 q 264 166 215 219 q 385 113 313 113 z "},"ő":{"ha":771,"x_min":58,"x_max":714,"o":"m 58 300 q 101 460 58 388 q 218 573 143 532 q 389 614 293 614 q 559 573 485 614 q 674 460 633 532 q 714 300 714 389 q 674 140 714 211 q 559 26 633 68 q 388 -15 485 -15 q 218 23 293 -15 q 101 133 143 61 q 58 300 58 204 m 215 299 q 264 166 215 219 q 385 113 313 113 q 508 165 460 113 q 556 299 556 218 q 508 433 556 379 q 385 486 460 486 q 264 431 313 486 q 215 299 215 376 m 294 699 l 197 699 l 310 885 l 482 885 l 294 699 m 522 696 l 425 696 l 538 882 l 710 882 l 522 696 z "},"ȏ":{"ha":771,"x_min":58,"x_max":714,"o":"m 58 300 q 101 460 58 388 q 218 573 143 532 q 389 614 293 614 q 559 573 485 614 q 674 460 633 532 q 714 300 714 389 q 674 140 714 211 q 559 26 633 68 q 388 -15 485 -15 q 218 23 293 -15 q 101 133 143 61 q 58 300 58 204 m 215 299 q 264 166 215 219 q 385 113 313 113 q 508 165 460 113 q 556 299 556 218 q 508 433 556 379 q 385 486 460 486 q 264 431 313 486 q 215 299 215 376 m 392 915 q 611 665 574 915 l 507 665 q 392 811 483 811 q 279 665 300 811 l 174 665 q 392 915 208 915 z "},"ō":{"ha":771,"x_min":58,"x_max":714,"o":"m 58 300 q 101 460 58 388 q 218 573 143 532 q 389 614 293 614 q 559 573 485 614 q 674 460 633 532 q 714 300 714 389 q 674 140 714 211 q 559 26 633 68 q 388 -15 485 -15 q 218 23 293 -15 q 101 133 143 61 q 58 300 58 204 m 215 299 q 264 166 215 219 q 385 113 313 113 q 508 165 460 113 q 556 299 556 218 q 508 433 556 379 q 385 486 460 486 q 264 431 313 486 q 215 299 215 376 m 560 789 l 560 679 l 214 679 l 214 789 l 560 789 z "},"ǫ":{"ha":779,"x_min":0,"x_max":0,"o":""},"ø":{"ha":738,"x_min":58,"x_max":714,"o":"m 632 515 q 693 419 672 474 q 714 300 714 364 q 674 140 714 211 q 559 26 633 68 q 388 -15 485 -15 q 207 29 283 -15 l 146 -40 l 71 29 l 128 94 q 58 300 58 176 q 101 460 58 388 q 218 573 143 532 q 389 614 293 614 q 550 578 481 614 l 604 639 l 683 574 l 632 515 m 215 299 q 233 214 215 250 l 457 471 q 385 486 422 486 q 264 431 313 486 q 215 299 215 376 m 385 113 q 508 165 460 113 q 556 299 556 218 q 531 400 556 357 l 300 136 q 385 113 339 113 z "},"ǿ":{"ha":738,"x_min":58,"x_max":714,"o":"m 632 515 q 693 419 672 474 q 714 300 714 364 q 674 140 714 211 q 559 26 633 68 q 388 -15 485 -15 q 207 29 283 -15 l 146 -40 l 71 29 l 128 94 q 58 300 58 176 q 101 460 58 388 q 218 573 143 532 q 389 614 293 614 q 550 578 481 614 l 604 639 l 683 574 l 632 515 m 215 299 q 233 214 215 250 l 457 471 q 385 486 422 486 q 264 431 313 486 q 215 299 215 376 m 385 113 q 508 165 460 113 q 556 299 556 218 q 531 400 556 357 l 300 136 q 385 113 339 113 m 422 669 l 325 669 l 438 856 l 610 856 l 422 669 z "},"õ":{"ha":771,"x_min":58,"x_max":714,"o":"m 58 300 q 101 460 58 388 q 218 573 143 532 q 389 614 293 614 q 559 573 485 614 q 674 460 633 532 q 714 300 714 389 q 674 140 714 211 q 559 26 633 68 q 388 -15 485 -15 q 218 23 293 -15 q 101 133 143 61 q 58 300 58 204 m 215 299 q 264 166 215 219 q 385 113 313 113 q 508 165 460 113 q 556 299 556 218 q 508 433 556 379 q 385 486 460 486 q 264 431 313 486 q 215 299 215 376 m 497 665 q 430 681 456 665 q 365 728 404 696 q 330 755 344 746 q 300 764 315 764 q 260 735 274 764 q 249 665 246 707 l 165 665 q 164 689 164 674 q 203 817 164 765 q 307 868 242 868 q 363 853 339 868 q 421 807 388 838 q 461 774 444 785 q 494 763 478 763 q 538 867 543 763 l 619 865 q 622 826 622 838 q 586 710 622 754 q 497 665 550 665 z "},"ȭ":{"ha":771,"x_min":58,"x_max":714,"o":"m 58 300 q 101 460 58 388 q 218 573 143 532 q 389 614 293 614 q 559 573 485 614 q 674 460 633 532 q 714 300 714 389 q 674 140 714 211 q 559 26 633 68 q 388 -15 485 -15 q 218 23 293 -15 q 101 133 143 61 q 58 300 58 204 m 215 299 q 264 166 215 219 q 385 113 313 113 q 508 165 460 113 q 556 299 556 218 q 508 433 556 379 q 385 486 460 486 q 264 431 313 486 q 215 299 215 376 m 497 665 q 430 681 456 665 q 365 728 404 696 q 330 755 344 746 q 300 764 315 764 q 260 735 274 764 q 249 665 246 707 l 165 665 q 164 689 164 674 q 203 817 164 765 q 307 868 242 868 q 363 853 339 868 q 421 807 388 838 q 461 774 444 785 q 494 763 478 763 q 538 867 543 763 l 619 865 q 622 826 622 838 q 586 710 622 754 q 497 665 550 665 m 575 1058 l 575 949 l 229 949 l 229 1058 l 575 1058 z "},"œ":{"ha":1140,"x_min":58,"x_max":1094,"o":"m 790 118 q 922 164 856 118 l 993 49 q 892 2 946 19 q 788 -15 838 -15 q 581 44 665 -15 q 490 1 542 17 q 385 -15 438 -15 q 213 22 288 -15 q 99 130 139 60 q 58 294 58 200 q 101 458 58 388 q 216 565 144 528 q 369 603 288 603 q 579 543 492 603 q 676 595 622 576 q 790 614 731 614 q 989 544 910 614 q 1094 346 1068 474 l 642 193 q 704 138 665 157 q 790 118 743 118 m 778 492 q 658 440 704 492 q 611 307 611 389 q 613 283 611 292 l 921 393 q 868 464 903 436 q 778 492 833 492 m 214 294 q 266 165 214 217 q 399 113 318 113 q 497 139 453 113 q 458 299 458 210 q 496 444 458 376 q 383 476 440 476 q 263 424 313 476 q 214 294 214 372 z "},"p":{"ha":840,"x_min":107,"x_max":783,"o":"m 493 614 q 642 575 575 614 q 746 464 708 536 q 783 296 783 392 q 742 131 783 201 q 628 22 701 60 q 464 -15 556 -15 q 351 8 406 -15 q 263 72 297 32 l 263 -282 l 107 -282 l 107 599 l 242 599 l 256 511 q 362 586 301 558 q 493 614 422 614 m 433 108 q 528 133 485 108 q 599 199 572 157 q 625 293 625 240 q 573 428 625 375 q 444 482 521 482 q 330 449 376 482 q 263 356 283 415 l 263 238 q 323 144 276 181 q 433 108 369 108 z "},"þ":{"ha":835,"x_min":107,"x_max":783,"o":"m 494 614 q 642 575 576 614 q 746 464 708 536 q 783 296 783 392 q 742 131 783 201 q 628 22 701 60 q 464 -15 556 -15 q 348 10 403 -15 q 263 79 293 35 l 263 -282 l 107 -282 l 107 1083 l 264 1083 l 264 518 q 367 588 308 563 q 494 614 426 614 m 433 108 q 528 133 485 108 q 599 199 572 157 q 625 293 625 242 q 600 389 625 346 q 533 457 575 432 q 444 482 492 482 q 330 449 376 482 q 264 356 283 415 l 264 236 q 323 144 276 179 q 433 108 369 108 z "},"q":{"ha":840,"x_min":58,"x_max":733,"o":"m 733 599 l 733 -282 l 579 -282 l 579 74 q 481 9 543 33 q 343 -15 418 -15 q 200 22 265 -15 q 97 130 135 60 q 58 294 58 200 q 100 462 58 389 q 213 574 142 535 q 367 614 283 614 q 578 524 497 614 l 578 599 l 733 599 m 578 356 q 511 449 558 415 q 397 482 464 482 q 307 457 349 482 q 240 389 265 432 q 215 293 215 346 q 240 199 215 242 q 307 133 265 157 q 397 108 349 108 q 515 144 465 108 q 578 238 564 181 l 578 356 z "},"r":{"ha":542,"x_min":107,"x_max":489,"o":"m 258 451 q 325 536 282 499 q 413 594 368 574 q 489 614 458 614 l 482 458 q 368 435 418 464 q 290 358 318 407 q 263 253 263 308 l 263 0 l 107 0 l 107 588 l 247 588 l 258 451 z "},"ŕ":{"ha":542,"x_min":107,"x_max":499,"o":"m 258 451 q 325 536 282 499 q 413 594 368 574 q 489 614 458 614 l 482 458 q 368 435 418 464 q 290 358 318 407 q 263 253 263 308 l 263 0 l 107 0 l 107 588 l 247 588 l 258 451 m 311 669 l 214 669 l 326 856 l 499 856 l 311 669 z "},"ř":{"ha":542,"x_min":28,"x_max":514,"o":"m 258 451 q 325 536 282 499 q 413 594 368 574 q 489 614 458 614 l 482 458 q 368 435 418 464 q 290 358 318 407 q 263 253 263 308 l 263 0 l 107 0 l 107 588 l 247 588 l 258 451 m 514 904 l 274 660 l 272 660 l 28 904 l 169 904 l 275 799 l 372 904 l 514 904 z "},"ŗ":{"ha":542,"x_min":65,"x_max":489,"o":"m 258 451 q 325 536 282 499 q 413 594 368 574 q 489 614 458 614 l 482 458 q 368 435 418 464 q 290 358 318 407 q 263 253 263 308 l 263 0 l 107 0 l 107 588 l 247 588 l 258 451 m 65 -233 q 105 -169 90 -210 q 119 -85 119 -129 q 117 -46 119 -71 l 253 -47 q 256 -78 256 -67 q 226 -196 256 -136 q 144 -287 196 -256 l 65 -233 z "},"ȑ":{"ha":542,"x_min":-56,"x_max":489,"o":"m 258 451 q 325 536 282 499 q 413 594 368 574 q 489 614 458 614 l 482 458 q 368 435 418 464 q 290 358 318 407 q 263 253 263 308 l 263 0 l 107 0 l 107 588 l 247 588 l 258 451 m 118 863 l 213 676 l 115 676 l -56 863 l 118 863 m 331 863 l 425 676 l 328 676 l 157 863 l 331 863 z "},"ȓ":{"ha":542,"x_min":46,"x_max":489,"o":"m 258 451 q 325 536 282 499 q 413 594 368 574 q 489 614 458 614 l 482 458 q 368 435 418 464 q 290 358 318 407 q 263 253 263 308 l 263 0 l 107 0 l 107 588 l 247 588 l 258 451 m 264 893 q 483 643 446 893 l 379 643 q 264 789 356 789 q 151 643 172 789 l 46 643 q 264 893 81 893 z "},"s":{"ha":588,"x_min":56,"x_max":522,"o":"m 283 -12 q 155 12 215 -12 q 56 81 94 36 l 121 168 q 271 96 194 96 q 340 112 313 96 q 367 160 367 128 q 339 210 367 193 q 277 237 311 226 q 233 250 243 247 q 119 319 157 274 q 82 425 82 364 q 106 516 82 474 q 180 585 131 558 q 300 611 229 611 q 416 596 367 611 q 508 547 465 581 l 449 454 q 388 492 424 478 q 324 506 353 506 q 264 489 288 506 q 240 446 240 472 q 264 398 239 414 q 344 364 289 382 q 375 354 368 357 q 483 292 444 332 q 522 189 522 253 q 460 45 522 103 q 283 -12 399 -12 z "},"ś":{"ha":588,"x_min":56,"x_max":536,"o":"m 283 -12 q 155 12 215 -12 q 56 81 94 36 l 121 168 q 271 96 194 96 q 340 112 313 96 q 367 160 367 128 q 339 210 367 193 q 277 237 311 226 q 233 250 243 247 q 119 319 157 274 q 82 425 82 364 q 106 516 82 474 q 180 585 131 558 q 300 611 229 611 q 416 596 367 611 q 508 547 465 581 l 449 454 q 388 492 424 478 q 324 506 353 506 q 264 489 288 506 q 240 446 240 472 q 264 398 239 414 q 344 364 289 382 q 375 354 368 357 q 483 292 444 332 q 522 189 522 253 q 460 45 522 103 q 283 -12 399 -12 m 349 681 l 251 681 l 364 867 l 536 867 l 349 681 z "},"š":{"ha":588,"x_min":56,"x_max":551,"o":"m 283 -12 q 155 12 215 -12 q 56 81 94 36 l 121 168 q 271 96 194 96 q 340 112 313 96 q 367 160 367 128 q 339 210 367 193 q 277 237 311 226 q 233 250 243 247 q 119 319 157 274 q 82 425 82 364 q 106 516 82 474 q 180 585 131 558 q 300 611 229 611 q 416 596 367 611 q 508 547 465 581 l 449 454 q 388 492 424 478 q 324 506 353 506 q 264 489 288 506 q 240 446 240 472 q 264 398 239 414 q 344 364 289 382 q 375 354 368 357 q 483 292 444 332 q 522 189 522 253 q 460 45 522 103 q 283 -12 399 -12 m 551 915 l 311 671 l 310 671 l 65 915 l 207 915 l 313 810 l 410 915 l 551 915 z "},"ş":{"ha":588,"x_min":56,"x_max":522,"o":"m 315 -67 q 438 -99 392 -67 q 485 -190 485 -131 q 426 -297 485 -260 q 283 -333 368 -333 q 129 -276 186 -333 l 178 -214 q 216 -240 193 -231 q 267 -250 239 -250 q 328 -235 301 -250 q 354 -193 354 -219 q 335 -153 354 -169 q 271 -136 315 -136 q 183 -153 240 -136 l 158 -79 l 239 -10 q 137 20 185 -3 q 56 81 89 43 l 121 168 q 271 96 194 96 q 340 112 313 96 q 367 160 367 128 q 339 210 367 193 q 277 237 311 226 q 233 250 243 247 q 119 319 157 274 q 82 425 82 364 q 106 516 82 474 q 180 585 131 558 q 300 611 229 611 q 416 596 367 611 q 508 547 465 581 l 449 454 q 388 492 424 478 q 324 506 353 506 q 264 489 288 506 q 240 446 240 472 q 264 398 239 414 q 344 364 289 382 q 375 354 368 357 q 483 292 444 332 q 522 189 522 253 q 484 69 522 121 q 372 -1 446 18 l 315 -67 z "},"ŝ":{"ha":588,"x_min":51,"x_max":539,"o":"m 283 -12 q 155 12 215 -12 q 56 81 94 36 l 121 168 q 271 96 194 96 q 340 112 313 96 q 367 160 367 128 q 339 210 367 193 q 277 237 311 226 q 233 250 243 247 q 119 319 157 274 q 82 425 82 364 q 106 516 82 474 q 180 585 131 558 q 300 611 229 611 q 416 596 367 611 q 508 547 465 581 l 449 454 q 388 492 424 478 q 324 506 353 506 q 264 489 288 506 q 240 446 240 472 q 264 398 239 414 q 344 364 289 382 q 375 354 368 357 q 483 292 444 332 q 522 189 522 253 q 460 45 522 103 q 283 -12 399 -12 m 396 688 l 292 793 l 194 688 l 51 688 l 292 932 l 293 932 l 539 688 l 396 688 z "},"ș":{"ha":588,"x_min":56,"x_max":522,"o":"m 283 -12 q 155 12 215 -12 q 56 81 94 36 l 121 168 q 271 96 194 96 q 340 112 313 96 q 367 160 367 128 q 339 210 367 193 q 277 237 311 226 q 233 250 243 247 q 119 319 157 274 q 82 425 82 364 q 106 516 82 474 q 180 585 131 558 q 300 611 229 611 q 416 596 367 611 q 508 547 465 581 l 449 454 q 388 492 424 478 q 324 506 353 506 q 264 489 288 506 q 240 446 240 472 q 264 398 239 414 q 344 364 289 382 q 375 354 368 357 q 483 292 444 332 q 522 189 522 253 q 460 45 522 103 q 283 -12 399 -12 m 169 -244 q 209 -181 194 -221 q 224 -96 224 -140 q 221 -57 224 -82 l 357 -58 q 360 -89 360 -78 q 330 -207 360 -147 q 249 -299 300 -267 l 169 -244 z "},"ß":{"ha":849,"x_min":58,"x_max":783,"o":"m 149 638 q 188 791 149 725 q 294 892 228 857 q 442 926 361 926 q 592 901 529 926 q 688 831 656 875 q 721 731 721 786 q 696 623 721 671 q 624 550 671 575 q 783 274 783 485 q 709 60 783 135 q 510 -14 635 -14 q 412 2 454 -14 q 350 39 369 18 l 410 132 q 494 104 444 104 q 592 153 558 104 q 626 282 626 203 q 585 422 626 371 q 475 469 544 472 l 467 469 l 465 606 q 537 631 510 606 q 564 694 564 656 q 533 772 564 743 q 446 800 503 800 q 338 746 371 800 q 306 585 306 692 l 306 0 l 149 0 l 149 468 l 58 468 l 58 594 l 149 594 l 149 638 z "},"t":{"ha":518,"x_min":63,"x_max":472,"o":"m 319 846 l 319 588 l 472 588 l 472 465 l 319 465 l 319 0 l 164 0 l 164 465 l 63 465 l 63 588 l 164 588 l 164 846 l 319 846 z "},"ŧ":{"ha":518,"x_min":42,"x_max":472,"o":"m 319 465 l 319 336 l 447 336 l 447 192 l 319 192 l 319 0 l 164 0 l 164 192 l 42 192 l 42 336 l 164 336 l 164 465 l 63 465 l 63 588 l 164 588 l 164 846 l 319 846 l 319 588 l 472 588 l 472 465 l 319 465 z "},"ť":{"ha":518,"x_min":63,"x_max":558,"o":"m 319 846 l 319 588 l 472 588 l 472 465 l 319 465 l 319 0 l 164 0 l 164 465 l 63 465 l 63 588 l 164 588 l 164 846 l 319 846 m 368 740 q 408 804 393 764 q 422 889 422 844 q 419 928 422 903 l 556 926 q 558 896 558 907 q 528 778 558 838 q 447 686 499 718 l 368 740 z "},"ţ":{"ha":518,"x_min":63,"x_max":472,"o":"m 308 0 l 260 -56 q 383 -87 336 -56 q 429 -179 429 -119 q 371 -285 429 -249 q 228 -322 313 -322 q 74 -265 131 -322 l 122 -203 q 160 -229 138 -219 q 211 -239 183 -239 q 272 -224 246 -239 q 299 -182 299 -208 q 279 -142 299 -158 q 215 -125 260 -125 q 128 -142 185 -125 l 103 -68 l 181 0 l 164 0 l 164 465 l 63 465 l 63 588 l 164 588 l 164 846 l 319 846 l 319 588 l 472 588 l 472 465 l 319 465 l 319 0 l 308 0 z "},"ț":{"ha":518,"x_min":63,"x_max":472,"o":"m 319 846 l 319 588 l 472 588 l 472 465 l 319 465 l 319 0 l 164 0 l 164 465 l 63 465 l 63 588 l 164 588 l 164 846 l 319 846 m 114 -233 q 153 -169 139 -210 q 168 -85 168 -129 q 165 -46 168 -71 l 301 -47 q 304 -78 304 -67 q 274 -196 304 -136 q 193 -287 244 -256 l 114 -233 z "},"u":{"ha":781,"x_min":107,"x_max":672,"o":"m 672 588 l 672 0 l 532 0 l 522 106 q 432 10 492 46 q 296 -25 372 -25 q 162 24 215 -25 q 107 151 108 74 l 107 588 l 263 588 l 263 207 q 358 108 267 110 q 472 171 426 108 q 517 328 517 233 l 517 588 l 672 588 z "},"ú":{"ha":781,"x_min":107,"x_max":672,"o":"m 672 588 l 672 0 l 532 0 l 522 106 q 432 10 492 46 q 296 -25 372 -25 q 162 24 215 -25 q 107 151 108 74 l 107 588 l 263 588 l 263 207 q 358 108 267 110 q 472 171 426 108 q 517 328 517 233 l 517 588 l 672 588 m 444 692 l 347 692 l 460 878 l 632 878 l 444 692 z "},"ŭ":{"ha":781,"x_min":107,"x_max":672,"o":"m 672 588 l 672 0 l 532 0 l 522 106 q 432 10 492 46 q 296 -25 372 -25 q 162 24 215 -25 q 107 151 108 74 l 107 588 l 263 588 l 263 207 q 358 108 267 110 q 472 171 426 108 q 517 328 517 233 l 517 588 l 672 588 m 394 672 q 175 922 213 672 l 279 922 q 394 776 303 776 q 507 922 486 776 l 613 922 q 394 672 578 672 z "},"û":{"ha":781,"x_min":107,"x_max":672,"o":"m 672 588 l 672 0 l 532 0 l 522 106 q 432 10 492 46 q 296 -25 372 -25 q 162 24 215 -25 q 107 151 108 74 l 107 588 l 263 588 l 263 207 q 358 108 267 110 q 472 171 426 108 q 517 328 517 233 l 517 588 l 672 588 m 492 699 l 388 804 l 290 699 l 147 699 l 388 943 l 389 943 l 635 699 l 492 699 z "},"ȕ":{"ha":781,"x_min":78,"x_max":672,"o":"m 672 588 l 672 0 l 532 0 l 522 106 q 432 10 492 46 q 296 -25 372 -25 q 162 24 215 -25 q 107 151 108 74 l 107 588 l 263 588 l 263 207 q 358 108 267 110 q 472 171 426 108 q 517 328 517 233 l 517 588 l 672 588 m 251 885 l 346 699 l 249 699 l 78 885 l 251 885 m 464 885 l 558 699 l 461 699 l 290 885 l 464 885 z "},"ü":{"ha":781,"x_min":107,"x_max":672,"o":"m 672 588 l 672 0 l 532 0 l 522 106 q 432 10 492 46 q 296 -25 372 -25 q 162 24 215 -25 q 107 151 108 74 l 107 588 l 263 588 l 263 207 q 358 108 267 110 q 472 171 426 108 q 517 328 517 233 l 517 588 l 672 588 m 174 763 q 199 823 174 799 q 258 847 225 847 q 315 822 289 847 q 340 763 340 797 q 315 702 340 726 q 258 678 289 678 q 199 702 225 678 q 174 763 174 726 m 440 763 q 466 823 440 799 q 525 847 492 847 q 581 822 556 847 q 607 763 607 797 q 581 702 607 726 q 525 678 556 678 q 466 702 492 678 q 440 763 440 726 z "},"ụ":{"ha":781,"x_min":107,"x_max":672,"o":"m 672 588 l 672 0 l 532 0 l 522 106 q 432 10 492 46 q 296 -25 372 -25 q 162 24 215 -25 q 107 151 108 74 l 107 588 l 263 588 l 263 207 q 358 108 267 110 q 472 171 426 108 q 517 328 517 233 l 517 588 l 672 588 m 314 -144 q 338 -93 314 -114 q 393 -72 363 -72 q 444 -93 421 -72 q 468 -144 468 -114 q 445 -195 468 -175 q 393 -215 422 -215 q 338 -195 363 -215 q 314 -144 314 -175 z "},"ù":{"ha":781,"x_min":107,"x_max":672,"o":"m 672 588 l 672 0 l 532 0 l 522 106 q 432 10 492 46 q 296 -25 372 -25 q 162 24 215 -25 q 107 151 108 74 l 107 588 l 263 588 l 263 207 q 358 108 267 110 q 472 171 426 108 q 517 328 517 233 l 517 588 l 672 588 m 346 885 l 440 699 l 343 699 l 172 885 l 346 885 z "},"ủ":{"ha":781,"x_min":107,"x_max":672,"o":"m 672 588 l 672 0 l 532 0 l 522 106 q 432 10 492 46 q 296 -25 372 -25 q 162 24 215 -25 q 107 151 108 74 l 107 588 l 263 588 l 263 207 q 358 108 267 110 q 472 171 426 108 q 517 328 517 233 l 517 588 l 672 588 m 358 719 q 403 759 389 742 q 418 799 418 776 q 406 834 418 821 q 374 847 394 847 q 314 806 338 847 l 257 842 q 316 910 279 888 q 394 933 353 933 q 477 900 449 933 q 506 819 506 867 q 476 739 506 774 q 394 674 447 704 l 358 719 z "},"ư":{"ha":781,"x_min":107,"x_max":824,"o":"m 824 713 q 772 572 811 621 q 672 504 733 522 l 672 0 l 532 0 l 522 106 q 432 10 492 46 q 296 -25 372 -25 q 162 24 215 -25 q 107 151 108 74 l 107 588 l 263 588 l 263 207 q 358 108 267 110 q 472 171 426 108 q 517 328 517 233 l 517 588 l 585 588 q 668 617 639 588 q 708 713 697 647 l 824 713 z "},"ứ":{"ha":781,"x_min":107,"x_max":824,"o":"m 824 713 q 772 572 811 621 q 672 504 733 522 l 672 0 l 532 0 l 522 106 q 432 10 492 46 q 296 -25 372 -25 q 162 24 215 -25 q 107 151 108 74 l 107 588 l 263 588 l 263 207 q 358 108 267 110 q 472 171 426 108 q 517 328 517 233 l 517 588 l 585 588 q 668 617 639 588 q 708 713 697 647 l 824 713 m 444 692 l 347 692 l 460 878 l 632 878 l 444 692 z "},"ự":{"ha":781,"x_min":107,"x_max":824,"o":"m 824 713 q 772 572 811 621 q 672 504 733 522 l 672 0 l 532 0 l 522 106 q 432 10 492 46 q 296 -25 372 -25 q 162 24 215 -25 q 107 151 108 74 l 107 588 l 263 588 l 263 207 q 358 108 267 110 q 472 171 426 108 q 517 328 517 233 l 517 588 l 585 588 q 668 617 639 588 q 708 713 697 647 l 824 713 m 314 -144 q 338 -93 314 -114 q 393 -72 363 -72 q 444 -93 421 -72 q 468 -144 468 -114 q 445 -195 468 -175 q 393 -215 422 -215 q 338 -195 363 -215 q 314 -144 314 -175 z "},"ừ":{"ha":781,"x_min":107,"x_max":824,"o":"m 824 713 q 772 572 811 621 q 672 504 733 522 l 672 0 l 532 0 l 522 106 q 432 10 492 46 q 296 -25 372 -25 q 162 24 215 -25 q 107 151 108 74 l 107 588 l 263 588 l 263 207 q 358 108 267 110 q 472 171 426 108 q 517 328 517 233 l 517 588 l 585 588 q 668 617 639 588 q 708 713 697 647 l 824 713 m 346 885 l 440 699 l 343 699 l 172 885 l 346 885 z "},"ử":{"ha":781,"x_min":107,"x_max":824,"o":"m 824 713 q 772 572 811 621 q 672 504 733 522 l 672 0 l 532 0 l 522 106 q 432 10 492 46 q 296 -25 372 -25 q 162 24 215 -25 q 107 151 108 74 l 107 588 l 263 588 l 263 207 q 358 108 267 110 q 472 171 426 108 q 517 328 517 233 l 517 588 l 585 588 q 668 617 639 588 q 708 713 697 647 l 824 713 m 358 719 q 403 759 389 742 q 418 799 418 776 q 406 834 418 821 q 374 847 394 847 q 314 806 338 847 l 257 842 q 316 910 279 888 q 394 933 353 933 q 477 900 449 933 q 506 819 506 867 q 476 739 506 774 q 394 674 447 704 l 358 719 z "},"ữ":{"ha":781,"x_min":107,"x_max":824,"o":"m 824 713 q 772 572 811 621 q 672 504 733 522 l 672 0 l 532 0 l 522 106 q 432 10 492 46 q 296 -25 372 -25 q 162 24 215 -25 q 107 151 108 74 l 107 588 l 263 588 l 263 207 q 358 108 267 110 q 472 171 426 108 q 517 328 517 233 l 517 588 l 585 588 q 668 617 639 588 q 708 713 697 647 l 824 713 m 503 665 q 435 681 461 665 q 371 728 410 696 q 335 755 350 746 q 306 764 321 764 q 265 735 279 764 q 254 665 251 707 l 171 665 q 169 689 169 674 q 208 817 169 765 q 313 868 247 868 q 369 853 344 868 q 426 807 393 838 q 467 774 450 785 q 500 763 483 763 q 543 867 549 763 l 625 865 q 628 826 628 838 q 592 710 628 754 q 503 665 556 665 z "},"ű":{"ha":781,"x_min":107,"x_max":715,"o":"m 672 588 l 672 0 l 532 0 l 522 106 q 432 10 492 46 q 296 -25 372 -25 q 162 24 215 -25 q 107 151 108 74 l 107 588 l 263 588 l 263 207 q 358 108 267 110 q 472 171 426 108 q 517 328 517 233 l 517 588 l 672 588 m 300 699 l 203 699 l 315 885 l 488 885 l 300 699 m 528 696 l 431 696 l 543 882 l 715 882 l 528 696 z "},"ȗ":{"ha":781,"x_min":107,"x_max":672,"o":"m 672 588 l 672 0 l 532 0 l 522 106 q 432 10 492 46 q 296 -25 372 -25 q 162 24 215 -25 q 107 151 108 74 l 107 588 l 263 588 l 263 207 q 358 108 267 110 q 472 171 426 108 q 517 328 517 233 l 517 588 l 672 588 m 397 915 q 617 665 579 915 l 513 665 q 397 811 489 811 q 285 665 306 811 l 179 665 q 397 915 214 915 z "},"ū":{"ha":781,"x_min":107,"x_max":672,"o":"m 672 588 l 672 0 l 532 0 l 522 106 q 432 10 492 46 q 296 -25 372 -25 q 162 24 215 -25 q 107 151 108 74 l 107 588 l 263 588 l 263 207 q 358 108 267 110 q 472 171 426 108 q 517 328 517 233 l 517 588 l 672 588 m 565 789 l 565 679 l 219 679 l 219 789 l 565 789 z "},"ų":{"ha":786,"x_min":107,"x_max":764,"o":"m 764 -211 q 689 -281 738 -253 q 596 -308 640 -308 q 468 -263 519 -308 q 417 -146 417 -218 q 447 -56 417 -99 q 531 11 478 -12 l 522 106 q 432 10 492 46 q 296 -25 372 -25 q 162 24 215 -25 q 107 151 108 74 l 107 588 l 263 588 l 263 207 q 358 108 267 110 q 472 171 426 108 q 517 328 517 233 l 517 588 l 672 588 l 672 1 l 676 0 q 578 -61 611 -31 q 546 -133 546 -92 q 564 -182 546 -167 q 610 -197 582 -197 q 707 -131 664 -197 l 764 -211 z "},"ů":{"ha":781,"x_min":107,"x_max":672,"o":"m 672 588 l 672 0 l 532 0 l 522 106 q 432 10 492 46 q 296 -25 372 -25 q 162 24 215 -25 q 107 151 108 74 l 107 588 l 263 588 l 263 207 q 358 108 267 110 q 472 171 426 108 q 517 328 517 233 l 517 588 l 672 588 m 236 788 q 276 883 236 846 q 376 919 315 919 q 476 883 436 919 q 517 788 517 846 q 476 692 517 729 q 376 654 436 654 q 276 691 315 654 q 236 788 236 728 m 319 785 q 335 742 319 758 q 376 725 351 725 q 418 742 403 725 q 433 785 433 758 q 418 830 433 814 q 376 846 403 846 q 335 830 351 846 q 319 785 319 814 z "},"ũ":{"ha":781,"x_min":107,"x_max":672,"o":"m 672 588 l 672 0 l 532 0 l 522 106 q 432 10 492 46 q 296 -25 372 -25 q 162 24 215 -25 q 107 151 108 74 l 107 588 l 263 588 l 263 207 q 358 108 267 110 q 472 171 426 108 q 517 328 517 233 l 517 588 l 672 588 m 503 665 q 435 681 461 665 q 371 728 410 696 q 335 755 350 746 q 306 764 321 764 q 265 735 279 764 q 254 665 251 707 l 171 665 q 169 689 169 674 q 208 817 169 765 q 313 868 247 868 q 369 853 344 868 q 426 807 393 838 q 467 774 450 785 q 500 763 483 763 q 543 867 549 763 l 625 865 q 628 826 628 838 q 592 710 628 754 q 503 665 556 665 z "},"v":{"ha":708,"x_min":21,"x_max":688,"o":"m 688 588 l 365 -15 l 358 -15 l 21 588 l 206 588 l 367 251 l 514 588 l 688 588 z "},"w":{"ha":942,"x_min":21,"x_max":921,"o":"m 921 588 l 653 -35 l 464 363 l 292 -35 l 21 588 l 174 588 l 310 275 l 408 500 l 368 588 l 503 588 l 642 265 l 768 588 l 921 588 z "},"ẃ":{"ha":942,"x_min":21,"x_max":921,"o":"m 921 588 l 653 -35 l 464 363 l 292 -35 l 21 588 l 174 588 l 310 275 l 408 500 l 368 588 l 503 588 l 642 265 l 768 588 l 921 588 m 524 669 l 426 669 l 539 856 l 711 856 l 524 669 z "},"ŵ":{"ha":942,"x_min":21,"x_max":921,"o":"m 921 588 l 653 -35 l 464 363 l 292 -35 l 21 588 l 174 588 l 310 275 l 408 500 l 368 588 l 503 588 l 642 265 l 768 588 l 921 588 m 571 676 l 467 782 l 369 676 l 226 676 l 467 921 l 468 921 l 714 676 l 571 676 z "},"ẅ":{"ha":942,"x_min":21,"x_max":921,"o":"m 921 588 l 653 -35 l 464 363 l 292 -35 l 21 588 l 174 588 l 310 275 l 408 500 l 368 588 l 503 588 l 642 265 l 768 588 l 921 588 m 253 740 q 278 801 253 776 q 338 825 304 825 q 394 800 368 825 q 419 740 419 775 q 394 680 419 704 q 338 656 368 656 q 278 680 304 656 q 253 740 253 704 m 519 740 q 545 801 519 776 q 604 825 571 825 q 660 800 635 825 q 686 740 686 775 q 660 680 686 704 q 604 656 635 656 q 545 680 571 656 q 519 740 519 704 z "},"ẁ":{"ha":942,"x_min":21,"x_max":921,"o":"m 921 588 l 653 -35 l 464 363 l 292 -35 l 21 588 l 174 588 l 310 275 l 408 500 l 368 588 l 503 588 l 642 265 l 768 588 l 921 588 m 425 863 l 519 676 l 422 676 l 251 863 l 425 863 z "},"x":{"ha":681,"x_min":21,"x_max":658,"o":"m 471 0 l 322 194 l 185 0 l 28 0 l 244 294 l 21 588 l 214 588 l 357 399 l 476 588 l 632 588 l 429 304 l 658 0 l 471 0 z "},"y":{"ha":708,"x_min":21,"x_max":688,"o":"m 688 588 l 308 -282 l 156 -282 l 293 25 l 21 588 l 196 588 l 371 199 l 546 588 l 688 588 z "},"ý":{"ha":708,"x_min":21,"x_max":688,"o":"m 688 588 l 308 -282 l 156 -282 l 293 25 l 21 588 l 196 588 l 371 199 l 546 588 l 688 588 m 418 669 l 321 669 l 433 856 l 606 856 l 418 669 z "},"ŷ":{"ha":708,"x_min":21,"x_max":688,"o":"m 688 588 l 308 -282 l 156 -282 l 293 25 l 21 588 l 196 588 l 371 199 l 546 588 l 688 588 m 465 676 l 361 782 l 264 676 l 121 676 l 361 921 l 363 921 l 608 676 l 465 676 z "},"ÿ":{"ha":708,"x_min":21,"x_max":688,"o":"m 688 588 l 308 -282 l 156 -282 l 293 25 l 21 588 l 196 588 l 371 199 l 546 588 l 688 588 m 147 740 q 173 801 147 776 q 232 825 199 825 q 288 800 263 825 q 314 740 314 775 q 288 680 314 704 q 232 656 263 656 q 173 680 199 656 q 147 740 147 704 m 414 740 q 440 801 414 776 q 499 825 465 825 q 555 800 529 825 q 581 740 581 775 q 555 680 581 704 q 499 656 529 656 q 440 680 465 656 q 414 740 414 704 z "},"ỵ":{"ha":708,"x_min":21,"x_max":688,"o":"m 688 588 l 308 -282 l 156 -282 l 293 25 l 21 588 l 196 588 l 371 199 l 546 588 l 688 588 m 496 -156 q 520 -104 496 -125 q 575 -83 544 -83 q 626 -104 603 -83 q 650 -156 650 -125 q 627 -206 650 -186 q 575 -226 604 -226 q 520 -206 544 -226 q 496 -156 496 -186 z "},"ỳ":{"ha":708,"x_min":21,"x_max":688,"o":"m 688 588 l 308 -282 l 156 -282 l 293 25 l 21 588 l 196 588 l 371 199 l 546 588 l 688 588 m 319 863 l 414 676 l 317 676 l 146 863 l 319 863 z "},"ỷ":{"ha":708,"x_min":21,"x_max":688,"o":"m 688 588 l 308 -282 l 156 -282 l 293 25 l 21 588 l 196 588 l 371 199 l 546 588 l 688 588 m 332 697 q 377 737 363 719 q 392 776 392 754 q 380 812 392 799 q 347 825 368 825 q 288 783 311 825 l 231 819 q 290 888 253 865 q 368 911 326 911 q 451 878 422 911 q 479 797 479 844 q 450 717 479 751 q 368 651 421 682 l 332 697 z "},"ȳ":{"ha":708,"x_min":21,"x_max":688,"o":"m 688 588 l 308 -282 l 156 -282 l 293 25 l 21 588 l 196 588 l 371 199 l 546 588 l 688 588 m 539 767 l 539 657 l 193 657 l 193 767 l 539 767 z "},"ỹ":{"ha":708,"x_min":21,"x_max":688,"o":"m 688 588 l 308 -282 l 156 -282 l 293 25 l 21 588 l 196 588 l 371 199 l 546 588 l 688 588 m 476 643 q 409 658 435 643 q 344 706 383 674 q 309 733 324 724 q 279 742 294 742 q 239 713 253 742 q 228 643 225 685 l 144 643 q 143 667 143 651 q 182 794 143 743 q 286 846 221 846 q 342 831 318 846 q 400 785 367 815 q 440 751 424 763 q 474 740 457 740 q 517 844 522 740 l 599 843 q 601 804 601 815 q 565 688 601 732 q 476 643 529 643 z "},"z":{"ha":676,"x_min":35,"x_max":604,"o":"m 286 128 l 600 128 l 600 0 l 35 0 l 353 461 l 178 461 q 98 492 131 461 q 65 578 65 524 l 65 644 l 182 644 l 182 625 q 192 594 182 601 q 229 588 203 588 l 604 588 l 286 128 z "},"ź":{"ha":676,"x_min":35,"x_max":604,"o":"m 286 128 l 600 128 l 600 0 l 35 0 l 353 461 l 178 461 q 98 492 131 461 q 65 578 65 524 l 65 644 l 182 644 l 182 625 q 192 594 182 601 q 229 588 203 588 l 604 588 l 286 128 m 393 669 l 296 669 l 408 856 l 581 856 l 393 669 z "},"ž":{"ha":676,"x_min":35,"x_max":604,"o":"m 286 128 l 600 128 l 600 0 l 35 0 l 353 461 l 178 461 q 98 492 131 461 q 65 578 65 524 l 65 644 l 182 644 l 182 625 q 192 594 182 601 q 229 588 203 588 l 604 588 l 286 128 m 596 904 l 356 660 l 354 660 l 110 904 l 251 904 l 357 799 l 454 904 l 596 904 z "},"ż":{"ha":676,"x_min":35,"x_max":604,"o":"m 286 128 l 600 128 l 600 0 l 35 0 l 353 461 l 178 461 q 98 492 131 461 q 65 578 65 524 l 65 644 l 182 644 l 182 625 q 192 594 182 601 q 229 588 203 588 l 604 588 l 286 128 m 253 797 q 281 856 253 832 q 343 881 308 881 q 403 856 376 881 q 431 797 431 832 q 403 739 431 763 q 343 715 376 715 q 281 739 308 715 q 253 797 253 763 z "},"ﬁ":{"ha":836,"x_min":58,"x_max":743,"o":"m 158 451 l 58 451 l 58 589 l 158 589 l 158 819 q 221 1013 158 943 q 400 1082 283 1082 q 475 1072 435 1082 q 544 1042 515 1061 l 479 929 q 417 954 456 954 q 314 815 314 954 l 314 589 l 475 589 l 475 451 l 314 451 l 314 0 l 158 0 l 158 451 m 565 797 q 593 856 565 832 q 656 881 621 881 q 716 856 689 881 q 743 797 743 832 q 716 739 743 763 q 656 715 689 715 q 593 739 621 715 q 565 797 565 763 m 728 588 l 728 0 l 572 0 l 572 588 l 728 588 z "},"ﬂ":{"ha":836,"x_min":58,"x_max":728,"o":"m 728 1083 l 728 0 l 572 0 l 572 1083 l 728 1083 m 158 451 l 58 451 l 58 589 l 158 589 l 158 819 q 221 1013 158 943 q 400 1082 283 1082 q 475 1072 435 1082 q 544 1042 515 1061 l 479 929 q 417 954 456 954 q 314 815 314 954 l 314 589 l 475 589 l 475 451 l 314 451 l 314 0 l 158 0 l 158 451 z "},"ª":{"ha":549,"x_min":42,"x_max":471,"o":"m 471 997 l 471 597 l 351 597 l 351 651 q 299 608 332 628 q 221 589 265 589 q 92 644 142 589 q 42 799 42 699 q 66 911 42 863 q 131 986 90 960 q 218 1013 171 1013 q 353 947 307 1013 l 360 997 l 471 997 m 258 685 q 319 706 294 685 q 351 765 343 728 l 351 839 q 317 895 342 874 q 257 917 292 917 q 188 885 215 917 q 161 803 161 853 q 190 719 161 753 q 258 685 218 685 z "},"º":{"ha":521,"x_min":42,"x_max":481,"o":"m 42 799 q 103 950 42 890 q 263 1010 165 1010 q 420 950 360 1010 q 481 799 481 890 q 420 647 481 707 q 261 586 360 586 q 103 644 164 586 q 42 799 42 701 m 163 797 q 191 722 163 753 q 260 690 219 690 q 331 721 303 690 q 360 797 360 751 q 331 875 360 843 q 260 907 303 907 q 190 875 218 907 q 163 797 163 843 z "},"Δ":{"ha":1022,"x_min":33,"x_max":990,"o":"m 990 0 l 33 0 l 510 1053 l 517 1053 l 990 0 m 514 700 l 268 156 l 754 156 l 514 700 z "},"μ":{"ha":781,"x_min":107,"x_max":672,"o":"m 672 588 l 672 0 l 532 0 l 522 106 q 432 10 492 46 q 296 -25 372 -25 q 249 -19 269 -25 l 249 -328 l 107 -328 l 107 588 l 263 588 l 263 207 q 358 108 267 110 q 472 171 426 108 q 517 328 517 233 l 517 588 l 672 588 z "},"π":{"ha":565,"x_min":11,"x_max":550,"o":"m 550 497 l 550 361 l 469 361 l 469 0 l 332 0 l 332 361 l 229 361 l 229 0 l 90 0 l 90 361 l 11 361 l 11 497 l 550 497 z "},"¹":{"ha":383,"x_min":51,"x_max":283,"o":"m 283 919 l 283 378 l 139 378 l 139 779 l 51 779 l 51 919 l 283 919 z "},"²":{"ha":563,"x_min":82,"x_max":500,"o":"m 500 532 l 500 401 l 97 401 l 97 490 q 318 736 318 625 q 238 833 318 833 q 175 815 207 833 q 128 774 143 797 l 82 876 q 161 938 106 913 q 275 963 217 963 q 424 913 368 963 q 481 778 481 864 q 439 651 481 711 q 326 532 397 592 l 500 532 z "},"³":{"ha":533,"x_min":68,"x_max":438,"o":"m 306 750 q 399 699 361 739 q 438 594 438 658 q 379 453 438 510 q 228 397 321 397 q 135 417 175 397 q 68 464 94 436 l 113 554 q 208 499 160 499 q 272 522 247 499 q 296 589 296 544 q 271 658 296 636 q 206 681 246 681 q 142 668 167 681 l 135 682 l 235 839 l 89 839 l 89 951 l 417 951 l 306 750 z "},"⁴":{"ha":550,"x_min":46,"x_max":489,"o":"m 489 529 l 426 529 l 426 394 l 292 394 l 292 529 l 49 529 l 46 569 l 329 946 l 426 946 l 426 618 l 489 618 l 489 529 m 292 618 l 292 744 l 199 618 l 292 618 z "},"⁄":{"ha":797,"x_min":13,"x_max":724,"o":"m 158 0 l 13 0 l 578 958 l 724 958 l 158 0 z "},"½":{"ha":1246,"x_min":54,"x_max":1161,"o":"m 286 922 l 286 381 l 142 381 l 142 782 l 54 782 l 54 922 l 286 922 m 1161 119 l 1161 -11 l 758 -11 l 758 78 q 979 324 979 213 q 899 421 979 421 q 836 403 868 421 q 789 361 804 385 l 743 464 q 822 525 767 500 q 936 550 878 550 q 1085 501 1029 550 q 1142 365 1142 451 q 1100 239 1142 299 q 988 119 1058 179 l 1161 119 m 333 0 l 188 0 l 753 958 l 899 958 l 333 0 z "},"¼":{"ha":1154,"x_min":54,"x_max":1114,"o":"m 286 919 l 286 378 l 142 378 l 142 779 l 54 779 l 54 919 l 286 919 m 351 0 l 206 0 l 771 958 l 917 958 l 351 0 m 1114 135 l 1051 135 l 1051 0 l 917 0 l 917 135 l 674 135 l 671 175 l 954 551 l 1051 551 l 1051 224 l 1114 224 l 1114 135 m 917 224 l 917 350 l 824 224 l 917 224 z "},"¾":{"ha":1189,"x_min":69,"x_max":1117,"o":"m 307 750 q 401 699 363 739 q 439 594 439 658 q 381 453 439 510 q 229 397 322 397 q 136 417 176 397 q 69 464 96 436 l 114 554 q 210 499 161 499 q 273 522 249 499 q 297 589 297 544 q 272 658 297 636 q 207 681 247 681 q 143 668 168 681 l 136 682 l 236 839 l 90 839 l 90 951 l 418 951 l 307 750 m 389 0 l 243 0 l 808 958 l 954 958 l 389 0 m 1117 136 l 1054 136 l 1054 1 l 919 1 l 919 136 l 676 136 l 674 176 l 957 553 l 1054 553 l 1054 225 l 1117 225 l 1117 136 m 919 225 l 919 351 l 826 225 l 919 225 z "},"*":{"ha":465,"x_min":39,"x_max":432,"o":"m 88 660 l 39 744 l 101 778 q 140 800 107 782 l 40 860 q 85 939 54 886 l 188 879 l 188 1000 l 283 1000 l 282 879 l 386 938 l 417 885 l 432 858 l 379 829 q 326 799 363 818 l 429 740 l 408 704 l 381 657 q 364 667 374 661 q 342 679 354 672 l 279 717 l 278 603 l 188 603 l 188 718 l 88 660 z "},"\\":{"ha":564,"x_min":-6,"x_max":544,"o":"m 544 -26 l 388 -26 q -6 1039 207 460 l 153 1039 l 544 -26 z "},"·":{"ha":239,"x_min":36,"x_max":203,"o":"m 36 400 q 62 460 36 435 q 121 485 88 485 q 177 460 151 485 q 203 400 203 435 q 177 340 203 364 q 121 315 151 315 q 62 339 88 315 q 36 400 36 363 z "},"•":{"ha":675,"x_min":140,"x_max":538,"o":"m 140 424 q 167 524 140 478 q 238 597 193 569 q 338 624 283 624 q 438 597 392 624 q 510 524 483 569 q 538 424 538 478 q 511 323 538 368 q 438 251 485 278 q 338 225 392 225 q 238 251 283 225 q 167 323 193 278 q 140 424 140 368 z "},":":{"ha":247,"x_min":36,"x_max":203,"o":"m 36 469 q 62 529 36 504 q 121 554 88 554 q 177 529 151 554 q 203 469 203 504 q 177 409 203 433 q 121 385 151 385 q 62 408 88 385 q 36 469 36 432 m 36 85 q 62 144 36 119 q 121 169 88 169 q 177 144 151 169 q 203 85 203 119 q 177 24 203 49 q 121 0 151 0 q 62 24 88 0 q 36 85 36 47 z "},",":{"ha":283,"x_min":-4,"x_max":243,"o":"m 121 -169 l -4 -169 l 32 -72 q 104 122 94 96 l 243 122 l 121 -169 z "},"…":{"ha":740,"x_min":36,"x_max":707,"o":"m 36 85 q 62 144 36 119 q 121 169 88 169 q 177 144 151 169 q 203 85 203 119 q 177 24 203 49 q 121 0 151 0 q 62 24 88 0 q 36 85 36 47 m 289 85 q 315 144 289 119 q 374 169 340 169 q 430 144 404 169 q 456 85 456 119 q 430 24 456 49 q 374 0 404 0 q 315 24 340 0 q 289 85 289 47 m 542 85 q 567 144 542 119 q 625 169 593 169 q 681 144 656 169 q 707 85 707 119 q 681 24 707 49 q 625 0 656 0 q 567 24 592 0 q 542 85 542 47 z "},"!":{"ha":281,"x_min":46,"x_max":235,"o":"m 207 1058 l 207 267 l 68 267 l 68 1058 l 207 1058 m 142 -4 q 73 19 100 -4 q 46 79 46 42 q 74 140 46 115 q 142 165 101 165 q 208 140 182 165 q 235 79 235 115 q 209 19 235 42 q 142 -4 183 -4 z "},"¡":{"ha":282,"x_min":46,"x_max":235,"o":"m 142 767 q 209 744 183 767 q 235 683 235 721 q 208 622 235 647 q 142 597 182 597 q 74 622 101 597 q 46 683 46 647 q 73 744 46 721 q 142 767 100 767 m 68 496 l 207 496 l 207 -296 l 68 -296 l 68 496 z "},"#":{"ha":806,"x_min":33,"x_max":735,"o":"m 365 829 q 342 647 360 776 l 461 647 l 467 692 q 493 907 478 772 l 635 907 l 625 829 q 601 647 619 776 l 735 647 l 722 513 l 588 513 q 572 389 576 425 l 706 389 q 690 253 694 293 l 556 253 q 536 88 551 204 l 526 0 l 386 0 q 406 165 392 49 l 415 253 l 297 253 q 286 167 294 228 q 268 0 272 56 l 125 0 l 156 253 l 33 253 l 39 300 q 50 389 47 358 l 172 389 l 188 513 l 65 513 l 81 647 l 201 647 l 235 907 l 375 907 l 365 829 m 328 513 q 313 389 324 476 l 432 389 l 446 513 l 328 513 z "},".":{"ha":236,"x_min":36,"x_max":203,"o":"m 36 85 q 62 144 36 119 q 121 169 88 169 q 177 144 151 169 q 203 85 203 119 q 177 24 203 49 q 121 0 151 0 q 62 24 88 0 q 36 85 36 47 z "},"?":{"ha":640,"x_min":21,"x_max":607,"o":"m 218 346 q 235 453 218 410 q 274 522 251 496 q 339 588 296 549 q 417 668 392 632 q 442 758 442 704 q 402 851 442 814 q 313 889 363 889 q 211 851 251 889 q 149 751 171 813 l 21 811 q 72 908 35 857 q 174 997 110 960 q 328 1033 239 1033 q 529 965 451 1032 q 607 772 607 899 q 589 660 607 707 q 545 585 571 614 q 474 513 519 556 q 419 457 439 481 q 386 397 399 433 q 374 310 374 361 l 374 264 l 218 264 l 218 346 m 297 -4 q 228 19 256 -4 q 201 79 201 42 q 228 140 201 115 q 297 165 256 165 q 364 140 338 165 q 390 79 390 115 q 364 19 390 42 q 297 -4 338 -4 z "},"¿":{"ha":615,"x_min":38,"x_max":624,"o":"m 347 753 q 416 730 389 753 q 443 669 443 707 q 416 608 443 633 q 347 583 389 583 q 281 608 307 583 q 254 669 254 633 q 281 730 254 707 q 347 753 307 753 m 426 403 q 410 296 426 339 q 371 226 393 253 q 306 161 349 200 q 228 81 253 117 q 203 -10 203 44 q 242 -103 203 -65 q 332 -140 282 -140 q 433 -102 393 -140 q 496 -3 474 -64 l 624 -62 q 572 -160 610 -108 q 470 -248 535 -211 q 317 -285 406 -285 q 115 -217 193 -283 q 38 -24 38 -150 q 56 88 38 42 q 99 164 74 135 q 171 236 125 193 q 226 292 206 268 q 258 351 246 315 q 271 439 271 388 l 271 485 l 426 485 l 426 403 z "},"\"":{"ha":486,"x_min":89,"x_max":414,"o":"m 221 665 l 89 665 l 89 1015 l 226 1015 l 221 665 m 408 665 l 276 665 l 276 1015 l 414 1015 l 408 665 z "},"'":{"ha":235,"x_min":51,"x_max":190,"o":"m 185 665 l 51 665 l 51 1015 l 190 1015 l 185 665 z "},";":{"ha":283,"x_min":-25,"x_max":249,"o":"m 83 436 q 109 497 83 472 q 167 522 135 522 q 224 497 199 522 q 249 436 249 472 q 224 376 249 400 q 167 353 199 353 q 108 376 133 353 q 83 436 83 400 m 101 -169 l -25 -169 l 38 -6 q 85 122 63 64 l 222 122 l 101 -169 z "},"/":{"ha":554,"x_min":24,"x_max":557,"o":"m 557 1039 q 164 -26 344 460 l 24 -26 q 221 507 90 151 l 417 1039 l 557 1039 z "},"_":{"ha":846,"x_min":142,"x_max":706,"o":"m 706 135 l 706 0 l 142 0 l 142 135 l 706 135 z "},"{":{"ha":518,"x_min":47,"x_max":451,"o":"m 393 915 q 348 905 363 915 q 327 865 333 894 q 321 774 321 836 l 321 621 q 294 493 321 540 q 229 422 267 446 q 321 243 321 354 l 321 67 q 327 -25 321 4 q 348 -65 333 -54 q 393 -75 363 -75 l 451 -75 l 451 -211 l 354 -211 q 248 -205 283 -211 q 186 -160 213 -199 q 160 -33 160 -121 l 160 190 q 131 306 160 257 q 47 357 101 356 l 47 490 q 131 541 101 492 q 160 658 160 590 l 160 885 q 186 1003 160 967 q 249 1046 213 1039 q 354 1053 285 1053 l 451 1053 l 451 915 l 393 915 z "},"}":{"ha":532,"x_min":81,"x_max":485,"o":"m 139 -75 q 185 -65 169 -75 q 206 -24 200 -54 q 213 68 213 6 l 213 232 q 240 351 213 304 q 304 419 268 397 q 213 599 213 489 l 213 775 q 206 867 213 838 q 185 906 200 896 q 139 915 169 915 l 81 915 l 81 1053 l 178 1053 q 284 1047 249 1053 q 347 1004 319 1040 q 374 886 374 968 l 374 663 q 401 540 374 593 q 485 485 428 486 l 485 351 q 401 296 428 350 q 374 172 374 242 l 374 -44 q 347 -162 374 -126 q 284 -205 321 -199 q 178 -211 247 -211 l 81 -211 l 81 -75 l 139 -75 z "},"[":{"ha":510,"x_min":139,"x_max":443,"o":"m 443 1053 l 443 907 l 301 907 l 301 -67 l 443 -67 l 443 -210 l 139 -210 l 139 1053 l 443 1053 z "},"]":{"ha":510,"x_min":67,"x_max":371,"o":"m 67 -210 l 67 -65 l 208 -65 l 208 908 l 67 908 l 67 1053 l 371 1053 l 371 -210 l 67 -210 z "},"(":{"ha":563,"x_min":126,"x_max":483,"o":"m 126 410 q 194 778 126 608 q 358 1051 261 949 l 483 988 q 342 739 396 886 q 289 410 289 592 q 342 81 289 228 q 483 -167 396 -65 l 358 -232 q 193 42 260 -128 q 126 410 126 213 z "},")":{"ha":564,"x_min":89,"x_max":446,"o":"m 446 410 q 378 41 446 211 q 214 -232 311 -129 l 89 -167 q 230 81 176 -65 q 283 410 283 228 q 230 738 283 592 q 89 986 176 885 l 214 1051 q 378 778 311 949 q 446 410 446 608 z "},"—":{"ha":988,"x_min":140,"x_max":847,"o":"m 847 369 l 847 233 l 140 233 l 140 369 l 847 369 z "},"–":{"ha":718,"x_min":142,"x_max":565,"o":"m 565 369 l 565 233 l 142 233 l 142 369 l 565 369 z "},"-":{"ha":424,"x_min":75,"x_max":335,"o":"m 335 375 l 335 239 l 75 239 l 75 375 l 335 375 z "},"­":{"ha":833,"x_min":75,"x_max":335,"o":"m 335 375 l 335 239 l 75 239 l 75 375 l 335 375 z "},"«":{"ha":843,"x_min":53,"x_max":703,"o":"m 53 338 q 217 474 61 346 q 379 608 369 599 l 379 467 l 321 415 l 235 338 l 307 272 q 379 206 368 218 l 379 65 l 53 338 m 539 474 q 703 608 688 593 l 703 467 l 660 429 q 557 338 556 336 l 631 272 q 703 206 700 208 l 703 65 l 375 338 l 539 474 z "},"»":{"ha":843,"x_min":122,"x_max":772,"o":"m 122 65 l 122 206 q 196 272 140 224 l 268 338 q 165 429 269 336 l 122 467 l 122 608 q 286 474 179 560 q 450 338 442 346 l 122 65 m 446 65 l 446 206 q 518 272 449 208 q 590 338 574 321 l 504 415 l 446 467 l 446 608 q 610 474 461 593 q 772 338 771 339 l 446 65 z "},"‹":{"ha":508,"x_min":53,"x_max":379,"o":"m 53 338 q 217 474 61 346 q 379 608 369 599 l 379 467 l 321 415 l 235 338 l 307 272 q 379 206 368 218 l 379 65 l 53 338 z "},"›":{"ha":499,"x_min":122,"x_max":449,"o":"m 122 65 l 122 206 q 194 272 125 208 q 267 338 250 321 l 181 415 l 122 467 l 122 608 q 286 474 138 593 q 449 338 447 339 l 122 65 z "},"„":{"ha":438,"x_min":40,"x_max":397,"o":"m 40 -68 q 82 -3 65 -43 q 99 76 99 36 q 96 108 99 86 l 218 118 q 221 89 221 99 q 191 -21 221 35 q 119 -104 161 -76 l 40 -68 m 217 -68 q 258 -3 242 -43 q 275 76 275 36 q 272 108 275 86 l 394 118 q 397 89 397 99 q 367 -21 397 35 q 296 -104 338 -76 l 217 -68 z "},"“":{"ha":428,"x_min":42,"x_max":406,"o":"m 406 989 q 363 922 379 963 q 346 843 346 882 q 349 813 346 832 l 226 803 q 222 843 222 824 q 251 947 222 899 q 325 1025 281 994 l 406 989 m 225 989 q 182 922 199 963 q 165 843 165 882 q 168 813 165 832 l 46 803 q 42 843 42 824 q 71 947 42 899 q 144 1025 100 994 l 225 989 z "},"”":{"ha":428,"x_min":40,"x_max":397,"o":"m 40 817 q 82 881 65 842 q 99 961 99 921 q 96 993 99 971 l 218 1003 q 221 974 221 983 q 191 864 221 919 q 119 781 161 808 l 40 817 m 217 817 q 258 881 242 842 q 275 961 275 921 q 272 993 275 971 l 394 1003 q 397 974 397 983 q 367 864 397 919 q 296 781 338 808 l 217 817 z "},"‘":{"ha":258,"x_min":38,"x_max":221,"o":"m 221 989 q 178 922 194 963 q 161 843 161 882 q 164 813 161 832 l 42 803 q 38 843 38 824 q 67 947 38 899 q 140 1025 96 994 l 221 989 z "},"’":{"ha":264,"x_min":40,"x_max":221,"o":"m 40 817 q 82 881 65 842 q 99 961 99 921 q 96 993 99 971 l 218 1003 q 221 974 221 983 q 191 864 221 919 q 119 781 161 808 l 40 817 z "},"‚":{"ha":264,"x_min":40,"x_max":221,"o":"m 40 -75 q 82 -10 65 -50 q 99 69 99 29 q 96 101 99 79 l 218 111 q 221 82 221 92 q 191 -28 221 28 q 119 -111 161 -83 l 40 -75 z "}," ":{"ha":444,"x_min":0,"x_max":0,"o":""},"₵":{"ha":967,"x_min":76,"x_max":889,"o":"m 889 79 q 781 23 850 50 q 631 -10 713 -4 l 631 -172 l 489 -172 l 489 -3 q 269 91 363 19 q 126 269 175 163 q 76 497 76 375 q 128 744 76 633 q 273 926 179 856 q 489 1015 367 997 l 489 1143 l 631 1143 l 631 1019 q 872 939 765 1007 l 808 788 q 631 863 721 849 l 631 146 q 739 174 690 153 q 821 224 788 194 l 889 79 m 244 507 q 310 282 244 376 q 489 157 375 188 l 489 853 q 313 726 382 821 q 244 507 244 631 z "}}}
